<?xml version="1.0" encoding="UTF-8" standalone="no"?>
<!-- Created with Inkscape (http://www.inkscape.org/) -->

<svg
   xmlns:dc="http://purl.org/dc/elements/1.1/"
   xmlns:cc="http://creativecommons.org/ns#"
   xmlns:rdf="http://www.w3.org/1999/02/22-rdf-syntax-ns#"
   xmlns:svg="http://www.w3.org/2000/svg"
   xmlns="http://www.w3.org/2000/svg"
   xmlns:sodipodi="http://sodipodi.sourceforge.net/DTD/sodipodi-0.dtd"
   xmlns:inkscape="http://www.inkscape.org/namespaces/inkscape"
   width="195.19841"
   height="50.622601"
   viewBox="0 0 195.19843 50.622599"
   id="svg2"
   version="1.1"
   inkscape:version="0.91 r13725"
   sodipodi:docname="old_logo_vector_pride.svg">
  <defs
     id="defs4">
    <clipPath
       clipPathUnits="userSpaceOnUse"
       id="clipPath3653">
      <g
         id="g3655"
         transform="matrix(0,2.4389889,-14.91237,0,7060.3793,-400.39318)">
        <path
           transform="translate(165.55972,422.36029)"
           inkscape:connector-curvature="0"
           id="path3657"
           d="M 16.436228,3.3096653 C 14.315503,3.3857296 13.152484,5.3940525 12.494033,7.1571311 9.2152021,15.061468 6.0461847,23.017245 2.8839153,30.965379 c -0.7859234,2.043245 0.8630334,4.482061 3.0566882,4.491011 1.7412411,-0.05448 3.5690251,0.162783 5.2523825,-0.337781 1.996063,-0.806497 2.205533,-3.158873 2.922121,-4.913446 1.58651,-0.03703 3.173547,-0.03682 4.760391,-0.04126 0.712094,1.803818 0.899565,4.307377 3.008521,5.048817 1.58506,0.506418 3.33027,0.185417 4.976057,0.239439 2.197318,-0.03517 3.818299,-2.469344 3.041397,-4.515746 C 26.802821,22.775455 23.860208,14.541585 20.595188,6.4394236 19.953579,4.6568183 18.4566,3.1558173 16.436228,3.3096653 Z"
           style="fill:#ffffff" />
        <path
           transform="translate(165.55972,422.36029)"
           inkscape:connector-curvature="0"
           id="path3659"
           d="m 40.05829,2.8691301 c -1.686816,0.5924354 -2.521679,2.4233579 -2.301529,4.1295713 -0.05675,0.9892373 0.110328,2.2040106 -0.07778,3.0608876 -2.03854,-0.076218 -4.191215,-0.0228 -5.944849,1.166943 -1.77448,1.069803 -3.922787,2.572708 -3.704752,4.917429 0.03344,4.979007 -0.06594,9.968962 0.05034,14.941141 0.151531,2.17462 2.375311,3.168491 4.098212,3.998008 2.46931,0.913416 5.274368,0.90552 7.780907,0.132399 1.490462,0.47829 3.142565,0.220193 4.689498,0.211767 2.024721,-0.102413 3.372444,-2.187983 3.100017,-4.110087 -0.01664,-8.459436 0.0332,-16.92435 -0.02488,-25.380371 C 47.67638,3.9246123 45.685356,2.4395994 43.740498,2.6868602 42.509104,2.7172916 41.268389,2.5796489 40.05829,2.8691301 Z M 37.714904,22.958303 c -0.0086,1.121527 -0.0072,2.243187 -0.02909,3.36457 -1.034228,0.200877 -2.240505,-0.405484 -2.289951,-1.557903 -0.262467,-1.702189 -0.417157,-4.02396 1.199894,-5.11929 0.379316,-0.167572 1.379683,-0.58072 1.138826,0.201853 -0.0066,1.036923 -0.01312,2.073846 -0.01968,3.11077 z"
           style="fill:#ffffff" />
        <path
           transform="translate(165.55972,422.36029)"
           inkscape:connector-curvature="0"
           id="path3661"
           d="m 59.969051,2.8691301 c -1.686816,0.5924354 -2.521679,2.4233579 -2.301529,4.1295713 -0.05953,0.9600949 0.110745,2.1533263 -0.06857,2.992017 -1.817285,-0.0198 -3.762641,-0.2093558 -5.336853,0.8953666 -4.8084,2.326805 -7.638064,7.800749 -7.278659,13.061936 -0.06747,4.866864 2.927774,9.852065 7.688584,11.358325 2.259687,0.726063 4.744779,0.512424 7.022735,-0.0279 1.53812,0.269327 3.2599,0.260282 4.862296,0.123951 1.960874,-0.168445 3.205905,-2.223568 2.950077,-4.085204 -0.01664,-8.459436 0.0332,-16.92435 -0.02488,-25.380371 -0.0471,-2.0122057 -2.038121,-3.4972186 -3.982978,-3.2499578 -1.181727,0.023915 -2.36945,-0.095393 -3.530218,0.1822699 z m -2.33062,20.0390039 c -0.05679,1.121828 0.06196,2.407901 -0.118446,3.434333 -0.932739,0.108562 -2.108339,-0.264956 -2.223456,-1.349213 -0.404547,-1.735509 -0.49053,-4.078042 1.055028,-5.293843 0.407835,-0.227821 1.511597,-0.656533 1.314268,0.141879 -0.0091,1.022281 -0.01826,2.044563 -0.02739,3.066844 z"
           style="fill:#ffffff" />
        <path
           transform="translate(165.55972,422.36029)"
           inkscape:connector-curvature="0"
           id="path3663"
           d="m 66.504645,10.468657 c -1.745071,0.607267 -2.538155,2.519329 -2.296779,4.261673 0.298015,2.807677 1.714071,5.342025 2.610378,7.985825 1.215312,3.318404 2.670614,6.568424 3.560082,9.994775 -1.064782,0.644084 -2.517871,0.319841 -3.463523,1.270154 -1.79291,1.328279 -1.548361,3.772187 -1.445999,5.726513 0.10337,2.121521 2.392568,3.510486 4.375525,2.998435 3.179835,-0.397217 6.517941,-1.744902 8.392383,-4.458728 1.778625,-3.423086 2.88178,-7.151482 4.29714,-10.732052 1.554935,-4.294596 3.230074,-8.556284 4.701329,-12.874496 0.682293,-2.141433 -1.254091,-4.42638 -3.459016,-4.285386 -1.983564,-0.0095 -4.53397,-0.4628933 -5.823068,1.468028 -0.990894,1.556441 -1.319383,3.457989 -2.01168,5.163635 -0.28782,1.685193 -0.626436,0.465232 -0.960582,-0.499067 -0.757362,-1.619552 -1.037924,-3.50791 -2.156976,-4.928895 -1.455556,-1.6291049 -3.875629,-1.310885 -5.820605,-1.173156 -0.166203,0.02758 -0.332406,0.05516 -0.498609,0.08274 z"
           style="fill:#ffffff" />
        <path
           transform="translate(165.55972,422.36029)"
           inkscape:connector-curvature="0"
           id="path3665"
           d="M 88.325381,3.6270048 C 86.65611,4.1942033 85.955277,5.9423209 85.820857,7.5711202 84.360306,15.590321 82.773675,23.595266 81.409086,31.626784 c -0.290482,2.159842 1.770651,3.972378 3.857394,3.816335 1.86201,-0.02328 4.183208,0.278607 5.375495,-1.495948 0.920441,-1.357027 0.811367,-3.524828 1.257559,-4.775958 0.759773,1.824541 1.075715,3.928641 2.400678,5.459192 1.422506,1.427142 4.029573,1.262153 5.174945,-0.427305 1.165643,-1.682259 0.667283,-3.871281 0.829903,-5.792712 -0.003,-2.043848 0.287,-4.179774 -0.684549,-6.071667 C 97.646506,16.756651 95.979583,11.11578 94.026942,5.5325372 93.37968,3.8075644 91.407176,3.2682284 89.728327,3.4492472 89.254705,3.4236641 88.793009,3.5735139 88.325381,3.6270048 Z"
           style="fill:#ffffff" />
        <path
           transform="translate(165.55972,422.36029)"
           inkscape:connector-curvature="0"
           id="path3667"
           d="m 101.97128,3.4874824 c -1.68707,0.3454751 -2.648968,1.931946 -2.940495,3.522326 -1.169409,4.0171216 -2.470488,8.0062896 -3.558711,12.0406116 -0.318416,1.921785 0.94721,3.62815 1.365668,5.453318 -0.209632,-0.68548 0.292618,0.940492 0.519796,1.167537 0.95719,1.305564 2.794522,1.794365 4.261082,1.099852 0.48539,2.157927 0.69373,4.407829 1.40891,6.498258 0.78187,1.900039 3.00814,2.330703 4.84526,2.207654 1.70494,0.182217 3.78384,-0.292006 4.42655,-2.080463 0.75894,-1.796141 -0.26979,-3.702578 -0.4798,-5.525983 -1.52552,-7.270067 -2.83931,-14.589728 -4.50473,-21.8273933 -0.73848,-2.2229799 -3.29108,-2.7198724 -5.34353,-2.5557173 z"
           style="fill:#ffffff" />
        <path
           transform="translate(165.55972,422.36029)"
           inkscape:connector-curvature="0"
           id="path3669"
           d="m 119.00521,9.9263005 c -4.69928,-0.084215 -9.19286,3.0771515 -10.71148,7.5229385 -1.47697,3.896785 -0.56045,8.166254 0.62395,12.007447 1.25179,3.327465 4.59185,5.621796 8.03269,6.179469 3.27545,0.463414 6.83803,-0.125274 9.37977,-2.372478 2.88757,-2.390137 4.41011,-6.1701 4.25269,-9.888472 0.0981,-2.700842 -0.13931,-5.521004 -1.61927,-7.863846 -1.55035,-2.868812 -4.40303,-4.995506 -7.6635,-5.425786 -0.7582,-0.1219065 -1.52757,-0.1628377 -2.29485,-0.1592725 z m 0.26568,9.4605205 c 1.05871,-0.05445 1.115,1.388282 1.24947,2.119556 0.055,1.554638 0.17517,3.364591 -0.79795,4.674006 -0.6475,0.462938 -1.79396,0.233349 -1.86841,-0.686629 -0.39931,-1.836154 -0.57219,-3.927578 0.27281,-5.663132 0.22721,-0.399862 0.73331,-0.443202 1.14408,-0.443801 z"
           style="fill:#ffffff" />
        <path
           transform="translate(165.55972,422.36029)"
           inkscape:connector-curvature="0"
           id="path3671"
           d="m 134.97639,5.1700651 c -1.55078,0.1705965 -2.99028,0.9344402 -4.39816,1.5548765 -1.40928,0.6868502 -1.90878,2.3647213 -1.79101,3.8360384 -1.65182,0.672167 -2.32909,2.526713 -2.11599,4.203191 -0.16307,1.658446 0.23697,3.676585 1.94169,4.376141 0.45629,0.637825 0.0767,1.822605 0.21276,2.669973 0.11511,2.552008 -0.16899,5.139949 0.23999,7.665503 1.15836,3.214389 4.0203,6.139268 7.58647,6.283561 2.25404,-0.121735 4.6802,0.105748 6.75649,-0.927761 1.73971,-0.953724 2.01801,-3.164355 1.52581,-4.914375 -0.20676,-1.826943 -1.37895,-3.741602 -3.36843,-3.911679 -0.91502,-0.167618 -1.90431,0.30054 -2.72366,0.329214 -0.16375,-2.268031 -0.14108,-4.54448 -0.19207,-6.816716 1.65427,0.10014 3.58791,0.01305 4.59267,-1.525249 0.84919,-1.528812 0.58915,-3.381436 0.43902,-5.048776 -0.33984,-1.866791 -2.34759,-2.880725 -4.1315,-2.664918 -1.09085,0.34774 -0.92131,-0.5559434 -0.93581,-1.3122288 0.0226,-2.0150379 -1.55581,-3.8469758 -3.63827,-3.7967951 z"
           style="fill:#ffffff" />
        <path
           transform="translate(165.55972,422.36029)"
           inkscape:connector-curvature="0"
           id="path3673"
           d="m 148.41241,3.1458005 c -3.29321,-0.043339 -5.99134,3.3829578 -5.1843,6.5721067 0.61313,3.1871348 4.45827,5.1031338 7.38133,3.6970508 2.76833,-1.076337 4.08442,-4.653019 2.62956,-7.2510172 -0.89426,-1.7882108 -2.79061,-3.0951881 -4.82659,-3.0181403 z"
           style="fill:#ffffff" />
        <path
           transform="translate(165.55972,422.36029)"
           inkscape:connector-curvature="0"
           id="path3675"
           d="m 143.10788,10.468657 c -1.68682,0.592436 -2.52168,2.423358 -2.30153,4.129572 -0.11664,1.66467 0.0363,3.668457 1.66405,4.570284 1.22114,0.100912 0.90764,1.177773 0.91979,2.068912 0.0481,3.761263 -0.0978,7.538515 0.0747,11.289537 0.16844,1.960874 2.22356,3.205904 4.0852,2.950077 1.77409,-0.0066 3.96671,0.294134 5.13131,-1.377718 1.17361,-1.64156 0.53689,-3.787547 0.70044,-5.669953 -0.0333,-5.000671 0.0666,-10.012321 -0.0498,-15.006153 -0.10188,-2.159243 -2.50743,-3.6023119 -4.50583,-2.92997 -1.01095,0.111743 -2.04085,-0.288584 -3.06827,-0.203295 -0.89413,-0.02042 -1.7736,-0.03146 -2.65004,0.178707 z"
           style="fill:#ffffff" />
        <path
           transform="translate(165.55972,422.36029)"
           inkscape:connector-curvature="0"
           id="path3677"
           d="m 162.20644,9.842587 c -3.9377,0.191145 -7.75722,2.38499 -9.62706,5.902102 -1.16757,1.945322 -1.63793,4.205802 -1.55189,6.458832 -0.15744,2.345511 0.009,4.754498 1.07577,6.892393 1.81793,4.414791 6.78059,7.41639 11.537,6.521242 1.72071,-0.568597 2.57763,-2.422548 2.35674,-4.147977 0.11971,-1.652874 -0.0529,-3.634624 -1.66405,-4.527834 -0.74388,-0.575065 -1.72895,-0.355166 -2.53528,-0.680514 -1.00085,-1.293932 -0.83351,-3.125321 -0.72611,-4.668069 0.0963,-1.006961 0.54516,-2.433624 1.82542,-2.276485 2.02473,-0.102412 3.37245,-2.187982 3.10002,-4.110086 0.0435,-1.644831 0.15103,-3.631135 -1.37772,-4.685724 -0.68213,-0.5341311 -1.5582,-0.7101348 -2.41284,-0.67788 z"
           style="fill:#ffffff" />
        <path
           transform="translate(165.55972,422.36029)"
           inkscape:connector-curvature="0"
           id="path3679"
           d="m 183.70034,9.9874528 c -1.73813,0.041481 -3.56133,0.073663 -5.13889,0.9021472 -1.46039,-0.758214 -3.22402,-0.683384 -4.82896,-0.565809 -1.74995,0.478586 -2.73256,2.302455 -2.52833,4.046452 0.0331,6.000891 -0.0662,12.012718 0.0501,18.006779 0.10242,2.02472 2.18799,3.372443 4.11009,3.100017 1.77409,-0.0066 3.96671,0.294134 5.13131,-1.377718 1.17361,-1.64156 0.53689,-3.787547 0.70044,-5.669953 0.034,-2.91976 -0.0677,-5.913309 0.0505,-8.78725 0.40904,-0.236737 1.3255,-0.532237 1.13109,0.275508 0.32359,4.129923 0.16265,8.132178 0.25119,12.313287 0.0494,2.010663 2.03947,3.492884 3.98281,3.246126 1.77341,-0.007 3.96759,0.293582 5.13131,-1.377718 1.17375,-1.641744 0.53664,-3.787954 0.69993,-5.670547 -0.0635,-3.634217 0.14114,-7.29334 -0.24321,-10.910664 -0.66984,-4.081523 -4.18672,-7.7204079 -8.4993,-7.5306572 z"
           style="fill:#ffffff" />
        <path
           transform="translate(165.55972,422.36029)"
           inkscape:connector-curvature="0"
           id="path3681"
           d="m 165.6004,10.646474 c -1.91139,0.346363 -3.02323,2.289811 -2.91365,4.134321 -0.0566,1.449759 -0.40555,2.998435 0.4251,4.317185 1.16671,1.619404 1.02524,3.758101 0.74482,5.630775 -0.33826,1.471933 -1.64859,2.648713 -1.39167,4.272359 0.37977,1.72353 -0.0682,3.846434 1.46869,5.108259 1.46496,1.413433 3.81987,0.998975 5.21029,-0.305713 3.14884,-2.298052 5.05405,-6.193089 4.91772,-10.090452 0.0535,-2.721949 -0.0195,-5.597381 -1.50298,-7.984847 -1.29262,-2.263378 -3.21505,-4.475407 -5.8454,-5.101479 -0.37097,0.0065 -0.74195,0.01306 -1.11292,0.01959 z"
           style="fill:#ffffff" />
        <path
           transform="translate(165.55972,422.36029)"
           inkscape:connector-curvature="0"
           id="path3683"
           d="m 111.79093,36.796986 c -1.57242,0.308753 -2.77328,1.807265 -2.72945,3.409249 0.0247,2.379935 -0.05,4.764904 0.0384,7.141605 0.13715,1.731191 1.79334,3.109629 3.51359,3.02202 0.81206,0.0044 1.6624,0.04351 2.41121,-0.321346 1.02105,0.462807 2.20225,0.353654 3.28539,0.228975 0.41237,-0.184554 0.7645,-0.253124 1.17088,-0.04245 0.90852,0.219803 1.8785,0.163148 2.79765,0.04245 1.61184,-0.341664 2.76911,-1.95531 2.63919,-3.587732 -0.0793,-1.894043 0.064,-3.811251 -0.25061,-5.687501 -0.44669,-2.170783 -2.34502,-3.966736 -4.57233,-4.164155 -0.89019,-0.121378 -1.79964,0.06696 -2.64514,0.272366 -1.07576,-0.419814 -2.27713,-0.348319 -3.38096,-0.184783 -0.73253,-0.243816 -1.52142,-0.223771 -2.27787,-0.128698 z"
           style="fill:#ffffff" />
        <path
           transform="translate(165.55972,422.36029)"
           inkscape:connector-curvature="0"
           id="path3685"
           d="m 107.89112,36.817024 c -2.48673,-0.02065 -4.87745,1.562753 -5.82477,3.863291 -1.36176,3.089879 -0.39026,7.184385 2.5598,8.988668 1.65328,1.038034 3.78472,1.010569 5.58207,0.394378 1.48855,-0.493545 2.37931,-2.102928 2.23357,-3.631302 0.0526,-0.989948 -0.13808,-2.051443 -0.83462,-2.79817 0.98917,-1.08243 0.9209,-2.670592 0.74224,-4.026785 -0.3038,-1.429538 -1.59297,-2.462054 -3.00681,-2.674306 -0.4772,-0.09442 -0.96589,-0.120516 -1.45148,-0.115774 z"
           style="fill:#ffffff" />
        <path
           transform="translate(165.55972,422.36029)"
           inkscape:connector-curvature="0"
           id="path3687"
           d="m 101.59984,36.806486 c -2.571151,-0.03523 -5.072995,1.567091 -6.069674,3.94552 -1.334533,2.989576 -0.430346,6.945956 2.392218,8.748065 1.662693,1.060662 3.857606,1.320697 5.699346,0.591784 1.45339,-0.667587 2.28278,-2.407995 1.84812,-3.953213 -0.29882,-0.889669 -0.64302,-1.827921 -1.35192,-2.476551 0.76906,-0.707407 1.13061,-1.741237 1.39769,-2.724097 0.38703,-1.631508 -0.64128,-3.426123 -2.24094,-3.927003 -0.53418,-0.192284 -1.11286,-0.206453 -1.67484,-0.204505 z"
           style="fill:#ffffff" />
      </g>
    </clipPath>
  </defs>
  <sodipodi:namedview
     id="base"
     pagecolor="#000000"
     bordercolor="#666666"
     borderopacity="1.0"
     inkscape:pageopacity="0"
     inkscape:pageshadow="2"
     inkscape:zoom="3.2896783"
     inkscape:cx="110.7961"
     inkscape:cy="49.950674"
     inkscape:document-units="px"
     inkscape:current-layer="layer1"
     showgrid="false"
     inkscape:window-width="1920"
     inkscape:window-height="1021"
     inkscape:window-x="0"
     inkscape:window-y="27"
     inkscape:window-maximized="1"
     fit-margin-top="0"
     fit-margin-left="0"
     fit-margin-right="0"
     fit-margin-bottom="0"
     units="px" />
  <metadata
     id="metadata7">
    <rdf:RDF>
      <cc:Work
         rdf:about="">
        <dc:format>image/svg+xml</dc:format>
        <dc:type
           rdf:resource="http://purl.org/dc/dcmitype/StillImage" />
        <dc:title></dc:title>
      </cc:Work>
    </rdf:RDF>
  </metadata>
  <g
     inkscape:label="Layer 1"
     inkscape:groupmode="layer"
     id="layer1"
     transform="translate(-165.55972,-422.36029)">
    <rect
       style="fill:#750787"
       y="167.3878"
       x="-413.27267"
       height="196.80286"
       width="37.273045"
       id="rect3468"
       transform="matrix(0,-1,1,0,0,0)" />
    <rect
       style="fill:#004dff"
       y="167.3878"
       x="-413.27267"
       height="164.00238"
       width="37.273045"
       id="rect3470"
       transform="matrix(0,-1,1,0,0,0)" />
    <rect
       style="fill:#008026"
       y="167.3878"
       x="-413.27267"
       height="131.2019"
       width="37.273045"
       id="rect3472"
       transform="matrix(0,-1,1,0,0,0)" />
    <rect
       style="fill:#ffed00"
       y="167.3878"
       x="-413.27267"
       height="98.401428"
       width="37.273045"
       id="rect3474"
       transform="matrix(0,-1,1,0,0,0)" />
    <rect
       style="fill:#ff8c00"
       y="167.3878"
       x="-413.27267"
       height="65.600952"
       width="37.273045"
       id="rect3476"
       transform="matrix(0,-1,1,0,0,0)" />
    <rect
       style="fill:#e40303"
       y="167.3878"
       x="-413.27267"
       height="32.800476"
       width="37.273045"
       id="rect3478"
       transform="matrix(0,-1,1,0,0,0)" />
    <path
       style="fill:#e40303;fill-opacity:1"
       d="M 16.666954,5.6355394 C 15.438056,5.8089774 15.11782,7.2430911 14.632527,8.1753997 11.414224,16.003929 8.2679518,23.862451 5.1232038,31.720964 c -0.2924734,0.836467 0.5585517,1.544814 1.360422,1.3663 1.3004345,-0.07518 2.6431351,0.161956 3.9127092,-0.14127 0.753257,-0.730068 0.792364,-1.891744 1.220622,-2.816562 0.266185,-0.769793 0.533113,-1.539338 0.806261,-2.306693 2.734418,0.0161 5.468836,0.03205 8.203255,0.04786 0.559299,1.561758 0.980208,3.19131 1.625911,4.71075 0.575589,0.858522 1.775191,0.382504 2.645742,0.505916 0.889763,-0.08131 2.188491,0.281508 2.680542,-0.71789 0.284785,-0.925159 -0.465377,-1.779187 -0.662184,-2.655637 C 24.129409,22.328591 21.422882,14.911719 18.535357,7.5652353 18.17688,6.7388683 17.773494,5.577375 16.666954,5.6355394 Z M 16.828585,17.06342 c 0.699345,2.046251 1.394613,4.099026 2.071804,6.162935 -1.583591,0.01421 -3.297025,0.03012 -4.851423,-0.02897 0.789917,-2.352862 1.621708,-4.691705 2.47441,-7.022514 0.101736,0.296182 0.203472,0.592364 0.305209,0.888546 z"
       id="path4519"
       inkscape:connector-curvature="0"
       transform="translate(165.55972,422.36029)" />
    <path
       style="fill:#e40303;fill-opacity:1"
       d="m 40.67009,5.3828153 c -0.764645,1.4433692 -0.168818,3.2368857 -0.359106,4.8299957 -0.04879,0.889546 0.03994,2.010424 -0.140059,2.762842 -2.238074,-0.80399 -4.894615,-0.759826 -7.063027,0.257349 -5.875788,3.194128 -7.328464,11.93924 -3.319505,17.139932 2.144786,2.739376 5.984676,3.625029 9.229291,2.580625 0.846258,-0.243632 1.395739,-0.826051 1.909012,0.05962 1.271929,0.229946 2.781735,0.288908 4.044854,-0.09531 0.773987,-1.445889 0.156247,-3.253321 0.353907,-4.847224 -0.04957,-7.371054 0.09889,-14.77725 -0.07396,-22.1264251 C 44.69247,4.5064862 42.719906,5.38955 41.531137,5.1460376 41.223746,5.0985406 40.957625,5.3134884 40.67009,5.3828153 Z M 37.691897,16.912712 c 1.19885,0.110186 3.020727,0.782279 2.604322,2.278305 -0.02768,2.889908 -0.05549,5.779815 -0.08331,8.669723 -2.493047,2.199525 -7.270154,0.406304 -7.233473,-3.07853 -0.355627,-2.475764 -0.08298,-5.578475 2.238892,-7.118863 0.717682,-0.501472 1.593404,-0.795343 2.473571,-0.750635 z"
       id="path4531"
       inkscape:connector-curvature="0"
       transform="translate(165.55972,422.36029)" />
    <path
       style="fill:#ff8c00;fill-opacity:1"
       d="m 60.445222,5.3828153 c -0.772878,1.4342555 -0.157068,3.2293352 -0.353907,4.8115397 -0.119909,0.801745 0.215635,2.360306 -0.200674,2.73008 -1.826518,-0.686944 -3.924272,-0.593898 -5.803571,-0.177163 -6.668842,2.566543 -8.730781,12.05636 -4.474006,17.548835 2.404886,3.173395 7.123286,3.923236 10.568512,2.10455 0.614026,1.370137 2.510474,0.517094 3.704059,0.753993 1.854983,-0.07613 1.045136,-2.374866 1.214955,-3.579372 -0.04959,-7.872593 0.09884,-15.780327 -0.07396,-23.6310541 C 64.467602,4.5064862 62.495038,5.38955 61.30627,5.1460376 60.998878,5.0985406 60.732758,5.3134884 60.445222,5.3828153 Z M 57.545955,16.91565 c 1.193703,0.0588 2.923322,0.773326 2.54536,2.217062 -0.0719,2.967902 0.150876,5.976495 -0.190178,8.899734 -2.209111,1.363932 -5.810852,0.853768 -6.776291,-1.841745 -0.618696,-1.757744 -0.426152,-3.736669 -0.217466,-5.558817 0.629188,-2.068257 2.402267,-3.723054 4.638575,-3.716234 z"
       id="path4533"
       inkscape:connector-curvature="0"
       transform="translate(165.55972,422.36029)" />
    <path
       style="fill:#ff8c00;fill-opacity:1"
       d="m 68.349985,12.671705 c -1.011529,-0.130918 -2.675665,0.249352 -2.123862,1.632674 2.076721,5.855688 4.645021,11.545478 6.439177,17.495517 0.28481,1.103674 0.168199,2.403607 -0.984895,2.967278 -1.095062,0.992515 -3.464999,0.314421 -3.803556,2.106228 0.0362,1.162931 -0.583349,3.174524 1.002422,3.427418 2.768418,-0.160985 5.830809,-1.210307 7.418299,-3.610037 2.20413,-4.743113 3.752904,-9.76951 5.662101,-14.637019 0.91719,-2.748149 2.196602,-5.417145 2.879527,-8.221261 -0.306658,-1.650948 -2.425947,-1.039361 -3.598685,-1.163317 -1.878153,-0.247594 -1.773998,2.133076 -2.383859,3.322491 -1.044319,3.045651 -2.057272,6.102487 -3.160264,9.127647 -1.614852,-3.962816 -2.987418,-8.054472 -4.669158,-11.968379 -0.578805,-0.846407 -1.807378,-0.358037 -2.677247,-0.47924 z"
       id="path4535"
       inkscape:connector-curvature="0"
       transform="translate(165.55972,422.36029)" />
    <path
       style="fill:#ffed00;fill-opacity:1"
       d="m 90.166275,6.0062458 c -1.383271,-0.1786283 -2.00526,1.2686189 -2.015129,2.4261313 -1.388925,7.7363319 -3.077132,15.4294559 -4.148227,23.2172239 -0.143098,1.688524 1.986833,1.564007 3.124289,1.447955 1.893511,-0.05951 1.833262,-2.388795 2.201109,-3.729667 0.631778,-3.259358 1.1955,-6.531492 1.82873,-9.790589 1.606721,4.359465 2.91571,8.847831 4.697769,13.131924 0.763637,1.258924 2.50572,0.41963 2.655443,-0.837155 1.460897,-4.067911 2.771821,-8.181444 4.220761,-12.251948 0.90148,4.255299 1.46397,8.599072 2.6541,12.784314 0.86262,1.149858 2.57723,0.585843 3.80271,0.750215 1.73876,-0.359624 0.60689,-2.373753 0.51446,-3.51573 -1.5866,-7.594912 -2.97825,-15.246005 -4.69291,-22.8052119 -0.75712,-1.3270817 -3.51197,-1.1502895 -3.57148,0.6157079 -1.458861,4.91262 -2.936758,9.819603 -4.421446,14.724461 C 95.184033,17.01446 93.617109,11.670569 91.727607,6.5241659 91.449051,5.9091326 90.719822,6.010849 90.166275,6.0062458 Z"
       id="path4537"
       inkscape:connector-curvature="0"
       transform="translate(165.55972,422.36029)" />
    <path
       style="fill:#008026;fill-opacity:1"
       d="m 118.86885,12.329133 c -4.39371,-0.0944 -8.27796,3.681485 -8.76329,7.949684 0.059,2.839916 -0.5615,5.961695 1.07851,8.494608 1.6465,3.338063 5.55033,5.080705 9.16338,4.502134 3.87363,-0.334251 6.94634,-3.635208 7.57928,-7.377937 0.81693,-4.180448 0.18202,-9.207729 -3.44281,-11.937494 -1.58857,-1.209293 -3.65812,-1.612065 -5.61507,-1.630995 z m 0.47649,4.591135 c 2.53988,0.04615 3.67272,2.755064 3.58861,4.948401 0.12678,2.383572 -0.0641,5.498004 -2.51639,6.66294 -1.93613,0.786537 -4.48477,-0.175392 -4.88543,-2.361479 -0.77872,-2.729266 -0.72532,-5.953258 1.12679,-8.253632 0.69909,-0.696966 1.70709,-1.043739 2.68642,-0.99623 z"
       id="path4539"
       inkscape:connector-curvature="0"
       transform="translate(165.55972,422.36029)" />
    <path
       style="fill:#008026;fill-opacity:1"
       d="m 134.95336,7.583504 c -1.2238,0.407575 -2.59442,0.7475196 -3.59323,1.5839754 -0.317,1.1152766 0.0462,2.4863476 -0.19606,3.5017066 -1.38634,-0.386335 -2.47979,0.687829 -2.07474,2.074743 -0.24221,1.123445 0.20902,2.65439 1.64485,2.28969 1.1052,0.207069 0.22141,2.424037 0.52716,3.438965 0.16212,2.959757 -0.22217,5.997565 0.41113,8.908318 1.00821,2.411542 3.50374,4.369551 6.22591,3.919846 1.50432,-0.265 3.70278,0.369236 4.62934,-1.20488 0.25739,-1.116078 0.0823,-2.523446 -0.67045,-3.409766 -1.22075,-0.703899 -2.58436,0.497959 -3.88668,-0.01008 -1.49271,-0.06699 -1.60059,-1.712065 -1.59228,-2.859152 -0.11215,-2.891655 -0.10415,-5.848731 -0.15794,-8.783256 1.60113,-0.133649 3.30027,0.284983 4.83253,-0.236777 0.6278,-1.016572 0.37918,-2.414552 0.20598,-3.531291 -0.75303,-1.139815 -2.47797,-0.373133 -3.64639,-0.596365 -1.79217,0.586532 -1.34164,-1.065906 -1.36611,-2.249806 -0.0403,-1.0084303 0.21627,-2.8290286 -1.29302,-2.835876 z"
       id="path4541"
       inkscape:connector-curvature="0"
       transform="translate(165.55972,422.36029)" />
    <path
       style="fill:#004dff;fill-opacity:1"
       d="m 148.23473,5.5902056 c -2.41745,0.071989 -3.73049,3.5223495 -1.74014,5.0667894 1.60954,1.788912 4.82795,0.404385 4.7939,-1.9525754 0.16506,-1.7065999 -1.31335,-3.2780056 -3.05376,-3.114214 z"
       id="path4543"
       inkscape:connector-curvature="0"
       transform="translate(165.55972,422.36029)" />
    <path
       style="fill:#004dff;fill-opacity:1"
       d="m 143.62975,12.905963 c -0.65053,1.084606 -0.36213,2.56009 -0.20599,3.746238 0.39312,1.345885 2.93561,-0.298081 2.43144,1.456154 0.0494,4.744973 -0.0985,9.524972 0.074,14.24811 0.55902,1.437737 2.53159,0.554674 3.72035,0.798186 1.85499,-0.07613 1.04514,-2.374867 1.21496,-3.579373 -0.0492,-5.364938 0.0985,-10.76484 -0.074,-16.107906 -0.55903,-1.437738 -2.53159,-0.554674 -3.72036,-0.798186 -1.14022,0.0954 -2.3678,-0.226738 -3.44041,0.236777 z"
       id="path4545"
       inkscape:connector-curvature="0"
       transform="translate(165.55972,422.36029)" />
    <path
       style="fill:#004dff;fill-opacity:1"
       d="m 162.37884,12.317378 c -4.57644,-0.07275 -8.51155,3.882805 -8.88378,8.359007 -0.49164,3.762773 0.15408,8.041398 3.18181,10.636102 2.54071,2.371814 6.439,2.441017 9.56598,1.36651 3.78791,-1.788946 5.83019,-6.187603 5.43791,-10.267083 0.15759,-3.215795 -1.19907,-6.556758 -3.78634,-8.524835 -1.5956,-1.108959 -3.59631,-1.555027 -5.51558,-1.569701 z m 0.43409,4.642353 c 2.37821,-0.05161 3.63135,2.433009 3.55587,4.531102 0.11445,2.460826 0.14569,5.69863 -2.40179,6.98536 -1.60104,0.61798 -3.75535,0.385303 -4.52522,-1.384141 -1.03266,-2.103391 -0.96252,-4.588891 -0.60538,-6.834646 0.36556,-1.854742 2.00192,-3.466448 3.97652,-3.297675 z"
       id="path4547"
       inkscape:connector-curvature="0"
       transform="translate(165.55972,422.36029)" />
    <path
       style="fill:#750787;fill-opacity:1"
       d="m 182.61535,12.464314 c -1.67501,-0.02458 -3.41977,0.495488 -4.55755,1.78213 -0.21419,-1.467619 -1.56719,-1.810971 -2.83545,-1.577258 -1.59441,-0.362635 -1.84532,1.34496 -1.63897,2.504637 0.0493,5.723182 -0.0985,11.481332 0.074,17.182642 0.55903,1.437737 2.53159,0.554674 3.72036,0.798186 1.85498,-0.07613 1.04513,-2.374867 1.21495,-3.579373 0,-3.63157 0,-7.26314 0,-10.894711 1.39545,-1.512341 4.35694,-2.642396 5.81029,-0.675068 0.81636,2.714425 0.43524,5.609468 0.56844,8.401829 0.14118,2.120455 -0.28771,4.342524 0.24139,6.393836 1.1674,0.688592 2.70969,0.277858 3.99992,0.279525 1.44442,-0.56142 0.53956,-2.538133 0.77248,-3.729476 -0.16061,-4.100766 0.1841,-8.247968 -0.36179,-12.320532 -0.73388,-2.675733 -3.30301,-4.853122 -6.16797,-4.567206 -0.28005,-0.0055 -0.56002,-0.0057 -0.84006,8.39e-4 z"
       id="path4549"
       inkscape:connector-curvature="0"
       transform="translate(165.55972,422.36029)" />
    <path
       style="fill:#ffffff;fill-opacity:1"
       d="m 264.62325,472.74792 c -1.08327,-0.38631 -2.47015,-1.409 -3.04622,-2.24629 -0.90716,-1.31851 -1.0895,-1.92521 -0.96335,-3.20539 0.0631,-0.64059 0.031,-1.50159 -0.0735,-1.96779 -0.22723,-1.01395 0.0629,-2.17622 0.85398,-3.42125 0.2885,-0.45403 0.52454,-0.85282 0.52454,-0.8862 0,-0.0334 -0.34526,-0.11246 -0.76725,-0.17574 -0.87677,-0.13148 -2.65735,-0.97152 -3.10295,-1.46391 -0.29475,-0.32568 -0.31474,-0.32245 -1.1049,0.17876 -1.32355,0.83955 -2.21829,1.01659 -5.10619,1.01033 -2.0231,-0.004 -2.79474,-0.073 -3.47861,-0.30942 l -0.87881,-0.30378 -0.66646,1.30147 c -0.98902,1.93137 -2.79411,3.65523 -5.03019,4.80383 -0.95087,0.48843 -2.44093,1.09231 -3.31125,1.34196 -1.3979,0.40098 -1.81804,0.4463 -3.60369,0.3887 -1.73314,-0.0559 -2.15954,-0.12943 -2.99094,-0.51578 -2.17316,-1.00985 -3.42592,-2.88593 -3.56819,-5.34356 l -0.0799,-1.38039 -1.65937,0.0954 c -7.37168,0.42395 -8.26756,0.34706 -11.03864,-0.94743 l -1.44281,-0.674 -0.49058,0.34932 c -1.33522,0.95076 -1.97072,1.09639 -5.42291,1.24267 -9.31931,0.3949 -9.34519,0.39379 -11.55634,-0.49804 l -1.03191,-0.4162 -0.86594,0.3923 c -0.80812,0.3661 -1.09636,0.3923 -4.31658,0.3923 -3.36755,0 -3.47398,-0.0109 -4.42026,-0.45465 -1.73002,-0.81119 -2.87916,-2.17197 -3.44066,-4.07431 -0.14361,-0.48657 -0.31414,-0.73326 -0.50687,-0.73326 -0.19273,0 -0.36326,0.24669 -0.50687,0.73326 -0.5615,1.90234 -1.71064,3.26312 -3.44066,4.07431 -0.94875,0.44486 -1.04578,0.45465 -4.50653,0.45465 -3.46074,0 -3.55778,-0.01 -4.50653,-0.45465 -1.36356,-0.63936 -2.29924,-1.55201 -2.9538,-2.8811 -0.51553,-1.04681 -0.56239,-1.27889 -0.56239,-2.78508 l 0,-1.6431 5.06561,-12.59482 c 2.78609,-6.92715 5.27998,-13.0688 5.54197,-13.6481 0.64836,-1.43358 1.54488,-2.37164 2.90797,-3.04268 1.0975,-0.5403 1.22389,-0.5624 3.2164,-0.5624 1.87353,0 2.1665,0.0434 3.03081,0.44878 1.18516,0.55588 2.11816,1.36072 2.67104,2.30414 0.23255,0.39682 1.09025,2.50057 1.90599,4.67502 0.81575,2.17444 1.52485,4.02095 1.57577,4.10335 0.0509,0.0824 0.60718,-0.35213 1.23612,-0.96563 1.94037,-1.89271 4.20225,-3.16204 6.59154,-3.69907 l 1.32694,-0.29825 0.0771,-1.33203 c 0.13916,-2.40405 1.40579,-4.28664 3.56539,-5.29925 0.93517,-0.43849 1.08015,-0.45465 4.07883,-0.45465 l 3.1092,0 1.14239,0.56239 c 1.332,0.65574 2.24517,1.59314 2.87746,2.9538 0.3859,0.83043 0.4599,1.25835 0.51548,2.98074 l 0.0649,2.01112 0.88809,-0.41337 c 0.48846,-0.22736 1.4808,-0.54733 2.2052,-0.71106 l 1.3171,-0.29769 0.0771,-1.33203 c 0.13917,-2.40405 1.4058,-4.28664 3.56539,-5.29925 0.93517,-0.43849 1.08015,-0.45465 4.07883,-0.45465 l 3.1092,0 1.1424,0.56239 c 2.14205,1.05453 3.26541,2.84765 3.39017,5.41143 l 0.0724,1.488 0.8842,0.10472 c 1.18305,0.14011 2.86412,0.99177 3.62919,1.83861 l 0.62242,0.68895 0.62243,-0.68895 c 0.34234,-0.37893 1.1365,-0.94204 1.76482,-1.25136 1.04671,-0.5153 1.30537,-0.56757 3.0884,-0.62419 1.94323,-0.0617 1.94616,-0.0624 2.04594,-0.5176 0.70404,-3.21129 1.70253,-4.69021 3.8448,-5.6947 0.89754,-0.42084 1.14282,-0.45465 3.29881,-0.45465 2.15599,0 2.40128,0.0338 3.29881,0.45465 1.1857,0.55596 2.26645,1.50792 2.85809,2.51747 l 0.44426,0.75807 0.48165,-0.84333 c 0.60166,-1.05348 1.50715,-1.85812 2.74363,-2.43808 0.88802,-0.41651 1.1307,-0.44878 3.37587,-0.44878 2.38202,0 2.43657,0.009 3.56146,0.5624 2.06623,1.0172 2.95572,2.40817 3.61222,5.64875 0.21147,1.04382 0.43962,1.96185 0.50702,2.04007 0.0674,0.0782 0.75063,-0.17358 1.51833,-0.55958 2.41658,-1.21503 3.56647,-1.43849 6.99474,-1.35931 2.80616,0.0648 3.03115,0.096 4.50641,0.62554 0.85404,0.30652 1.68866,0.60293 1.85472,0.65868 0.21922,0.0736 0.30193,0.009 0.30193,-0.23627 0,-0.18569 0.23739,-0.81269 0.52753,-1.39333 0.93223,-1.86551 2.24925,-2.76402 6.02868,-4.1129 2.70007,-0.96365 5.82018,-0.13156 7.3278,1.95425 0.28732,0.39749 0.56121,0.72727 0.60866,0.73284 0.0474,0.006 0.30643,-0.41122 0.57551,-0.92622 0.66461,-1.27198 2.24935,-2.74377 3.68816,-3.42528 1.13937,-0.53968 1.23438,-0.5547 3.50921,-0.5547 l 2.33812,0 1.29551,0.64027 c 2.39198,1.18218 4.2072,3.65024 4.42131,6.01142 0.0793,0.87464 0.13958,1.02437 0.37181,0.92351 0.15243,-0.0662 0.88766,-0.30314 1.63382,-0.52654 1.16692,-0.34938 1.72409,-0.40619 3.98376,-0.40619 3.00614,0 4.5043,0.29186 6.6036,1.28643 l 1.24708,0.59081 0.97249,-0.58561 c 1.38201,-0.8322 2.37699,-1.00708 5.18389,-0.91113 1.67552,0.0573 2.64978,0.0132 3.25417,-0.14733 1.42348,-0.37799 5.43398,-0.30702 6.98819,0.12368 3.16876,0.8781 5.56771,2.83532 6.96409,5.68177 1.4821,3.02116 1.50981,3.25857 1.45276,12.44688 l -0.0497,8.00615 -0.5624,1.14201 c -0.65471,1.32946 -1.59062,2.24219 -2.9538,2.88061 -0.88591,0.41491 -1.19307,0.45938 -3.5576,0.51502 -2.98705,0.0703 -3.96147,-0.0946 -5.29072,-0.89498 l -0.93074,-0.56046 -0.77124,0.48792 c -1.26785,0.80212 -2.21588,0.99395 -4.91199,0.99395 -2.73467,0 -3.64341,-0.19003 -4.9884,-1.04317 l -0.84761,-0.53765 -1.30904,0.60952 c -2.27617,1.05987 -3.54212,1.31637 -6.49702,1.31637 -3.12712,0 -4.53731,-0.30116 -6.72269,-1.43566 -1.41156,-0.7328 -1.46293,-0.7455 -1.74679,-0.43182 -0.16087,0.17775 -0.80076,0.57359 -1.42198,0.87966 -1.10513,0.54448 -1.1881,0.55774 -3.84438,0.61465 -2.00189,0.0429 -2.93765,-0.007 -3.5632,-0.19051 -0.77562,-0.22737 -0.95739,-0.2192 -2.12052,0.0953 -0.98215,0.26557 -2.01091,0.36244 -4.51239,0.42488 -3.12036,0.0779 -3.29331,0.0643 -4.67548,-0.3666 -1.50856,-0.47034 -3.59212,-1.70724 -4.48862,-2.66462 l -0.49958,-0.53354 -0.782,0.68834 c -0.75862,0.66776 -3.62534,2.22978 -4.09225,2.22978 -0.45386,0 -0.42819,0.34224 0.0781,1.04115 0.77361,1.06795 0.91728,2.05748 0.85075,5.86012 -0.0558,3.18761 -0.0804,3.39897 -0.4683,4.02298 -0.22519,0.36223 -0.72424,0.86689 -1.10898,1.12145 l -0.69953,0.46285 -6.22362,0.0418 c -3.423,0.023 -7.04818,0.0896 -8.05597,0.14814 -1.40647,0.0816 -2.04892,0.0434 -2.76402,-0.16447 -0.81626,-0.2373 -1.01666,-0.24056 -1.61826,-0.0263 -0.90159,0.32107 -4.07861,0.32697 -4.96959,0.009 z m 4.16408,-3.61467 c 0.49263,-0.25474 0.52348,-0.31807 0.34535,-0.70902 -0.22883,-0.50222 -0.28599,-0.51265 -0.94002,-0.17156 -1.03697,0.54082 -2.4281,0.12877 -2.89629,-0.85787 -0.5148,-1.08485 -0.2526,-2.70819 0.55332,-3.42585 0.49069,-0.43694 1.55651,-0.55055 2.28999,-0.24408 0.57369,0.2397 0.61563,0.2324 0.9104,-0.15838 l 0.30901,-0.40966 -0.74404,-0.33766 c -1.91629,-0.86967 -4.10215,0.1295 -4.64046,2.12118 -0.47247,1.74807 0.24237,3.63588 1.62179,4.28295 0.85016,0.3988 2.32617,0.35715 3.19095,-0.0901 z m 6.51488,-0.18709 c 0.77329,-0.58982 1.12707,-1.30367 1.23347,-2.48885 0.18518,-2.06257 -0.811,-3.65983 -2.43437,-3.90327 -2.13113,-0.31958 -3.73093,1.17257 -3.72762,3.4768 0.002,1.5468 0.85324,2.99813 1.95754,3.33843 0.91872,0.2831 2.30368,0.0859 2.97098,-0.42311 z m -2.83894,-0.71497 c -0.8491,-0.59473 -1.15705,-2.45301 -0.60077,-3.62528 0.47748,-1.0062 1.78144,-1.41038 2.63081,-0.81545 1.23728,0.86662 1.13604,3.8577 -0.15236,4.50147 -0.59887,0.29924 -1.40078,0.2733 -1.87768,-0.0607 z m 6.70857,-1.43145 0,-2.57546 0.45461,-0.35758 c 0.58496,-0.46015 1.50732,-0.46604 1.96084,-0.0125 0.31438,0.31439 0.34506,0.57511 0.34506,2.93304 l 0,2.58798 0.60386,0 0.60386,0 0,-2.57546 0,-2.57545 0.45461,-0.35759 c 0.6153,-0.484 1.35853,-0.45798 1.88242,0.0659 0.4108,0.41081 0.42348,0.49862 0.42348,2.93304 l 0,2.50956 0.60386,0 0.60386,0 0,-2.50726 c 0,-2.64237 -0.14365,-3.32704 -0.82546,-3.93417 -0.56069,-0.49929 -1.58241,-0.55566 -2.52376,-0.13925 -0.81105,0.35876 -0.81285,0.35878 -1.44625,0.0193 -0.81688,-0.43782 -1.68135,-0.43142 -2.52115,0.0187 -0.53852,0.28863 -0.69737,0.31387 -0.81432,0.1294 -0.0799,-0.12605 -0.14649,-0.28742 -0.14794,-0.35858 -0.002,-0.0712 -0.19674,-0.1294 -0.43397,-0.1294 l -0.43133,0 0,3.45063 0,3.45064 0.60386,0 0.60386,0 0,-2.57546 z m -42.76526,-5.26443 c 1.95389,-0.41415 4.02341,-1.66987 4.77981,-2.90026 0.18959,-0.30838 2.12989,-5.41314 4.3118,-11.34392 2.1819,-5.93078 4.0223,-10.92193 4.08977,-11.09144 0.11371,-0.28566 -0.007,-0.30458 -1.6461,-0.25879 l -1.76879,0.0494 -2.38492,6.98753 c -1.31171,3.84315 -2.41098,7.05501 -2.44282,7.13747 -0.0318,0.0825 -1.24881,-3.02312 -2.70437,-6.90128 -1.45556,-3.87815 -2.70155,-7.11239 -2.76887,-7.18718 -0.0673,-0.0748 -0.86803,-0.11361 -1.77933,-0.0863 l -1.65693,0.0497 2.84013,7.3326 c 1.56208,4.03293 3.07637,8.01586 3.36509,8.85095 0.65693,1.90007 0.83292,3.63 0.4455,4.37917 -0.58726,1.13565 -2.11345,2.03267 -3.79455,2.23025 l -0.97842,0.11499 0,1.44277 0,1.44277 0.47447,-0.003 c 0.26095,-0.002 0.98929,-0.11212 1.61853,-0.24549 z m -32.76901,-6.84657 c 1.04102,-0.22066 2.11415,-0.71508 2.68274,-1.23602 l 0.38819,-0.35566 0,0.7202 0,0.7202 1.63905,0 1.63906,0 0,-13.11241 0,-13.11242 -1.63906,0 -1.63905,0 0,4.24141 c 0,2.33277 -0.0582,4.2118 -0.1294,4.17562 -2.13715,-1.08648 -2.12937,-1.08443 -4.10657,-1.08443 -1.85705,0 -1.9411,0.017 -3.22128,0.64965 -4.72912,2.33726 -6.71964,9.1172 -4.21466,14.35567 1.54532,3.23162 4.92345,4.81766 8.60098,4.03819 z m -2.27755,-2.83326 c -2.49277,-0.69471 -3.67267,-2.41798 -3.91439,-5.71705 -0.30772,-4.19989 1.84767,-7.40164 5.21793,-7.75102 1.39975,-0.14511 2.35854,0.14686 3.28419,1.00009 l 0.76075,0.70124 0,5.29977 c 0,5.95268 0.10643,5.47291 -1.38025,6.22166 -0.99374,0.50048 -2.67883,0.60465 -3.96823,0.24531 z m 22.1187,2.83326 c 1.04103,-0.22066 2.11416,-0.71508 2.68274,-1.23602 l 0.38819,-0.35566 0,0.7202 0,0.7202 1.63906,0 1.63905,0 0,-13.11241 0,-13.11242 -1.63905,0 -1.63906,0 0,4.24141 c 0,2.33277 -0.0582,4.2118 -0.12939,4.17562 -2.13716,-1.08648 -2.12938,-1.08443 -4.10658,-1.08443 -1.85705,0 -1.9411,0.017 -3.22128,0.64965 -4.72912,2.33726 -6.71963,9.1172 -4.21466,14.35567 1.54533,3.23162 4.92346,4.81766 8.60098,4.03819 z m -2.27755,-2.83326 c -2.49277,-0.69471 -3.67266,-2.41798 -3.91439,-5.71705 -0.30772,-4.19989 1.84767,-7.40164 5.21793,-7.75102 1.39975,-0.14511 2.35854,0.14686 3.28419,1.00009 l 0.76075,0.70124 0,5.29977 c 0,5.95268 0.10644,5.47291 -1.38025,6.22166 -0.99374,0.50048 -2.67883,0.60465 -3.96823,0.24531 z m 44.45582,-4.99568 c 2.9296,-8.79392 2.83385,-8.52229 2.91926,-8.28153 0.0337,0.0949 0.685,3.54984 1.44742,7.67767 0.76242,4.12782 1.42606,7.67982 1.47479,7.89332 0.0842,0.36897 0.16941,0.3882 1.72002,0.3882 l 1.63144,0 -0.11204,-0.56073 c -0.0616,-0.3084 -1.21002,-5.99548 -2.55199,-12.63795 l -2.43996,-12.07722 -0.79786,-0.0522 -0.79787,-0.0522 -0.51593,1.69122 c -0.28376,0.93017 -1.49473,4.95207 -2.69105,8.93755 -1.19631,3.98549 -2.22067,7.3628 -2.27634,7.50514 -0.10039,0.25666 -1.16614,-2.84261 -4.43483,-12.89675 l -1.69677,-5.21909 -0.80968,0 -0.80969,0 -2.30333,12.36946 c -1.26683,6.8032 -2.34,12.50969 -2.38483,12.68108 -0.0744,0.2845 0.0627,0.31163 1.5744,0.31163 1.57588,0 1.66018,-0.0188 1.74471,-0.3882 0.0488,-0.2135 0.67525,-3.64904 1.39199,-7.63453 0.71674,-3.98548 1.35945,-7.4266 1.42825,-7.64693 0.13031,-0.41734 0.15922,-0.33854 4.18573,11.40871 1.54265,4.50066 1.59679,4.62303 2.02264,4.57209 0.41633,-0.0498 0.56592,-0.43761 3.08152,-7.9888 z m 21.09131,7.7568 c 2.9276,-0.69008 5.06646,-2.97004 5.90096,-6.29028 0.31268,-1.24411 0.31437,-5.12934 0.003,-6.38368 -0.5751,-2.31498 -2.08722,-4.47587 -3.7748,-5.39436 -1.63933,-0.89224 -4.12454,-1.21606 -6.11686,-0.79701 -2.93162,0.61661 -5.10514,2.79045 -6.11319,6.11413 -0.38936,1.28375 -0.4402,5.03413 -0.0876,6.46092 0.36178,1.46384 1.29813,3.2812 2.14514,4.16343 1.94468,2.02552 5.02175,2.83915 8.04359,2.12685 z m -3.74249,-2.73775 c -1.14111,-0.37242 -1.86122,-1.02716 -2.43757,-2.21627 -0.67839,-1.39965 -0.9484,-3.05846 -0.83358,-5.12101 0.19346,-3.4749 1.57214,-5.58309 3.98165,-6.0885 1.98945,-0.41729 3.86827,0.38296 4.80244,2.04551 1.49226,2.65578 1.26105,7.71064 -0.45564,9.96133 -1.06851,1.40089 -3.24313,2.01103 -5.0573,1.41894 z m 23.56554,2.65307 c 0.86406,-0.1886 0.91076,-0.22583 0.82543,-0.65791 -0.0498,-0.2519 -0.13872,-0.76856 -0.19769,-1.14813 -0.20591,-1.32523 -0.1456,-1.27695 -1.15832,-0.92707 -1.72449,0.59579 -3.57127,0.26671 -4.39743,-0.78358 -0.61804,-0.7857 -0.7325,-1.93512 -0.7325,-7.35576 l 0,-5.16746 2.58798,0 2.58798,0 0,-1.29399 0,-1.29399 -2.58798,0 -2.58798,0 0,-2.60644 c 0,-2.01676 -0.0488,-2.58665 -0.21566,-2.51898 -0.11862,0.0481 -0.85619,0.34028 -1.63905,0.64931 l -1.42339,0.56187 0,1.95712 0,1.95712 -1.03519,0 -1.03519,0 0,1.29399 0,1.29399 1.03519,0 1.03519,0 0,5.74849 c 0,4.752 0.0476,5.90863 0.27433,6.67224 0.56864,1.91485 1.80086,3.18933 3.6939,3.8206 0.55999,0.18674 3.79216,0.0558 4.97038,-0.20142 z m 23.65495,0.0847 c 2.92761,-0.69008 5.06647,-2.97004 5.90097,-6.29028 0.31268,-1.24411 0.31437,-5.12934 0.003,-6.38368 -0.5751,-2.31498 -2.08722,-4.47587 -3.77481,-5.39436 -1.63933,-0.89224 -4.12454,-1.21606 -6.11685,-0.79701 -2.93163,0.61661 -5.10515,2.79045 -6.1132,6.11413 -0.38935,1.28375 -0.4402,5.03413 -0.0876,6.46092 0.36178,1.46384 1.29813,3.2812 2.14514,4.16343 1.94467,2.02552 5.02174,2.83914 8.04358,2.12685 z m -3.74249,-2.73775 c -1.14111,-0.37242 -1.86122,-1.02716 -2.43756,-2.21627 -0.6784,-1.39965 -0.94841,-3.05846 -0.83359,-5.12101 0.19346,-3.4749 1.57214,-5.58309 3.98165,-6.0885 1.98945,-0.41729 3.86827,0.38296 4.80244,2.04551 1.49227,2.65578 1.26106,7.71064 -0.45564,9.96133 -1.0685,1.40089 -3.24313,2.01103 -5.0573,1.41894 z m -150.75877,1.92535 c 0.15032,-0.40329 0.56435,-1.58729 0.92006,-2.63111 l 0.64674,-1.89785 4.77253,-0.0458 4.77254,-0.0458 0.8922,2.67695 0.8922,2.67694 1.87987,0 1.87987,0 -0.43202,-1.16459 c -0.23761,-0.64052 -2.398,-6.40524 -4.80085,-12.81048 -4.36275,-11.6297 -4.3695,-11.6459 -4.85573,-11.6459 -0.48339,0 -0.52218,0.0878 -5.37175,12.16349 -2.68666,6.68992 -5.00208,12.45464 -5.14536,12.81049 l -0.26052,0.64699 1.96845,0 1.96844,0 0.27333,-0.73326 z m 2.54448,-7.34733 c 0.0316,-0.0793 0.90735,-2.5763 1.94604,-5.54896 1.03869,-2.97266 1.92485,-5.29522 1.96924,-5.16123 0.0444,0.13399 0.87719,2.63102 1.85067,5.54897 l 1.76996,5.30535 -3.79671,0 c -2.0882,0 -3.77084,-0.0649 -3.7392,-0.14413 z m 137.30652,-1.23613 0,-9.31671 -2.93304,0 -2.93304,0 0,1.38025 0,1.38026 1.29399,0 1.29399,0 0,7.93646 0,7.93646 1.63905,0 1.63905,0 0,-9.31672 z m 27.77762,2.35279 0,-6.96392 0.82825,-0.77474 c 1.59955,-1.49619 3.89591,-1.90977 5.5238,-0.99485 1.56136,0.87754 1.75694,1.95627 1.75694,9.69052 l 0,6.00692 1.63905,0 1.63905,0 -0.003,-6.51307 c -0.002,-4.93351 -0.0619,-6.79108 -0.24596,-7.65938 -0.4487,-2.11702 -1.39109,-3.44938 -2.99781,-4.2384 -0.87435,-0.42937 -1.16664,-0.48138 -2.70557,-0.48138 -2.31572,0 -3.29931,0.34376 -4.54343,1.5879 -0.51223,0.51222 -0.94727,0.90797 -0.96677,0.87943 -0.0195,-0.0285 -0.23195,-0.51772 -0.4721,-1.08707 l -0.43664,-1.03519 -1.14696,-0.051 -1.14695,-0.051 0,9.3246 0,9.3246 1.63905,0 1.63905,0 0,-6.96393 z m -28.30208,-14.88472 c 1.79364,-1.05953 1.05345,-3.85858 -1.02039,-3.85858 -1.17073,0 -2.07831,0.90758 -2.07831,2.07832 0,1.55435 1.76475,2.56824 3.0987,1.78026 z m -62.37717,36.70611 c -0.58877,-0.35903 -1.10765,-1.29297 -1.10765,-1.99366 0,-0.69052 0.63135,-1.78251 1.20085,-2.07701 0.7137,-0.36907 1.83952,-0.3308 2.51298,0.0854 1.4233,0.87965 1.45092,3.10644 0.0491,3.96109 -0.7326,0.44665 -1.94437,0.45767 -2.6553,0.0242 z"
       id="path3565"
       inkscape:connector-curvature="0" />
    <circle
       style="fill:#0097a7;fill-opacity:1;stroke:none;stroke-width:16.29999924;stroke-linecap:square;stroke-linejoin:round;stroke-miterlimit:4;stroke-dasharray:none;stroke-opacity:1"
       id="path4254"
       cx="253.83011"
       cy="466.78122"
       r="4.6324501" />
  </g>
</svg>
