<?xml version="1.0" encoding="UTF-8" standalone="no"?>
<!-- Created with Inkscape (http://www.inkscape.org/) -->

<svg
   xmlns:dc="http://purl.org/dc/elements/1.1/"
   xmlns:cc="http://creativecommons.org/ns#"
   xmlns:rdf="http://www.w3.org/1999/02/22-rdf-syntax-ns#"
   xmlns:svg="http://www.w3.org/2000/svg"
   xmlns="http://www.w3.org/2000/svg"
   xmlns:sodipodi="http://sodipodi.sourceforge.net/DTD/sodipodi-0.dtd"
   xmlns:inkscape="http://www.inkscape.org/namespaces/inkscape"
   width="195.19841"
   height="50.622601"
   viewBox="0 0 195.19843 50.622599"
   id="svg2"
   version="1.1"
   inkscape:version="0.91 r13725"
   sodipodi:docname="old_logo_vector.svg">
  <defs
     id="defs4" />
  <sodipodi:namedview
     id="base"
     pagecolor="#000000"
     bordercolor="#666666"
     borderopacity="1.0"
     inkscape:pageopacity="0"
     inkscape:pageshadow="2"
     inkscape:zoom="4.6523077"
     inkscape:cx="72.977301"
     inkscape:cy="37.91376"
     inkscape:document-units="px"
     inkscape:current-layer="layer1"
     showgrid="false"
     inkscape:window-width="1920"
     inkscape:window-height="1027"
     inkscape:window-x="0"
     inkscape:window-y="27"
     inkscape:window-maximized="1"
     fit-margin-top="0"
     fit-margin-left="0"
     fit-margin-right="0"
     fit-margin-bottom="0"
     units="px" />
  <metadata
     id="metadata7">
    <rdf:RDF>
      <cc:Work
         rdf:about="">
        <dc:format>image/svg+xml</dc:format>
        <dc:type
           rdf:resource="http://purl.org/dc/dcmitype/StillImage" />
        <dc:title></dc:title>
      </cc:Work>
    </rdf:RDF>
  </metadata>
  <g
     inkscape:label="Layer 1"
     inkscape:groupmode="layer"
     id="layer1"
     transform="translate(-165.55972,-422.36029)">
    <path
       style="fill:#ffffff;fill-opacity:1"
       d="m 264.62325,472.74792 c -1.08327,-0.38631 -2.47015,-1.409 -3.04622,-2.24629 -0.90716,-1.31851 -1.0895,-1.92521 -0.96335,-3.20539 0.0631,-0.64059 0.031,-1.50159 -0.0735,-1.96779 -0.22723,-1.01395 0.0629,-2.17622 0.85398,-3.42125 0.2885,-0.45403 0.52454,-0.85282 0.52454,-0.8862 0,-0.0334 -0.34526,-0.11246 -0.76725,-0.17574 -0.87677,-0.13148 -2.65735,-0.97152 -3.10295,-1.46391 -0.29475,-0.32568 -0.31474,-0.32245 -1.1049,0.17876 -1.32355,0.83955 -2.21829,1.01659 -5.10619,1.01033 -2.0231,-0.004 -2.79474,-0.073 -3.47861,-0.30942 l -0.87881,-0.30378 -0.66646,1.30147 c -0.98902,1.93137 -2.79411,3.65523 -5.03019,4.80383 -0.95087,0.48843 -2.44093,1.09231 -3.31125,1.34196 -1.3979,0.40098 -1.81804,0.4463 -3.60369,0.3887 -1.73314,-0.0559 -2.15954,-0.12943 -2.99094,-0.51578 -2.17316,-1.00985 -3.42592,-2.88593 -3.56819,-5.34356 l -0.0799,-1.38039 -1.65937,0.0954 c -7.37168,0.42395 -8.26756,0.34706 -11.03864,-0.94743 l -1.44281,-0.674 -0.49058,0.34932 c -1.33522,0.95076 -1.97072,1.09639 -5.42291,1.24267 -9.31931,0.3949 -9.34519,0.39379 -11.55634,-0.49804 l -1.03191,-0.4162 -0.86594,0.3923 c -0.80812,0.3661 -1.09636,0.3923 -4.31658,0.3923 -3.36755,0 -3.47398,-0.0109 -4.42026,-0.45465 -1.73002,-0.81119 -2.87916,-2.17197 -3.44066,-4.07431 -0.14361,-0.48657 -0.31414,-0.73326 -0.50687,-0.73326 -0.19273,0 -0.36326,0.24669 -0.50687,0.73326 -0.5615,1.90234 -1.71064,3.26312 -3.44066,4.07431 -0.94875,0.44486 -1.04578,0.45465 -4.50653,0.45465 -3.46074,0 -3.55778,-0.01 -4.50653,-0.45465 -1.36356,-0.63936 -2.29924,-1.55201 -2.9538,-2.8811 -0.51553,-1.04681 -0.56239,-1.27889 -0.56239,-2.78508 l 0,-1.6431 5.06561,-12.59482 c 2.78609,-6.92715 5.27998,-13.0688 5.54197,-13.6481 0.64836,-1.43358 1.54488,-2.37164 2.90797,-3.04268 1.0975,-0.5403 1.22389,-0.5624 3.2164,-0.5624 1.87353,0 2.1665,0.0434 3.03081,0.44878 1.18516,0.55588 2.11816,1.36072 2.67104,2.30414 0.23255,0.39682 1.09025,2.50057 1.90599,4.67502 0.81575,2.17444 1.52485,4.02095 1.57577,4.10335 0.0509,0.0824 0.60718,-0.35213 1.23612,-0.96563 1.94037,-1.89271 4.20225,-3.16204 6.59154,-3.69907 l 1.32694,-0.29825 0.0771,-1.33203 c 0.13916,-2.40405 1.40579,-4.28664 3.56539,-5.29925 0.93517,-0.43849 1.08015,-0.45465 4.07883,-0.45465 l 3.1092,0 1.14239,0.56239 c 1.332,0.65574 2.24517,1.59314 2.87746,2.9538 0.3859,0.83043 0.4599,1.25835 0.51548,2.98074 l 0.0649,2.01112 0.88809,-0.41337 c 0.48846,-0.22736 1.4808,-0.54733 2.2052,-0.71106 l 1.3171,-0.29769 0.0771,-1.33203 c 0.13917,-2.40405 1.4058,-4.28664 3.56539,-5.29925 0.93517,-0.43849 1.08015,-0.45465 4.07883,-0.45465 l 3.1092,0 1.1424,0.56239 c 2.14205,1.05453 3.26541,2.84765 3.39017,5.41143 l 0.0724,1.488 0.8842,0.10472 c 1.18305,0.14011 2.86412,0.99177 3.62919,1.83861 l 0.62242,0.68895 0.62243,-0.68895 c 0.34234,-0.37893 1.1365,-0.94204 1.76482,-1.25136 1.04671,-0.5153 1.30537,-0.56757 3.0884,-0.62419 1.94323,-0.0617 1.94616,-0.0624 2.04594,-0.5176 0.70404,-3.21129 1.70253,-4.69021 3.8448,-5.6947 0.89754,-0.42084 1.14282,-0.45465 3.29881,-0.45465 2.15599,0 2.40128,0.0338 3.29881,0.45465 1.1857,0.55596 2.26645,1.50792 2.85809,2.51747 l 0.44426,0.75807 0.48165,-0.84333 c 0.60166,-1.05348 1.50715,-1.85812 2.74363,-2.43808 0.88802,-0.41651 1.1307,-0.44878 3.37587,-0.44878 2.38202,0 2.43657,0.009 3.56146,0.5624 2.06623,1.0172 2.95572,2.40817 3.61222,5.64875 0.21147,1.04382 0.43962,1.96185 0.50702,2.04007 0.0674,0.0782 0.75063,-0.17358 1.51833,-0.55958 2.41658,-1.21503 3.56647,-1.43849 6.99474,-1.35931 2.80616,0.0648 3.03115,0.096 4.50641,0.62554 0.85404,0.30652 1.68866,0.60293 1.85472,0.65868 0.21922,0.0736 0.30193,0.009 0.30193,-0.23627 0,-0.18569 0.23739,-0.81269 0.52753,-1.39333 0.93223,-1.86551 2.24925,-2.76402 6.02868,-4.1129 2.70007,-0.96365 5.82018,-0.13156 7.3278,1.95425 0.28732,0.39749 0.56121,0.72727 0.60866,0.73284 0.0474,0.006 0.30643,-0.41122 0.57551,-0.92622 0.66461,-1.27198 2.24935,-2.74377 3.68816,-3.42528 1.13937,-0.53968 1.23438,-0.5547 3.50921,-0.5547 l 2.33812,0 1.29551,0.64027 c 2.39198,1.18218 4.2072,3.65024 4.42131,6.01142 0.0793,0.87464 0.13958,1.02437 0.37181,0.92351 0.15243,-0.0662 0.88766,-0.30314 1.63382,-0.52654 1.16692,-0.34938 1.72409,-0.40619 3.98376,-0.40619 3.00614,0 4.5043,0.29186 6.6036,1.28643 l 1.24708,0.59081 0.97249,-0.58561 c 1.38201,-0.8322 2.37699,-1.00708 5.18389,-0.91113 1.67552,0.0573 2.64978,0.0132 3.25417,-0.14733 1.42348,-0.37799 5.43398,-0.30702 6.98819,0.12368 3.16876,0.8781 5.56771,2.83532 6.96409,5.68177 1.4821,3.02116 1.50981,3.25857 1.45276,12.44688 l -0.0497,8.00615 -0.5624,1.14201 c -0.65471,1.32946 -1.59062,2.24219 -2.9538,2.88061 -0.88591,0.41491 -1.19307,0.45938 -3.5576,0.51502 -2.98705,0.0703 -3.96147,-0.0946 -5.29072,-0.89498 l -0.93074,-0.56046 -0.77124,0.48792 c -1.26785,0.80212 -2.21588,0.99395 -4.91199,0.99395 -2.73467,0 -3.64341,-0.19003 -4.9884,-1.04317 l -0.84761,-0.53765 -1.30904,0.60952 c -2.27617,1.05987 -3.54212,1.31637 -6.49702,1.31637 -3.12712,0 -4.53731,-0.30116 -6.72269,-1.43566 -1.41156,-0.7328 -1.46293,-0.7455 -1.74679,-0.43182 -0.16087,0.17775 -0.80076,0.57359 -1.42198,0.87966 -1.10513,0.54448 -1.1881,0.55774 -3.84438,0.61465 -2.00189,0.0429 -2.93765,-0.007 -3.5632,-0.19051 -0.77562,-0.22737 -0.95739,-0.2192 -2.12052,0.0953 -0.98215,0.26557 -2.01091,0.36244 -4.51239,0.42488 -3.12036,0.0779 -3.29331,0.0643 -4.67548,-0.3666 -1.50856,-0.47034 -3.59212,-1.70724 -4.48862,-2.66462 l -0.49958,-0.53354 -0.782,0.68834 c -0.75862,0.66776 -3.62534,2.22978 -4.09225,2.22978 -0.45386,0 -0.42819,0.34224 0.0781,1.04115 0.77361,1.06795 0.91728,2.05748 0.85075,5.86012 -0.0558,3.18761 -0.0804,3.39897 -0.4683,4.02298 -0.22519,0.36223 -0.72424,0.86689 -1.10898,1.12145 l -0.69953,0.46285 -6.22362,0.0418 c -3.423,0.023 -7.04818,0.0896 -8.05597,0.14814 -1.40647,0.0816 -2.04892,0.0434 -2.76402,-0.16447 -0.81626,-0.2373 -1.01666,-0.24056 -1.61826,-0.0263 -0.90159,0.32107 -4.07861,0.32697 -4.96959,0.009 z m 4.16408,-3.61467 c 0.49263,-0.25474 0.52348,-0.31807 0.34535,-0.70902 -0.22883,-0.50222 -0.28599,-0.51265 -0.94002,-0.17156 -1.03697,0.54082 -2.4281,0.12877 -2.89629,-0.85787 -0.5148,-1.08485 -0.2526,-2.70819 0.55332,-3.42585 0.49069,-0.43694 1.55651,-0.55055 2.28999,-0.24408 0.57369,0.2397 0.61563,0.2324 0.9104,-0.15838 l 0.30901,-0.40966 -0.74404,-0.33766 c -1.91629,-0.86967 -4.10215,0.1295 -4.64046,2.12118 -0.47247,1.74807 0.24237,3.63588 1.62179,4.28295 0.85016,0.3988 2.32617,0.35715 3.19095,-0.0901 z m 6.51488,-0.18709 c 0.77329,-0.58982 1.12707,-1.30367 1.23347,-2.48885 0.18518,-2.06257 -0.811,-3.65983 -2.43437,-3.90327 -2.13113,-0.31958 -3.73093,1.17257 -3.72762,3.4768 0.002,1.5468 0.85324,2.99813 1.95754,3.33843 0.91872,0.2831 2.30368,0.0859 2.97098,-0.42311 z m -2.83894,-0.71497 c -0.8491,-0.59473 -1.15705,-2.45301 -0.60077,-3.62528 0.47748,-1.0062 1.78144,-1.41038 2.63081,-0.81545 1.23728,0.86662 1.13604,3.8577 -0.15236,4.50147 -0.59887,0.29924 -1.40078,0.2733 -1.87768,-0.0607 z m 6.70857,-1.43145 0,-2.57546 0.45461,-0.35758 c 0.58496,-0.46015 1.50732,-0.46604 1.96084,-0.0125 0.31438,0.31439 0.34506,0.57511 0.34506,2.93304 l 0,2.58798 0.60386,0 0.60386,0 0,-2.57546 0,-2.57545 0.45461,-0.35759 c 0.6153,-0.484 1.35853,-0.45798 1.88242,0.0659 0.4108,0.41081 0.42348,0.49862 0.42348,2.93304 l 0,2.50956 0.60386,0 0.60386,0 0,-2.50726 c 0,-2.64237 -0.14365,-3.32704 -0.82546,-3.93417 -0.56069,-0.49929 -1.58241,-0.55566 -2.52376,-0.13925 -0.81105,0.35876 -0.81285,0.35878 -1.44625,0.0193 -0.81688,-0.43782 -1.68135,-0.43142 -2.52115,0.0187 -0.53852,0.28863 -0.69737,0.31387 -0.81432,0.1294 -0.0799,-0.12605 -0.14649,-0.28742 -0.14794,-0.35858 -0.002,-0.0712 -0.19674,-0.1294 -0.43397,-0.1294 l -0.43133,0 0,3.45063 0,3.45064 0.60386,0 0.60386,0 0,-2.57546 z m -42.76526,-5.26443 c 1.95389,-0.41415 4.02341,-1.66987 4.77981,-2.90026 0.18959,-0.30838 2.12989,-5.41314 4.3118,-11.34392 2.1819,-5.93078 4.0223,-10.92193 4.08977,-11.09144 0.11371,-0.28566 -0.007,-0.30458 -1.6461,-0.25879 l -1.76879,0.0494 -2.38492,6.98753 c -1.31171,3.84315 -2.41098,7.05501 -2.44282,7.13747 -0.0318,0.0825 -1.24881,-3.02312 -2.70437,-6.90128 -1.45556,-3.87815 -2.70155,-7.11239 -2.76887,-7.18718 -0.0673,-0.0748 -0.86803,-0.11361 -1.77933,-0.0863 l -1.65693,0.0497 2.84013,7.3326 c 1.56208,4.03293 3.07637,8.01586 3.36509,8.85095 0.65693,1.90007 0.83292,3.63 0.4455,4.37917 -0.58726,1.13565 -2.11345,2.03267 -3.79455,2.23025 l -0.97842,0.11499 0,1.44277 0,1.44277 0.47447,-0.003 c 0.26095,-0.002 0.98929,-0.11212 1.61853,-0.24549 z m -32.76901,-6.84657 c 1.04102,-0.22066 2.11415,-0.71508 2.68274,-1.23602 l 0.38819,-0.35566 0,0.7202 0,0.7202 1.63905,0 1.63906,0 0,-13.11241 0,-13.11242 -1.63906,0 -1.63905,0 0,4.24141 c 0,2.33277 -0.0582,4.2118 -0.1294,4.17562 -2.13715,-1.08648 -2.12937,-1.08443 -4.10657,-1.08443 -1.85705,0 -1.9411,0.017 -3.22128,0.64965 -4.72912,2.33726 -6.71964,9.1172 -4.21466,14.35567 1.54532,3.23162 4.92345,4.81766 8.60098,4.03819 z m -2.27755,-2.83326 c -2.49277,-0.69471 -3.67267,-2.41798 -3.91439,-5.71705 -0.30772,-4.19989 1.84767,-7.40164 5.21793,-7.75102 1.39975,-0.14511 2.35854,0.14686 3.28419,1.00009 l 0.76075,0.70124 0,5.29977 c 0,5.95268 0.10643,5.47291 -1.38025,6.22166 -0.99374,0.50048 -2.67883,0.60465 -3.96823,0.24531 z m 22.1187,2.83326 c 1.04103,-0.22066 2.11416,-0.71508 2.68274,-1.23602 l 0.38819,-0.35566 0,0.7202 0,0.7202 1.63906,0 1.63905,0 0,-13.11241 0,-13.11242 -1.63905,0 -1.63906,0 0,4.24141 c 0,2.33277 -0.0582,4.2118 -0.12939,4.17562 -2.13716,-1.08648 -2.12938,-1.08443 -4.10658,-1.08443 -1.85705,0 -1.9411,0.017 -3.22128,0.64965 -4.72912,2.33726 -6.71963,9.1172 -4.21466,14.35567 1.54533,3.23162 4.92346,4.81766 8.60098,4.03819 z m -2.27755,-2.83326 c -2.49277,-0.69471 -3.67266,-2.41798 -3.91439,-5.71705 -0.30772,-4.19989 1.84767,-7.40164 5.21793,-7.75102 1.39975,-0.14511 2.35854,0.14686 3.28419,1.00009 l 0.76075,0.70124 0,5.29977 c 0,5.95268 0.10644,5.47291 -1.38025,6.22166 -0.99374,0.50048 -2.67883,0.60465 -3.96823,0.24531 z m 44.45582,-4.99568 c 2.9296,-8.79392 2.83385,-8.52229 2.91926,-8.28153 0.0337,0.0949 0.685,3.54984 1.44742,7.67767 0.76242,4.12782 1.42606,7.67982 1.47479,7.89332 0.0842,0.36897 0.16941,0.3882 1.72002,0.3882 l 1.63144,0 -0.11204,-0.56073 c -0.0616,-0.3084 -1.21002,-5.99548 -2.55199,-12.63795 l -2.43996,-12.07722 -0.79786,-0.0522 -0.79787,-0.0522 -0.51593,1.69122 c -0.28376,0.93017 -1.49473,4.95207 -2.69105,8.93755 -1.19631,3.98549 -2.22067,7.3628 -2.27634,7.50514 -0.10039,0.25666 -1.16614,-2.84261 -4.43483,-12.89675 l -1.69677,-5.21909 -0.80968,0 -0.80969,0 -2.30333,12.36946 c -1.26683,6.8032 -2.34,12.50969 -2.38483,12.68108 -0.0744,0.2845 0.0627,0.31163 1.5744,0.31163 1.57588,0 1.66018,-0.0188 1.74471,-0.3882 0.0488,-0.2135 0.67525,-3.64904 1.39199,-7.63453 0.71674,-3.98548 1.35945,-7.4266 1.42825,-7.64693 0.13031,-0.41734 0.15922,-0.33854 4.18573,11.40871 1.54265,4.50066 1.59679,4.62303 2.02264,4.57209 0.41633,-0.0498 0.56592,-0.43761 3.08152,-7.9888 z m 21.09131,7.7568 c 2.9276,-0.69008 5.06646,-2.97004 5.90096,-6.29028 0.31268,-1.24411 0.31437,-5.12934 0.003,-6.38368 -0.5751,-2.31498 -2.08722,-4.47587 -3.7748,-5.39436 -1.63933,-0.89224 -4.12454,-1.21606 -6.11686,-0.79701 -2.93162,0.61661 -5.10514,2.79045 -6.11319,6.11413 -0.38936,1.28375 -0.4402,5.03413 -0.0876,6.46092 0.36178,1.46384 1.29813,3.2812 2.14514,4.16343 1.94468,2.02552 5.02175,2.83915 8.04359,2.12685 z m -3.74249,-2.73775 c -1.14111,-0.37242 -1.86122,-1.02716 -2.43757,-2.21627 -0.67839,-1.39965 -0.9484,-3.05846 -0.83358,-5.12101 0.19346,-3.4749 1.57214,-5.58309 3.98165,-6.0885 1.98945,-0.41729 3.86827,0.38296 4.80244,2.04551 1.49226,2.65578 1.26105,7.71064 -0.45564,9.96133 -1.06851,1.40089 -3.24313,2.01103 -5.0573,1.41894 z m 23.56554,2.65307 c 0.86406,-0.1886 0.91076,-0.22583 0.82543,-0.65791 -0.0498,-0.2519 -0.13872,-0.76856 -0.19769,-1.14813 -0.20591,-1.32523 -0.1456,-1.27695 -1.15832,-0.92707 -1.72449,0.59579 -3.57127,0.26671 -4.39743,-0.78358 -0.61804,-0.7857 -0.7325,-1.93512 -0.7325,-7.35576 l 0,-5.16746 2.58798,0 2.58798,0 0,-1.29399 0,-1.29399 -2.58798,0 -2.58798,0 0,-2.60644 c 0,-2.01676 -0.0488,-2.58665 -0.21566,-2.51898 -0.11862,0.0481 -0.85619,0.34028 -1.63905,0.64931 l -1.42339,0.56187 0,1.95712 0,1.95712 -1.03519,0 -1.03519,0 0,1.29399 0,1.29399 1.03519,0 1.03519,0 0,5.74849 c 0,4.752 0.0476,5.90863 0.27433,6.67224 0.56864,1.91485 1.80086,3.18933 3.6939,3.8206 0.55999,0.18674 3.79216,0.0558 4.97038,-0.20142 z m 23.65495,0.0847 c 2.92761,-0.69008 5.06647,-2.97004 5.90097,-6.29028 0.31268,-1.24411 0.31437,-5.12934 0.003,-6.38368 -0.5751,-2.31498 -2.08722,-4.47587 -3.77481,-5.39436 -1.63933,-0.89224 -4.12454,-1.21606 -6.11685,-0.79701 -2.93163,0.61661 -5.10515,2.79045 -6.1132,6.11413 -0.38935,1.28375 -0.4402,5.03413 -0.0876,6.46092 0.36178,1.46384 1.29813,3.2812 2.14514,4.16343 1.94467,2.02552 5.02174,2.83914 8.04358,2.12685 z m -3.74249,-2.73775 c -1.14111,-0.37242 -1.86122,-1.02716 -2.43756,-2.21627 -0.6784,-1.39965 -0.94841,-3.05846 -0.83359,-5.12101 0.19346,-3.4749 1.57214,-5.58309 3.98165,-6.0885 1.98945,-0.41729 3.86827,0.38296 4.80244,2.04551 1.49227,2.65578 1.26106,7.71064 -0.45564,9.96133 -1.0685,1.40089 -3.24313,2.01103 -5.0573,1.41894 z m -150.75877,1.92535 c 0.15032,-0.40329 0.56435,-1.58729 0.92006,-2.63111 l 0.64674,-1.89785 4.77253,-0.0458 4.77254,-0.0458 0.8922,2.67695 0.8922,2.67694 1.87987,0 1.87987,0 -0.43202,-1.16459 c -0.23761,-0.64052 -2.398,-6.40524 -4.80085,-12.81048 -4.36275,-11.6297 -4.3695,-11.6459 -4.85573,-11.6459 -0.48339,0 -0.52218,0.0878 -5.37175,12.16349 -2.68666,6.68992 -5.00208,12.45464 -5.14536,12.81049 l -0.26052,0.64699 1.96845,0 1.96844,0 0.27333,-0.73326 z m 2.54448,-7.34733 c 0.0316,-0.0793 0.90735,-2.5763 1.94604,-5.54896 1.03869,-2.97266 1.92485,-5.29522 1.96924,-5.16123 0.0444,0.13399 0.87719,2.63102 1.85067,5.54897 l 1.76996,5.30535 -3.79671,0 c -2.0882,0 -3.77084,-0.0649 -3.7392,-0.14413 z m 137.30652,-1.23613 0,-9.31671 -2.93304,0 -2.93304,0 0,1.38025 0,1.38026 1.29399,0 1.29399,0 0,7.93646 0,7.93646 1.63905,0 1.63905,0 0,-9.31672 z m 27.77762,2.35279 0,-6.96392 0.82825,-0.77474 c 1.59955,-1.49619 3.89591,-1.90977 5.5238,-0.99485 1.56136,0.87754 1.75694,1.95627 1.75694,9.69052 l 0,6.00692 1.63905,0 1.63905,0 -0.003,-6.51307 c -0.002,-4.93351 -0.0619,-6.79108 -0.24596,-7.65938 -0.4487,-2.11702 -1.39109,-3.44938 -2.99781,-4.2384 -0.87435,-0.42937 -1.16664,-0.48138 -2.70557,-0.48138 -2.31572,0 -3.29931,0.34376 -4.54343,1.5879 -0.51223,0.51222 -0.94727,0.90797 -0.96677,0.87943 -0.0195,-0.0285 -0.23195,-0.51772 -0.4721,-1.08707 l -0.43664,-1.03519 -1.14696,-0.051 -1.14695,-0.051 0,9.3246 0,9.3246 1.63905,0 1.63905,0 0,-6.96393 z m -28.30208,-14.88472 c 1.79364,-1.05953 1.05345,-3.85858 -1.02039,-3.85858 -1.17073,0 -2.07831,0.90758 -2.07831,2.07832 0,1.55435 1.76475,2.56824 3.0987,1.78026 z m -62.37717,36.70611 c -0.58877,-0.35903 -1.10765,-1.29297 -1.10765,-1.99366 0,-0.69052 0.63135,-1.78251 1.20085,-2.07701 0.7137,-0.36907 1.83952,-0.3308 2.51298,0.0854 1.4233,0.87965 1.45092,3.10644 0.0491,3.96109 -0.7326,0.44665 -1.94437,0.45767 -2.6553,0.0242 z"
       id="path4252"
       inkscape:connector-curvature="0" />
    <circle
       style="fill:#0097a7;fill-opacity:1;stroke:none;stroke-width:16.29999924;stroke-linecap:square;stroke-linejoin:round;stroke-miterlimit:4;stroke-dasharray:none;stroke-opacity:1"
       id="path4254"
       cx="253.83011"
       cy="466.78122"
       r="4.6324501" />
  </g>
</svg>
