<?xml version="1.0" encoding="UTF-8"?>
<svg height="128px" viewBox="0 0 128 128" width="128px" xmlns="http://www.w3.org/2000/svg" xmlns:xlink="http://www.w3.org/1999/xlink">
    <linearGradient id="a" gradientUnits="userSpaceOnUse" x1="48" x2="107.998741" y1="93" y2="93">
        <stop offset="0" stop-color="#deddda"/>
        <stop offset="0.0454546" stop-color="#eeeeec"/>
        <stop offset="0.0909091" stop-color="#deddda"/>
        <stop offset="0.909091" stop-color="#deddda"/>
        <stop offset="0.954545" stop-color="#eeeeec"/>
        <stop offset="1" stop-color="#c0bfbc"/>
    </linearGradient>
    <linearGradient id="b" gradientUnits="userSpaceOnUse" x1="52" x2="78" y1="64" y2="64">
        <stop offset="0" stop-color="#ff7800"/>
        <stop offset="0.0357143" stop-color="#ffa348"/>
        <stop offset="0.0714286" stop-color="#ff7800"/>
        <stop offset="0.867206" stop-color="#ff7800"/>
        <stop offset="0.923077" stop-color="#ff7800"/>
        <stop offset="1" stop-color="#ff7800"/>
    </linearGradient>
    <linearGradient id="c" gradientUnits="userSpaceOnUse" x1="78" x2="104" y1="64" y2="64">
        <stop offset="0" stop-color="#f5c211"/>
        <stop offset="0.0357143" stop-color="#f5c211"/>
        <stop offset="0.0714286" stop-color="#f5c211"/>
        <stop offset="0.867206" stop-color="#f5c211"/>
        <stop offset="0.923077" stop-color="#f8e45c"/>
        <stop offset="1" stop-color="#f5c211"/>
    </linearGradient>
    <path d="m 56 66 h 44 c 4.417969 0 8 3.582031 8 8 v 38 c 0 4.417969 -3.582031 8 -8 8 h -44 c -4.417969 0 -8 -3.582031 -8 -8 v -38 c 0 -4.417969 3.582031 -8 8 -8 z m 0 0" fill="url(#a)"/>
    <path d="m 56 8 h 44 c 4.417969 0 8 3.71875 8 8.308594 v 91.382812 c 0 4.589844 -3.582031 8.308594 -8 8.308594 h -44 c -4.417969 0 -8 -3.71875 -8 -8.308594 v -91.382812 c 0 -4.589844 3.582031 -8.308594 8 -8.308594 z m 0 0" fill="#f6f5f4"/>
    <path d="m 78 16 h -22 c -2.214844 0 -4 1.785156 -4 4 v 88 c 0 2.214844 1.785156 4 4 4 h 22 z m 0 0" fill="url(#b)"/>
    <path d="m 78 16 v 96 h 22 c 2.214844 0 4 -1.785156 4 -4 v -88 c 0 -2.214844 -1.785156 -4 -4 -4 z m 0 0" fill="url(#c)"/>
    <path d="m 78 86 l -26 -0.5 v 20.328125 c 0 2.3125 1.785156 4.171875 4 4.171875 h 22 z m 0 0" fill="#ffa348"/>
    <path d="m 52 61 v 25 h 26 c 0 0.246094 0 -16.667969 0 -25 z m 0 0" fill="#c061cb"/>
    <path d="m 78 36 h -26 v 25 h 26 z m 0 0" fill="#77767b"/>
    <path d="m 56 12 c -2.214844 0 -4 1.859375 -4 4.171875 v 19.828125 h 26 v -24 z m 0 0" fill="#62a0ea"/>
    <path d="m 78 86 h 26 v 19.828125 c 0 2.3125 -1.785156 4.171875 -4 4.171875 h -22 z m 0 0" fill="#f6d32d"/>
    <path d="m 104 61 v 25 h -26 v -25 z m 0 0" fill="#f66151"/>
    <path d="m 78 36 h 26 v 25 h -26 z m 0 0" fill="#57e389"/>
    <path d="m 100 12 c 2.214844 0 4 1.859375 4 4.171875 v 19.828125 h -26 v -24 z m 0 0" fill="#b5835a"/>
    <path d="m 68 54 c 0 13.253906 -10.746094 24 -24 24 s -24 -10.746094 -24 -24 s 10.746094 -24 24 -24 s 24 10.746094 24 24 z m 0 0" fill="#e5a50a"/>
    <path d="m 68 52 c 0 13.253906 -10.746094 24 -24 24 s -24 -10.746094 -24 -24 s 10.746094 -24 24 -24 s 24 10.746094 24 24 z m 0 0" fill="#f5c211"/>
    <path d="m 32 42.398438 l 7.199219 7.203124 l -7.199219 7.199219" fill="none" stroke="#241f31" stroke-width="2.4"/>
    <path d="m 56.425781 42.398438 l -7.203125 7.203124 l 7.203125 7.199219" fill="none" stroke="#241f31" stroke-width="2.4"/>
    <path d="m 54.15625 64 h -20.3125 c 0.039062 0.210938 0.085938 0.421875 0.140625 0.632812 c 1.230469 4.34375 5.332031 7.363282 10.015625 7.367188 c 4.683594 -0.003906 8.785156 -3.023438 10.015625 -7.367188 c 0.054687 -0.210937 0.101563 -0.421874 0.140625 -0.632812 z m 0 0" fill="#a51d2d"/>
    <path d="m 33.605469 62.003906 c 0.007812 0.671875 0.089843 1.339844 0.238281 1.996094 h 20.3125 c 0.148438 -0.65625 0.230469 -1.324219 0.238281 -1.996094 z m 0 0" fill="#f6f5f4"/>
</svg>
