<?xml version="1.0" encoding="UTF-8" standalone="no"?>
<svg
   xmlns:dc="http://purl.org/dc/elements/1.1/"
   xmlns:cc="http://creativecommons.org/ns#"
   xmlns:rdf="http://www.w3.org/1999/02/22-rdf-syntax-ns#"
   xmlns:svg="http://www.w3.org/2000/svg"
   xmlns="http://www.w3.org/2000/svg"
   xmlns:sodipodi="http://sodipodi.sourceforge.net/DTD/sodipodi-0.dtd"
   xmlns:inkscape="http://www.inkscape.org/namespaces/inkscape"
   width="2293.6011"
   height="1200"
   viewBox="0 0 606.84861 317.5"
   version="1.1"
   id="svg32"
   inkscape:version="1.0 (4035a4fb49, 2020-05-01)"
   sodipodi:docname="contacts.svg">
  <defs
     id="defs26" />
  <sodipodi:namedview
     fit-margin-bottom="0"
     fit-margin-right="0"
     fit-margin-left="0"
     fit-margin-top="0"
     id="base"
     pagecolor="#d3e6ef"
     bordercolor="#666666"
     borderopacity="1.0"
     inkscape:pageopacity="1"
     inkscape:pageshadow="2"
     inkscape:zoom="0.38487222"
     inkscape:cx="1205.2814"
     inkscape:cy="1023.8992"
     inkscape:document-units="mm"
     inkscape:current-layer="layer1"
     inkscape:document-rotation="0"
     showgrid="false"
     units="px"
     inkscape:window-width="1530"
     inkscape:window-height="991"
     inkscape:window-x="26"
     inkscape:window-y="23"
     inkscape:window-maximized="0" />
  <metadata
     id="metadata29">
    <rdf:RDF>
      <cc:Work
         rdf:about="">
        <dc:format>image/svg+xml</dc:format>
        <dc:type
           rdf:resource="http://purl.org/dc/dcmitype/StillImage" />
        <dc:title></dc:title>
      </cc:Work>
    </rdf:RDF>
  </metadata>
  <g
     transform="translate(40.737176,12.852373)"
     inkscape:label="Layer 1"
     inkscape:groupmode="layer"
     id="layer1">
    <path
       d="m 49.602529,108.07885 c -24.842252,0.2031 -48.73778636,2.89276 -62.663876,9.28838 0,0 -27.618468,12.35548 -27.618468,54.50861 0,9.65258 -0.188053,21.19429 0.117822,33.4338 1.002924,41.22323 7.557231,81.85053 45.6711126,91.93858 17.5735054,4.65136 32.6617354,5.62528 44.8132854,4.95732 22.036511,-1.22174 34.406686,-7.86464 34.406686,-7.86464 l -0.727088,-15.98817 c 0,0 -15.747518,4.96511 -33.433101,4.35994 -17.52214,-0.60092 -36.020055,-1.8897 -38.853959,-23.40271 -0.262014,-1.88966 -0.392224,-3.9101 -0.392224,-6.03219 0,0 17.200319,4.20453 38.99917,5.2033 13.329227,0.61142 25.829805,-0.78114 38.525812,-2.29598 24.346959,-2.90727 45.545519,-17.90842 48.209979,-31.61564 h 5.3e-4 c 4.19776,-21.59259 3.85144,-52.69361 3.85144,-52.69361 0,-42.15313 -27.61743,-54.50861 -27.61743,-54.50861 -13.924955,-6.39562 -37.836626,-9.08523 -62.678876,-9.28838 z m -28.114564,32.93668 c 10.347698,0 18.183921,3.97714 23.364981,11.93268 l 5.036902,8.44346 5.037421,-8.44346 c 5.180137,-7.95554 13.016245,-11.93268 23.364981,-11.93268 8.942633,0 16.147838,3.14417 21.650356,9.27701 5.333994,6.13285 7.989694,14.42242 7.989694,24.85392 V 226.1864 H 87.711313 v -49.53977 c 0,-10.443 -4.393885,-15.74382 -13.182658,-15.74382 -9.717479,0 -14.587738,6.28772 -14.587741,18.72092 v 27.11632 H 39.839301 v -27.11632 c 0,-12.4332 -4.871296,-18.72092 -14.588775,-18.72092 -8.788887,0 -13.182656,5.30082 -13.182658,15.74382 V 226.1864 H -8.1531198 v -51.03994 c 0,-10.4315 2.655689,-18.72107 7.99072879,-24.85392 C 5.3392039,144.1597 12.544178,141.01553 21.487965,141.01553 Z"
       style="fill:#f6f6f6;fill-opacity:1;stroke-width:0.837523"
       id="path2" />
    <path
       style="fill:#f6f6f6;fill-opacity:1;stroke-width:9.35658"
       d="m 528.68511,111.43164 h -149.7053 c -10.29224,0 -18.6196,8.42097 -18.6196,18.71327 l -0.0936,112.2793 c 0,10.29224 8.42093,18.71316 18.71317,18.71316 h 149.7053 c 10.29224,0 18.71316,-8.42092 18.71316,-18.71316 v -112.2793 c 0,-10.2923 -8.42092,-18.71327 -18.71316,-18.71327 z m 0,37.42654 -74.85265,46.78312 -74.85265,-46.78312 v -18.71327 l 74.85265,46.78317 74.85265,-46.78317 z"
       id="path92" />
    <path
       d="m 175.48218,111.84712 c -7.38498,0 -13.37128,5.84166 -13.37128,13.04373 v 156.00488 c 0,7.20446 5.9863,13.04416 13.37128,13.04416 h 154.20143 c 7.38482,0 13.37181,-5.8397 13.37181,-13.04416 V 124.89085 c 0,-7.20207 -5.98699,-13.04373 -13.37181,-13.04373 z m 27.99416,30.5673 c 9.34978,0 15.10394,6.13866 15.28175,14.20697 0,7.89066 -5.93205,14.2049 -15.46262,14.2049 h -0.17777 c -9.17159,0 -15.10243,-6.31424 -15.10243,-14.2049 0,-8.06831 6.11228,-14.20697 15.46107,-14.20697 z m 80.56718,37.70851 c 17.981,0 31.46422,11.75237 31.46422,37.00821 v 47.14648 H 288.1802 v -43.98853 c 0,-11.05373 -3.95629,-18.59371 -13.84565,-18.59371 -7.54999,0 -12.04669,5.08525 -14.02241,9.99527 -0.72117,1.75675 -0.89916,4.21192 -0.89916,6.66936 v 45.91761 h -27.32961 c 0,0 0.35833,-74.50961 0,-82.22508 h 27.33011 v 11.6469 c 3.63075,-5.60332 10.12344,-13.57651 24.63004,-13.57651 z m -94.41285,1.92961 h 27.33012 v 82.22508 h -27.33012 z"
       style="fill:#f6f6f6;fill-opacity:1;fill-rule:nonzero;stroke:none;stroke-width:2.43312"
       id="path14" />
  </g>
</svg>
