<?xml version="1.0" encoding="UTF-8" standalone="no"?>
<!-- Created with Inkscape (http://www.inkscape.org/) -->

<svg
   xmlns:dc="http://purl.org/dc/elements/1.1/"
   xmlns:cc="http://creativecommons.org/ns#"
   xmlns:rdf="http://www.w3.org/1999/02/22-rdf-syntax-ns#"
   xmlns:svg="http://www.w3.org/2000/svg"
   xmlns="http://www.w3.org/2000/svg"
   xmlns:sodipodi="http://sodipodi.sourceforge.net/DTD/sodipodi-0.dtd"
   xmlns:inkscape="http://www.inkscape.org/namespaces/inkscape"
   width="743.83759pt"
   height="292.59232pt"
   viewBox="0 0 929.79698 365.74039"
   id="svg2"
   version="1.1"
   inkscape:version="0.91 r13725"
   sodipodi:docname="logos.svg"
   inkscape:export-filename="/media/Data/Alastair's files/Dropbox/Web/logos.png"
   inkscape:export-xdpi="77.513992"
   inkscape:export-ydpi="77.513992">
  <defs
     id="defs4">
    <clipPath
       clipPathUnits="userSpaceOnUse"
       id="clipPath5843">
      <rect
         style="fill:#ffffff;fill-opacity:1;stroke:#4dc1ce;stroke-width:0;stroke-miterlimit:4;stroke-dasharray:none;stroke-opacity:1"
         id="rect5845"
         width="988.75659"
         height="423.01587"
         x="-543.38623"
         y="116.91249" />
    </clipPath>
    <clipPath
       clipPathUnits="userSpaceOnUse"
       id="clipPath5847">
      <rect
         style="fill:#ffffff;fill-opacity:1;stroke:#4dc1ce;stroke-width:0;stroke-miterlimit:4;stroke-dasharray:none;stroke-opacity:1"
         id="rect5849"
         width="988.75659"
         height="423.01587"
         x="-543.38623"
         y="116.91249" />
    </clipPath>
    <clipPath
       clipPathUnits="userSpaceOnUse"
       id="clipPath5851">
      <rect
         style="fill:#ffffff;fill-opacity:1;stroke:#4dc1ce;stroke-width:0;stroke-miterlimit:4;stroke-dasharray:none;stroke-opacity:1"
         id="rect5853"
         width="988.75659"
         height="423.01587"
         x="-543.38623"
         y="116.91249" />
    </clipPath>
    <clipPath
       clipPathUnits="userSpaceOnUse"
       id="clipPath5855">
      <rect
         style="fill:#ffffff;fill-opacity:1;stroke:#4dc1ce;stroke-width:0;stroke-miterlimit:4;stroke-dasharray:none;stroke-opacity:1"
         id="rect5857"
         width="988.75659"
         height="423.01587"
         x="-543.38623"
         y="116.91249" />
    </clipPath>
    <clipPath
       clipPathUnits="userSpaceOnUse"
       id="clipPath5859">
      <rect
         style="fill:#ffffff;fill-opacity:1;stroke:#4dc1ce;stroke-width:0;stroke-miterlimit:4;stroke-dasharray:none;stroke-opacity:1"
         id="rect5861"
         width="988.75659"
         height="423.01587"
         x="-543.38623"
         y="116.91249" />
    </clipPath>
    <clipPath
       clipPathUnits="userSpaceOnUse"
       id="clipPath5863">
      <rect
         style="fill:#ffffff;fill-opacity:1;stroke:#4dc1ce;stroke-width:0;stroke-miterlimit:4;stroke-dasharray:none;stroke-opacity:1"
         id="rect5865"
         width="988.75659"
         height="423.01587"
         x="-543.38623"
         y="116.91249" />
    </clipPath>
    <clipPath
       clipPathUnits="userSpaceOnUse"
       id="clipPath5867">
      <rect
         style="fill:#ffffff;fill-opacity:1;stroke:#4dc1ce;stroke-width:0;stroke-miterlimit:4;stroke-dasharray:none;stroke-opacity:1"
         id="rect5869"
         width="988.75659"
         height="423.01587"
         x="-543.38623"
         y="116.91249" />
    </clipPath>
    <clipPath
       clipPathUnits="userSpaceOnUse"
       id="clipPath5871">
      <rect
         style="fill:#ffffff;fill-opacity:1;stroke:#4dc1ce;stroke-width:0;stroke-miterlimit:4;stroke-dasharray:none;stroke-opacity:1"
         id="rect5873"
         width="988.75659"
         height="423.01587"
         x="-543.38623"
         y="116.91249" />
    </clipPath>
  </defs>
  <sodipodi:namedview
     id="base"
     pagecolor="#ffffff"
     bordercolor="#666666"
     borderopacity="1.0"
     inkscape:pageopacity="0"
     inkscape:pageshadow="2"
     inkscape:zoom="0.82241958"
     inkscape:cx="261.72841"
     inkscape:cy="133.46193"
     inkscape:document-units="px"
     inkscape:current-layer="layer1"
     showgrid="false"
     units="pt"
     borderlayer="false"
     inkscape:window-width="1920"
     inkscape:window-height="1016"
     inkscape:window-x="0"
     inkscape:window-y="32"
     inkscape:window-maximized="1"
     fit-margin-top="0"
     fit-margin-left="0"
     fit-margin-right="0"
     fit-margin-bottom="0" />
  <metadata
     id="metadata7">
    <rdf:RDF>
      <cc:Work
         rdf:about="">
        <dc:format>image/svg+xml</dc:format>
        <dc:type
           rdf:resource="http://purl.org/dc/dcmitype/StillImage" />
        <dc:title />
      </cc:Work>
    </rdf:RDF>
  </metadata>
  <g
     inkscape:label="Layer 1"
     inkscape:groupmode="layer"
     id="layer1"
     transform="translate(-561.75526,-62.885134)">
    <g
       id="g4222"
       transform="matrix(0.55308297,0,0,0.55308297,1025.0019,56.679616)"
       style="fill:#80deea;fill-opacity:1"
       inkscape:export-xdpi="77.513992"
       inkscape:export-ydpi="77.513992">
      <path
         id="path3394"
         d="m 610.83014,232.0818 c 28.292,-2.092 60.246,-0.947 92.846,-0.947 29.215,0 67.794,-4.206 88.109,3.79 18.095,7.122 32.394,22.523 29.37,49.265 -1.518,13.418 -10.561,27.648 -15.159,38.844 -15.217,37.058 -32.812,79.412 -47.37,114.636 -22.42,54.242 -73.281,97.021 -149.691,91.9 -41.429,-2.779 -74.371,-23.248 -96.636,-46.424 -23.404,-24.363 -40.738,-57.709 -40.738,-102.32 0,-42.795 17.851,-77.686 40.738,-102.321 22.405,-24.115 54.82,-43.191 98.531,-46.423 m 174.323,36.001 c 2.555,-26.637 -39.369,-29.095 -38.844,-0.947 l 14.211,0 c -2.135,-12.303 9.656,-12.044 11.369,-3.79 3.631,17.5 -32.326,31.788 -26.527,53.055 13.622,-0.042 27.428,-0.269 39.791,0.947 1.48,-2.172 1.48,-9.196 0,-11.369 l -24.633,0 c 7.006,-10.561 23.09,-21.807 24.633,-37.896 m -251.064,27.475 c -17.719,18.101 -31.533,40.191 -34.107,72.003 -4.841,59.829 25.983,97.852 58.74,117.479 33.944,20.338 81.501,23.41 119.373,2.842 34.803,-18.899 56.164,-49.133 62.529,-87.161 7.796,-46.582 -13.714,-89.051 -36.949,-109.9 -21.16,-18.987 -52.508,-35.137 -97.583,-30.317 -32.291,3.452 -55.493,18.187 -72.003,35.054"
         style="fill:#80deea;fill-opacity:1"
         inkscape:connector-curvature="0" />
      <path
         id="path3396"
         d="m 580.51214,291.7678 43.581,0 c 15.314,44.688 33.953,86.053 49.266,130.743 8.193,-1.912 15.589,-4.622 22.737,-7.579 4.533,6.835 5.214,17.524 9.475,24.633 -15.107,7.315 -33.225,11.621 -51.16,16.106 -8.843,-27.16 -20.003,-52.001 -29.37,-78.636 -16.864,22.928 -30.968,48.614 -47.371,72.003 l -32.212,0 c -0.297,-4.498 3.277,-9.268 5.685,-13.264 18.61,-30.885 40.048,-65.68 58.74,-97.583 -1.638,-7.837 -5.489,-13.46 -7.58,-20.843 l -21.79,0 0,-25.58 z"
         style="fill:#80deea;fill-opacity:1"
         inkscape:connector-curvature="0" />
    </g>
    <g
       id="g4326"
       style="fill:#80deea;fill-opacity:1"
       transform="matrix(0.50237562,0,0,0.50237562,684.50162,-186.42399)"
       inkscape:export-xdpi="77.513992"
       inkscape:export-ydpi="77.513992">
      <path
         inkscape:connector-curvature="0"
         style="fill:#80deea;fill-opacity:1"
         id="_227268128"
         d="m 597.37977,736.59601 c 0,0 -11.9391,7.2672 8.3052,9.34351 24.39671,3.11437 37.37411,2.59576 64.36631,-2.59534 0,0 7.2672,4.67165 17.1297,8.30546 -60.7327,25.9542 -137.55701,-1.5577 -89.80131,-15.0536 l 10e-5,-3e-5 z m -7.7864,-33.7402 c 0,0 -12.9769,9.86233 7.2672,11.9386 26.4735,2.59576 47.23681,3.11437 83.05341,-4.15263 0,0 4.6718,5.19089 12.4579,7.78643 -73.19061,21.8016 -155.20601,2.07631 -102.77801,-15.5725 l -5e-4,10e-5 z m 143.26701,59.1754 c 0,0 8.8245,7.26741 -9.8626,12.9769 -34.7787,10.3818 -145.86301,13.4961 -177.00801,0 -10.9006,-4.67144 9.8628,-11.4198 16.6105,-12.4579 6.7482,-1.55708 10.3816,-1.55708 10.3816,-1.55708 -11.9384,-8.30546 -79.4195,17.1295 -34.2595,24.3967 124.06101,20.2443 226.32101,-8.82428 194.13701,-23.3587 l 10e-4,8e-5 z m -129.77101,-94.4732 c 0,0 -56.5799,13.4961 -20.2439,18.1678 15.5725,2.0761 46.19831,1.5575 74.74811,-0.51903 23.3585,-2.07631 46.7176,-6.22894 46.7176,-6.22894 0,0 -8.3055,3.63339 -14.0156,7.26741 -57.6179,15.053 -168.18301,8.30504 -136.51901,-7.26741 26.9923,-12.9773 49.3125,-11.4198 49.3125,-11.4198 l 3e-4,-3e-5 z m 101.22201,56.5799 c 58.1372,-30.1069 31.1451,-59.1754 12.4579,-55.5416 -4.6719,1.03805 -6.7482,2.07631 -6.7482,2.07631 0,0 1.5573,-3.11457 5.1907,-4.15263 36.8552,-12.9773 65.9238,38.9309 -11.9384,59.1752 0,0 0.5186,-0.51903 1.038,-1.55729 l 0,1e-5 z m -95.51171,82.0153 c 56.06131,3.63381 141.71001,-2.07631 143.78601,-28.5494 0,0 -4.1525,10.3818 -46.1981,18.1676 -47.7558,8.8247 -106.93101,7.78643 -141.71001,2.07631 0,0 7.267,6.22915 44.122,8.30546 l 10e-5,3e-5 z" />
      <path
         id="path4303"
         d="m 669.01358,496.2604 c 0,0 32.1832,32.7022 -30.6261,82.0153 -50.35121,39.9692 -11.4198,62.8088 0,88.7629 -29.58781,-26.4728 -50.87021,-49.8319 -36.33601,-71.6335 21.2828,-32.1832 79.93901,-47.7554 66.96211,-99.1446 l 0,-10e-5 z"
         style="fill:#80deea;fill-opacity:1"
         inkscape:connector-curvature="0" />
      <path
         id="path4301"
         d="m 652.40308,645.2374 c 15.053,17.1299 -4.1528,32.7026 -4.1528,32.7026 0,0 38.4121,-19.7253 20.7633,-44.1224 -16.0919,-23.3585 -28.5498,-34.7783 38.9311,-73.7098 0,0 -106.41201,26.4735 -55.5416,85.1297 l 0,-10e-5 z"
         style="fill:#80deea;fill-opacity:1"
         inkscape:connector-curvature="0" />
    </g>
    <g
       id="g4475"
       transform="matrix(0.23241453,0,0,0.23241453,1178.6777,139.64177)"
       style="fill:#80deea;fill-opacity:1"
       inkscape:export-xdpi="77.513992"
       inkscape:export-ydpi="77.513992">
      <path
         id="polygon4403"
         transform="translate(0,52.36223)"
         d="m 78.289062,177.42383 33.011718,370.25781 148.13281,41.12305 148.54297,-41.18164 33.04688,-370.19922 -362.734378,0 z m 67.498048,75.68555 113.71289,0 0.15625,0 113.59766,0 -1.08594,12.18359 -2.07031,23.01953 -0.91016,10.20703 -0.14648,0 -109.38477,0 -0.15625,0 -64.08398,0 4.15039,46.50195 59.93359,0 0.15625,0 93.16211,0 12.23633,0 -1.10742,12.19336 -10.67188,119.55078 -0.68164,7.67188 -92.9375,25.75781 0,0.008 -0.20898,0.0586 -93.01954,-25.82422 -6.36328,-71.30078 21.00977,0 24.57617,0 3.23242,36.2168 50.57422,13.65625 0.043,-0.0117 0,-0.002 50.64648,-13.66992 5.27149,-58.89453 -55.76172,0 -0.15625,0 -101.46484,0 -11.16016,-125.13867 -1.08789,-12.18359 z"
         style="fill:#80deea;fill-opacity:1"
         inkscape:connector-curvature="0" />
      <path
         style="fill:#80deea;fill-opacity:1"
         id="path4411"
         d="m 112.03808,129.16646 23.077,0 0,22.8 21.11,0 0,-22.8 23.078,0 0,69.044 -23.077,0 0,-23.12 -21.11,0 0,23.12 -23.077,0 0,-69.044 z"
         inkscape:connector-curvature="0" />
      <path
         style="fill:#80deea;fill-opacity:1"
         id="path4413"
         d="m 209.65008,152.06246 -20.316,0 0,-22.896 63.72,0 0,22.896 -20.325,0 0,46.148 -23.078,0 0,-46.148 z"
         inkscape:connector-curvature="0" />
      <path
         style="fill:#80deea;fill-opacity:1"
         id="path4415"
         d="m 263.16708,129.16646 24.063,0 14.802,24.26 14.787,-24.26 24.072,0 0,69.044 -22.982,0 0,-34.222 -15.877,24.549 -0.397,0 -15.888,-24.549 0,34.222 -22.58,0 0,-69.044 z"
         inkscape:connector-curvature="0" />
      <path
         style="fill:#80deea;fill-opacity:1"
         id="path4417"
         d="m 352.37608,129.16646 23.084,0 0,46.222 32.453,0 0,22.822 -55.537,0 0,-69.044 z"
         inkscape:connector-curvature="0" />
    </g>
    <path
       inkscape:connector-curvature="0"
       d="m 1101.4904,176.64776 c -1.7816,0.18997 -1.1667,1.82886 -2.1584,1.86432 -0.9766,0.0359 -0.7776,-2.08662 2.1584,-1.86432 z m 5.3707,0.27039 c 1.7339,-0.4454 1.743,1.30029 2.6897,0.98261 0.9203,-0.30862 -0.015,-2.21788 -2.6897,-0.98261 z m 59.7546,114.34006 c -5.3558,2.69283 -12.3416,8.67524 -14.954,11.15404 -1.9207,1.83792 -9.9693,2.74959 -14.4405,0.44854 -5.2993,-2.72829 -2.4879,-6.98591 -10.6705,-7.18732 -4.0667,-0.095 -8.0217,-0.13085 -11.9848,-0.0832 -3.5064,0.0473 -7.0095,0.15451 -10.5841,0.34133 -12.2856,0.10682 -13.4876,8.14037 -21.3136,7.84635 -5.356,-0.19865 -12.1157,-4.42355 -23.7243,-6.85506 -8.1581,-1.69839 -15.9902,-2.102 -17.6677,-5.71201 -1.6747,-3.59819 2.0665,-7.63311 2.3156,-11.21948 0.3056,-4.67579 -3.5418,-11.03501 -0.698,-13.49923 2.3483,-2.04012 7.4935,-0.54354 10.81,-2.39604 3.5268,-1.95656 4.943,-3.58636 4.943,-7.88219 1.2975,4.38805 -0.059,8.02448 -2.9746,9.80605 -1.734,1.04803 -4.9581,1.603 -7.6091,1.333 -2.0993,-0.19864 -3.3996,0.14229 -4.0377,0.94163 -0.8135,1.03897 -0.5522,2.856 0.4718,5.27569 1.0303,2.41969 2.2683,3.9545 2.102,6.91457 -0.1663,2.96283 -3.4232,6.48061 -2.9032,8.97163 0.2016,0.95621 1.1425,1.75476 3.399,2.39289 3.741,1.0512 10.4178,2.00424 17.006,3.61001 7.3242,1.79654 14.8859,5.18109 19.5853,4.53075 14.0518,-1.95656 6.0388,-17.02647 3.7649,-20.61009 -11.8607,-18.67126 -19.7042,-30.89384 -25.9835,-26.04264 -1.6388,1.26166 -1.7011,-3.17684 -1.6298,-4.88667 0.2703,-6.13652 3.3877,-8.28345 5.2402,-13.06015 3.4678,-8.94523 6.172,-19.19075 11.5372,-24.48734 3.9931,-5.10936 10.2218,-13.52012 11.4153,-17.95864 -1.0035,-9.65154 -1.3121,-19.81115 -1.467,-28.70869 -0.1514,-9.46472 1.348,-17.76865 12.0361,-23.57567 2.6065,-1.41618 5.9938,-1.93566 9.5833,-1.97114 6.4184,-0.0713 13.4961,1.7248 18.0178,5.07665 7.2086,5.34389 11.739,16.71786 11.2104,24.89725 -0.4276,6.29694 0.7067,12.89658 2.7256,19.68069 2.4165,8.0572 6.2405,13.72193 12.3148,20.1643 7.3208,7.76357 13.0183,23.05934 14.6218,32.74675 1.5111,9.04928 -0.4573,14.64266 -2.4434,14.92447 -2.9569,0.43633 -4.8007,9.8297 -14.0637,9.39338 -5.9111,-0.28497 -6.4901,-3.77634 -8.1285,-6.751 -2.6338,-4.7562 -5.3117,-3.26868 -6.3864,1.68932 -0.555,2.53518 -0.1514,6.172 0.6621,9.0016 1.6508,5.79518 1.0839,11.29317 0.098,17.95825 -1.8911,12.79292 8.9393,15.2126 16.2457,9.13245 7.2086,-6.0029 8.7524,-6.95911 17.8758,-10.07329 13.7574,-4.71167 9.1352,-8.87704 1.7366,-11.36491 -6.6323,-2.2297 -6.9054,-13.43736 -4.5303,-15.55117 0.5285,12.03575 6.7927,13.78143 9.4501,15.42346 11.3814,7.06474 -4.3002,12.85993 -10.9739,16.22085 z M 1135.98,256.0031 c 1.2526,-1.48713 2.7283,-1.65346 4.6727,-1.68933 0.2967,-7.33591 11.7181,-6.79553 15.4589,-3.72589 0,-1.70076 -3.5891,-3.22415 -5.0262,-3.94268 2.4907,-8.28306 1.3212,-11.61126 -0.3295,-19.43434 -1.253,-5.97019 -6.6923,-14.00414 -10.9522,-16.51843 1.0748,0.94084 3.1173,3.68137 5.2757,7.70091 3.7172,6.92048 7.3863,17.14827 4.943,25.73718 -0.9409,3.28051 -3.0905,3.69358 -4.5659,3.85952 -6.5495,0.68267 -2.6991,-7.73993 -5.4183,-19.34211 -3.0282,-12.89698 -6.1338,-13.86462 -6.9142,-14.87679 -3.7527,-16.78013 -7.9271,-15.10539 -9.1084,-21.44095 -1.0598,-5.6056 4.8863,-10.24237 -3.1977,-11.81031 -2.4643,-0.48401 -5.9907,-2.98371 -7.3982,-3.16187 -1.3926,-0.18997 -2.0756,-9.25108 3.0338,-9.61922 5.1093,-0.3772 6.086,5.77153 5.0829,8.19122 -1.452,2.39604 0.1068,3.29233 2.6333,2.51191 2.0666,-0.63536 0.7335,-6.01826 1.2263,-6.81642 -1.3332,-7.7072 -4.5513,-8.81752 -7.9032,-9.46471 -12.7215,0.9767 -7.0095,15.06715 -8.298,13.7101 -1.802,-1.91203 -7.2204,-0.10681 -7.1936,-1.33301 0.1159,-7.18496 -2.292,-11.34994 -5.6083,-11.43626 -3.6932,-0.10682 -5.2161,5.06522 -5.4392,7.97719 -0.2109,2.7969 1.6629,8.62479 3.0309,8.1794 0.8967,-0.29679 2.4315,-2.09885 0.7899,-2.09017 -0.849,0.0118 -2.1315,-1.98022 -2.2651,-4.40304 -0.1277,-2.41654 0.7571,-4.84805 3.8953,-4.72035 3.6813,0.14269 3.6455,7.33316 3.2446,7.61221 -1.1785,0.81629 -2.6897,2.39879 -2.8528,2.66879 -1.1699,1.95972 -3.5182,2.44334 -4.379,3.30455 -1.6388,1.63848 -1.9715,3.491 -0.7425,4.20086 4.2101,2.41653 2.8413,5.1062 8.7315,5.3557 3.8682,0.15174 6.7809,-0.60265 9.4143,-1.40712 2.0515,-0.62039 8.6393,-2.02475 10.0286,-4.44402 0.6028,-1.02717 1.3599,-1.06303 1.8644,-0.769 0.8845,0.51042 1.0748,2.22063 -1.2026,2.83236 -3.2568,0.88487 -6.5464,2.6215 -9.4292,3.77635 -2.8768,1.16668 -3.7972,1.61522 -6.5109,2.11382 -6.1161,1.09535 -10.6314,-2.20882 -6.5283,1.75753 1.3598,1.32157 2.6687,2.14653 6.1869,2.00424 7.7044,-0.30586 16.3375,-9.55694 17.1897,-5.41522 0.1781,0.849 -2.4402,2.00386 -4.4828,3.01919 -7.223,3.55404 -12.3087,10.57227 -16.9345,8.14352 -4.1386,-2.18201 -8.2562,-12.44843 -8.1852,-7.84949 0.1158,7.09232 -9.3493,13.40464 -4.9939,21.47683 -2.8202,0.76858 -9.2511,14.3364 -10.1742,21.40232 -0.5045,4.0018 0.3835,9.02839 -0.5758,11.8371 -1.3926,4.05856 -7.7159,-3.86857 -5.6975,-13.58279 0.3626,-1.71021 0.057,-2.07244 -0.4008,-1.24709 -2.5707,4.54258 -1.158,10.87853 0.8698,15.32572 0.888,1.92385 2.9632,2.77285 4.4977,4.48583 3.3132,3.705 15.9907,13.10783 18.2885,15.36118 2.7843,2.73698 2.0038,9.01617 -3.9162,9.61607 3.034,5.72385 5.991,6.26699 5.9464,15.62528 3.4322,-1.84383 2.0516,-5.87559 0.6149,-8.53255 -1.0036,-1.81664 -2.3156,-2.64199 -2.0307,-3.06649 0.2141,-0.32045 1.9803,-1.84068 3.0433,-0.65035 3.1264,3.50361 9.0284,4.13029 15.3757,3.34043 6.3356,-0.80446 13.1315,-3.0192 16.2725,-8.06944 1.4726,-2.37238 2.5355,-3.21231 3.2183,-2.79688 0.674,0.4245 0.9679,2.09885 0.8962,4.78852 -0.08,2.98647 -1.3298,6.08883 -2.1079,8.56803 -0.8762,2.80871 -1.1459,4.80074 1.5912,4.90757 0.8136,-5.19293 2.2419,-10.3023 2.6542,-15.46763 0.4615,-5.87677 -3.7956,-16.81679 0.7914,-22.26748 z m -38.8327,-83.43716 c -0.2109,1.15802 -0.1277,1.87931 0.674,1.87931 0.1305,0 0.2699,-0.0267 0.3204,-0.32044 0.3858,-2.30105 -0.8045,-3.97539 -1.2889,-4.10901 -1.1308,-0.28222 -0.9885,1.33301 -0.4008,1.20531 0.3563,-0.0718 0.8376,0.51909 0.6953,1.34483 z m 20.9123,-3.16187 c -1.158,0.10682 -0.8253,0.68267 -0.2494,0.849 0.7539,0.22546 1.4638,1.50802 1.627,2.9037 0.012,0.12771 0.9676,-0.2018 0.9676,-0.50766 0.072,-2.23286 -1.8407,-3.28997 -2.3452,-3.24504 z"
       id="path4996"
       style="fill:#80deea;fill-opacity:1"
       inkscape:export-xdpi="77.513992"
       inkscape:export-ydpi="77.513992" />
    <g
       id="g5920"
       transform="matrix(0.44508829,0,0,0.44508829,927.61766,62.284817)"
       style="fill:#80deea;fill-opacity:1"
       inkscape:export-xdpi="77.513992"
       inkscape:export-ydpi="77.513992">
      <path
         inkscape:connector-curvature="0"
         id="rect5905"
         d="m 225.48957,599.25285 c -11.08,0 -20,7.32245 -20,16.41797 l 0,109.0293 c 0,9.09552 8.92,16.41797 20,16.41797 l 192.14258,0 c 11.08,0 20,-7.32245 20,-16.41797 l 0,-109.0293 c 0,-9.09552 -8.92,-16.41797 -20,-16.41797 l -192.14258,0 z m 96.07227,30.52344 a 40.410053,40.410053 0 0 1 40.41015,40.41016 40.410053,40.410053 0 0 1 -40.41015,40.41016 40.410053,40.410053 0 0 1 -40.41016,-40.41016 40.410053,40.410053 0 0 1 40.41016,-40.41016 z"
         style="fill:#80deea;fill-opacity:1;stroke:#4dc1ce;stroke-width:0;stroke-miterlimit:4;stroke-dasharray:none;stroke-opacity:1" />
      <rect
         inkscape:transform-center-y="1.4002255"
         inkscape:transform-center-x="0.85978837"
         ry="12.808989"
         rx="20"
         y="575.17975"
         x="269.11377"
         height="49.007938"
         width="104.89418"
         id="rect5907"
         style="fill:#80deea;fill-opacity:1;stroke:#4dc1ce;stroke-width:0;stroke-miterlimit:4;stroke-dasharray:none;stroke-opacity:1" />
      <circle
         r="27.966261"
         cy="670.18549"
         cx="321.56085"
         id="path5916"
         style="fill:#80deea;fill-opacity:1;stroke:#4dc1ce;stroke-width:0;stroke-miterlimit:4;stroke-dasharray:none;stroke-opacity:1" />
    </g>
    <g
       style="font-style:normal;font-weight:normal;font-size:54.01580048px;line-height:0%;font-family:sans-serif;letter-spacing:0px;word-spacing:0px;fill:#80deea;fill-opacity:1;stroke:none;stroke-width:1px;stroke-linecap:butt;stroke-linejoin:miter;stroke-opacity:1"
       id="text5944">
      <path
         d="m 648.61023,73.75343 q -1.05331,0 -1.82304,-0.729213 -0.76972,-0.729213 -0.76972,-1.985081 0,-1.255867 0.76972,-1.98508 0.76973,-0.729213 1.82304,-0.729213 1.09382,0 1.82303,0.729213 0.76972,0.729213 0.76972,1.98508 0,1.255868 -0.76972,1.985081 -0.72921,0.729213 -1.82303,0.729213 z m -0.85075,5.712171 -5.42859,0 0,-2.795318 8.75056,0 0,11.545877 q 0,2.795318 0.76972,3.767602 0.76973,0.931773 2.30918,0.931773 1.17484,0 2.14713,-0.283583 1.01279,-0.283583 1.57996,-0.607678 l 0.48614,2.835829 q -0.24307,0.121536 -0.6887,0.324095 -0.44563,0.162048 -1.05331,0.324095 -0.56716,0.162047 -1.29638,0.283583 -0.6887,0.121535 -1.45842,0.121535 -1.78253,0 -2.95737,-0.486142 -1.17484,-0.486142 -1.90406,-1.458426 -0.6887,-0.972285 -0.97228,-2.390199 -0.28358,-1.458427 -0.28358,-3.362484 l 0,-8.750559 z"
         style="font-style:normal;font-variant:normal;font-weight:normal;font-stretch:normal;font-size:40.51184845px;font-family:'Ubuntu Mono';-inkscape-font-specification:'Ubuntu Mono';fill:#80deea;fill-opacity:1"
         id="path4187" />
      <path
         d="m 663.27551,77.196937 q 1.82304,-0.44563 3.60556,-0.688701 1.82303,-0.243071 3.40299,-0.243071 3.76761,0 5.67166,1.944569 1.94457,1.944568 1.94457,6.238824 l 0,11.019223 -3.32197,0 0,-10.411545 q 0,-1.823033 -0.32409,-2.957365 -0.3241,-1.134332 -0.93178,-1.742009 -0.56716,-0.64819 -1.41791,-0.891261 -0.81024,-0.243071 -1.78252,-0.243071 -0.81024,0 -1.74201,0.121535 -0.89126,0.08102 -1.74201,0.243071 l 0,15.880645 -3.36249,0 0,-18.270844 z"
         style="font-style:normal;font-variant:normal;font-weight:normal;font-stretch:normal;font-size:40.51184845px;font-family:'Ubuntu Mono';-inkscape-font-specification:'Ubuntu Mono';fill:#80deea;fill-opacity:1"
         id="path4189" />
      <path
         d="m 690.49948,76.670283 7.94032,0 0,2.795318 -7.94032,0 0,8.750559 q 0,1.417915 0.20256,2.309176 0.20256,0.89126 0.64819,1.458426 0.48614,0.526654 1.21535,0.729213 0.72921,0.20256 1.78252,0.20256 1.45843,0 2.34969,-0.243071 0.89126,-0.243072 1.7015,-0.64819 l 0.48614,2.835829 q -0.56717,0.243071 -1.82303,0.64819 -1.21536,0.405118 -3.03839,0.405118 -2.10662,0 -3.44351,-0.486142 -1.33689,-0.486142 -2.10662,-1.458426 -0.72921,-0.972285 -1.01279,-2.390199 -0.28358,-1.458427 -0.28358,-3.362484 l 0,-8.750559 -3.97017,0 0,-2.795318 3.97017,0 0,-5.26654 3.32197,-0.567166 0,5.833706 z"
         style="font-style:normal;font-variant:normal;font-weight:normal;font-stretch:normal;font-size:40.51184845px;font-family:'Ubuntu Mono';-inkscape-font-specification:'Ubuntu Mono';fill:#80deea;fill-opacity:1"
         id="path4191" />
      <path
         d="m 722.82793,77.196937 q 2.43071,-0.931772 4.57784,-0.931772 1.17484,0 2.18764,0.364607 1.05331,0.324094 1.78252,1.053308 1.74201,-1.417915 3.72709,-1.417915 0.97229,0 1.82304,0.364607 0.89126,0.364606 1.53945,1.093819 0.6887,0.729214 1.09382,1.823034 0.40511,1.09382 0.40511,2.552246 l 0,13.36891 -3.03838,0 0,-13.449934 q 0,-1.458426 -0.64819,-2.228151 -0.64819,-0.769725 -1.62048,-0.769725 -0.48614,0 -1.01279,0.243071 -0.52666,0.243071 -0.97229,0.769725 0.24307,0.931772 0.24307,2.066104 l 0,6.117289 -3.03839,0 0,-6.157801 q 0,-1.417914 -0.44563,-2.228151 -0.44563,-0.810237 -1.74201,-0.810237 -0.81023,0 -1.82303,0.364606 l 0,16.083204 -3.03839,0 0,-18.270844 z"
         style="font-style:normal;font-variant:normal;font-weight:normal;font-stretch:normal;font-size:40.51184845px;font-family:'Ubuntu Mono';-inkscape-font-specification:'Ubuntu Mono';fill:#80deea;fill-opacity:1"
         id="path4193" />
      <path
         d="m 751.75339,93.077582 q 1.25587,0 2.22815,-0.08102 1.0128,-0.08102 1.66099,-0.202559 l 0,-5.590635 q -0.64819,-0.202559 -1.57997,-0.324095 -0.89126,-0.121535 -1.90405,-0.121535 -0.93178,0 -1.82304,0.162047 -0.89126,0.121536 -1.57996,0.486142 -0.6887,0.364607 -1.13433,0.972285 -0.44563,0.567165 -0.44563,1.458426 0,1.823033 1.21535,2.552247 1.25587,0.688701 3.36249,0.688701 z m -0.3241,-16.852929 q 2.10662,0 3.52453,0.526654 1.45843,0.526654 2.34969,1.458427 0.89126,0.931772 1.25587,2.268663 0.36461,1.336891 0.36461,2.916853 l 0,11.748436 q -1.17485,0.20256 -3.11942,0.486142 -1.90405,0.283583 -3.92965,0.283583 -1.53945,0 -2.99787,-0.283583 -1.45843,-0.243071 -2.59276,-0.89126 -1.13433,-0.688702 -1.82303,-1.863545 -0.68871,-1.174844 -0.68871,-2.997877 0,-1.620474 0.68871,-2.714294 0.72921,-1.134332 1.82303,-1.823033 1.13433,-0.688701 2.55225,-0.972284 1.45842,-0.324095 2.91685,-0.324095 1.98508,0 3.88914,0.44563 l 0,-0.931772 q 0,-0.850749 -0.20256,-1.620474 -0.16205,-0.810237 -0.68871,-1.458427 -0.48614,-0.648189 -1.3774,-1.012796 -0.85075,-0.405119 -2.22815,-0.405119 -1.74201,0 -3.03839,0.243072 -1.29638,0.243071 -1.98508,0.486142 l -0.40512,-2.754806 q 0.6887,-0.324095 2.26867,-0.567166 1.62047,-0.243071 3.4435,-0.243071 z"
         style="font-style:normal;font-variant:normal;font-weight:normal;font-stretch:normal;font-size:40.51184845px;font-family:'Ubuntu Mono';-inkscape-font-specification:'Ubuntu Mono';fill:#80deea;fill-opacity:1"
         id="path4195" />
      <path
         d="m 770.14577,73.75343 q -1.05331,0 -1.82303,-0.729213 -0.76973,-0.729213 -0.76973,-1.985081 0,-1.255867 0.76973,-1.98508 0.76972,-0.729213 1.82303,-0.729213 1.09382,0 1.82303,0.729213 0.76973,0.729213 0.76973,1.98508 0,1.255868 -0.76973,1.985081 -0.72921,0.729213 -1.82303,0.729213 z m -0.85075,5.712171 -5.42859,0 0,-2.795318 8.75056,0 0,11.545877 q 0,2.795318 0.76973,3.767602 0.76972,0.931773 2.30917,0.931773 1.17485,0 2.14713,-0.283583 1.0128,-0.283583 1.57996,-0.607678 l 0.48615,2.835829 q -0.24307,0.121536 -0.6887,0.324095 -0.44564,0.162048 -1.05331,0.324095 -0.56717,0.162047 -1.29638,0.283583 -0.6887,0.121535 -1.45843,0.121535 -1.78252,0 -2.95736,-0.486142 -1.17485,-0.486142 -1.90406,-1.458426 -0.6887,-0.972285 -0.97228,-2.390199 -0.28359,-1.458427 -0.28359,-3.362484 l 0,-8.750559 z"
         style="font-style:normal;font-variant:normal;font-weight:normal;font-stretch:normal;font-size:40.51184845px;font-family:'Ubuntu Mono';-inkscape-font-specification:'Ubuntu Mono';fill:#80deea;fill-opacity:1"
         id="path4197" />
      <path
         d="m 784.81106,77.196937 q 1.82304,-0.44563 3.60556,-0.688701 1.82303,-0.243071 3.40299,-0.243071 3.76761,0 5.67166,1.944569 1.94457,1.944568 1.94457,6.238824 l 0,11.019223 -3.32197,0 0,-10.411545 q 0,-1.823033 -0.32409,-2.957365 -0.3241,-1.134332 -0.93178,-1.742009 -0.56716,-0.64819 -1.41791,-0.891261 -0.81024,-0.243071 -1.78252,-0.243071 -0.81024,0 -1.74201,0.121535 -0.89126,0.08102 -1.74201,0.243071 l 0,15.880645 -3.36249,0 0,-18.270844 z"
         style="font-style:normal;font-variant:normal;font-weight:normal;font-stretch:normal;font-size:40.51184845px;font-family:'Ubuntu Mono';-inkscape-font-specification:'Ubuntu Mono';fill:#80deea;fill-opacity:1"
         id="path4199" />
      <path
         d="m 817.74719,69.499686 q -3.7676,2.916853 -5.75268,6.724967 -1.98508,3.808114 -1.98508,8.304929 0,2.268663 0.44563,4.294256 0.48614,2.025592 1.41792,3.889137 0.97228,1.863545 2.43071,3.605555 1.49893,1.742009 3.52453,3.484019 l -1.82304,2.430711 q -4.65886,-3.443507 -6.96803,-7.980834 -2.26867,-4.577839 -2.26867,-9.64182 0,-5.02347 2.30918,-9.601308 2.30917,-4.577839 6.92752,-7.940323 l 1.78252,2.430711 -0.0405,0 z"
         style="font-style:normal;font-variant:normal;font-weight:normal;font-stretch:normal;font-size:40.51184845px;font-family:'Ubuntu Mono';-inkscape-font-specification:'Ubuntu Mono';fill:#80deea;fill-opacity:1"
         id="path4201" />
      <path
         d="m 827.10543,99.802549 q 3.7676,-2.916853 5.75268,-6.724967 2.02559,-3.808114 2.02559,-8.304929 0,-2.268663 -0.48614,-4.294256 -0.44563,-2.025592 -1.41792,-3.889137 -0.97228,-1.863545 -2.47122,-3.605555 -1.45842,-1.742009 -3.48402,-3.484019 l 1.82304,-2.430711 q 4.65886,3.443507 6.92752,8.021346 2.30918,4.537327 2.30918,9.601308 0,2.511735 -0.60768,4.942446 -0.56717,2.430711 -1.74201,4.699374 -1.13433,2.228152 -2.87634,4.213233 -1.7015,2.025588 -4.01067,3.686578 l -1.78253,-2.430711 0.0405,0 z"
         style="font-style:normal;font-variant:normal;font-weight:normal;font-stretch:normal;font-size:40.51184845px;font-family:'Ubuntu Mono';-inkscape-font-specification:'Ubuntu Mono';fill:#80deea;fill-opacity:1"
         id="path4203" />
      <path
         d="m 845.90292,83.354738 1.62047,0 q 0.68871,0 1.21536,-0.283583 0.52665,-0.324094 0.85075,-0.810237 0.36461,-0.526654 0.52665,-1.134331 0.20256,-0.64819 0.20256,-1.296379 l 0,-6.522408 q 0,-1.498938 0.28358,-2.63327 0.3241,-1.134332 1.05331,-1.904057 0.72922,-0.810237 1.94457,-1.215356 1.25587,-0.405118 3.11941,-0.405118 l 3.28146,0 0,2.63327 -3.4435,0 q -1.7015,0 -2.43071,0.769725 -0.68871,0.769725 -0.68871,2.795318 l 0,5.590635 q 0,2.714294 -0.81023,4.010673 -0.81024,1.255867 -1.86355,1.701498 1.05331,0.486142 1.86355,1.823033 0.81023,1.336891 0.81023,3.889137 l 0,5.590635 q 0,2.025593 0.72922,2.795318 0.72921,0.769725 2.43071,0.769725 l 3.40299,0 0,2.633274 -3.28146,0 q -1.86354,0 -3.11941,-0.40512 -1.21535,-0.40512 -1.94457,-1.21536 -0.72921,-0.769723 -1.05331,-1.904055 -0.28358,-1.134332 -0.28358,-2.63327 l 0,-6.522408 q 0,-0.607677 -0.20256,-1.215355 -0.16204,-0.64819 -0.52665,-1.134332 -0.3241,-0.526654 -0.85075,-0.850749 -0.48614,-0.324094 -1.17484,-0.324094 l -1.66099,0 0,-2.592759 z"
         style="font-style:normal;font-variant:normal;font-weight:normal;font-stretch:normal;font-size:40.51184845px;font-family:'Ubuntu Mono';-inkscape-font-specification:'Ubuntu Mono';fill:#80deea;fill-opacity:1"
         id="path4205" />
    </g>
    <g
       style="font-style:normal;font-weight:normal;font-size:54.01580048px;line-height:0%;font-family:sans-serif;letter-spacing:0px;word-spacing:0px;fill:#80deea;fill-opacity:1;stroke:none;stroke-width:1px;stroke-linecap:butt;stroke-linejoin:miter;stroke-opacity:1"
       id="text5948">
      <path
         d="m 1474.0869,375.67451 -1.6205,0 q -0.6887,0 -1.2154,0.32409 -0.4861,0.28359 -0.8507,0.81024 -0.3241,0.48614 -0.5267,1.13433 -0.162,0.60768 -0.162,1.25587 l 0,6.52241 q 0,1.49894 -0.3241,2.63327 -0.2836,1.13433 -1.0533,1.90405 -0.7292,0.81024 -1.9851,1.21536 -1.2154,0.40512 -3.0789,0.40512 l -3.2815,0 0,-2.63327 3.4435,0 q 1.7015,0 2.3902,-0.76973 0.7293,-0.76972 0.7293,-2.79531 l 0,-5.59064 q 0,-2.71429 0.8102,-3.97016 0.8102,-1.29638 1.8635,-1.74201 -1.0533,-0.48614 -1.8635,-1.82303 -0.8102,-1.33689 -0.8102,-3.88914 l 0,-5.59064 q 0,-2.02559 -0.7293,-2.79531 -0.7292,-0.76973 -2.4307,-0.76973 l -3.403,0 0,-2.63327 3.2815,0 q 1.8635,0 3.0789,0.40512 1.2559,0.40512 1.9851,1.21536 0.7697,0.76972 1.0533,1.90405 0.3241,1.13433 0.3241,2.63327 l 0,6.52241 q 0,0.60768 0.162,1.25587 0.1621,0.60768 0.4862,1.13433 0.3646,0.48614 0.8507,0.81024 0.5267,0.32409 1.2154,0.32409 l 1.661,0 0,2.59276 z"
         style="font-style:normal;font-variant:normal;font-weight:normal;font-stretch:normal;font-size:40.51184845px;font-family:'Ubuntu Mono';-inkscape-font-specification:'Ubuntu Mono';fill:#80deea;fill-opacity:1"
         id="path4196" />
    </g>
    <path
       style="color:#000000;fill:#80deea;fill-opacity:1;enable-background:accumulate"
       d="m 994.84286,228.09407 c -24.17722,34.39864 -32.88484,67.49817 -34.19436,106.2587 7.97786,-7.7753 33.37336,-38.71669 42.4331,-40.51523 6.0456,-1.20045 11.3621,6.09392 23.9216,30.00247 -3.0546,-33.6196 -17.024,-73.72603 -32.16034,-95.74596 z"
       sodipodi:nodetypes="ccscc"
       inkscape:connector-curvature="0"
       id="path6014"
       inkscape:export-xdpi="77.513992"
       inkscape:export-ydpi="77.513992" />
    <g
       id="g6126"
       transform="matrix(0.35850746,0,0,0.35850746,1139.0281,180.45878)"
       style="fill:#80deea;fill-opacity:1"
       inkscape:export-xdpi="77.513992"
       inkscape:export-ydpi="77.513992">
      <path
         id="path6033"
         transform="translate(0,52.36223)"
         d="m 323.28125,348.29102 a 92.85714,92.85714 0 0 0 -92.85742,92.85742 92.85714,92.85714 0 0 0 92.85742,92.85547 92.85714,92.85714 0 0 0 92.85547,-92.85547 92.85714,92.85714 0 0 0 -92.85547,-92.85742 z m 0.0742,44.82812 a 16.035002,16.035002 0 0 1 16.03515,16.03516 16.035002,16.035002 0 0 1 -16.03515,16.03515 16.035002,16.035002 0 0 1 -16.0332,-16.03515 16.035002,16.035002 0 0 1 16.0332,-16.03516 z m -31.91797,32.07031 a 16.035002,16.035002 0 0 1 16.03516,16.03321 16.035002,16.035002 0 0 1 -16.03516,16.03515 16.035002,16.035002 0 0 1 -16.0332,-16.03515 16.035002,16.035002 0 0 1 16.0332,-16.03321 z m 63.68555,0 a 16.035002,16.035002 0 0 1 16.03515,16.03321 16.035002,16.035002 0 0 1 -16.03515,16.03515 16.035002,16.035002 0 0 1 -16.03516,-16.03515 16.035002,16.035002 0 0 1 16.03516,-16.03321 z m -31.76758,31.91797 a 16.035002,16.035002 0 0 1 16.03515,16.03516 16.035002,16.035002 0 0 1 -16.03515,16.0332 16.035002,16.035002 0 0 1 -16.0332,-16.0332 16.035002,16.035002 0 0 1 16.0332,-16.03516 z"
         style="fill:#80deea;fill-opacity:1;stroke:#4dc1ce;stroke-width:0;stroke-miterlimit:4;stroke-dasharray:none;stroke-opacity:1"
         inkscape:connector-curvature="0" />
      <path
         id="circle6035"
         transform="translate(0,52.36223)"
         d="m 91.998047,348.29102 a 92.85714,92.85714 0 0 0 -92.857422,92.85742 92.85714,92.85714 0 0 0 92.857422,92.85547 92.85714,92.85714 0 0 0 92.855473,-92.85547 92.85714,92.85714 0 0 0 -92.855473,-92.85742 z m -15.978516,44.92382 31.955079,0 0,31.95508 31.95508,0 0,31.95508 -31.95508,0 0,31.95508 -31.955079,0 0,-31.95508 -31.955078,0 0,-31.95508 31.955078,0 0,-31.95508 z"
         style="fill:#80deea;fill-opacity:1;stroke:#4dc1ce;stroke-width:0;stroke-miterlimit:4;stroke-dasharray:none;stroke-opacity:1"
         inkscape:connector-curvature="0" />
      <path
         style="fill:#80deea;fill-opacity:1;stroke:#4dc1ce;stroke-width:0;stroke-miterlimit:4;stroke-dasharray:none;stroke-opacity:1"
         d="m 91.422991,400.65275 233.388399,0 0,34.89491 -233.388399,0 z"
         id="rect6039"
         inkscape:connector-curvature="0" />
      <path
         inkscape:connector-curvature="0"
         id="path6116"
         d="m 147.30924,400.65276 118.17674,0 0,158.70442 -118.17674,0 z"
         style="fill:#80deea;fill-opacity:1;stroke:#4dc1ce;stroke-width:0;stroke-miterlimit:4;stroke-dasharray:none;stroke-opacity:1" />
    </g>
    <g
       transform="matrix(0.50374709,0,0,0.50374709,887.90583,19.894069)"
       id="g6188"
       style="fill:#80deea;fill-opacity:1"
       inkscape:export-xdpi="77.513992"
       inkscape:export-ydpi="77.513992">
      <g
         id="g6226"
         transform="matrix(0.40029649,0,0,0.40029649,-51.805373,72.247839)"
         style="fill:#80deea;fill-opacity:1">
        <path
           id="path6190"
           d="m 422.953,176.019 c 0.549,-0.48 1.09,-0.975 1.612,-1.498 l 21.772,-21.772 c 12.883,-12.883 12.883,-33.771 0,-46.654 L 405.903,65.661 c -12.883,-12.883 -33.771,-12.883 -46.653,0 l -21.772,21.772 c -0.523,0.523 -1.018,1.064 -1.498,1.613 l 86.973,86.973 z"
           inkscape:connector-curvature="0"
           style="fill:#80deea;fill-opacity:1" />
        <polygon
           id="polygon6192"
           points="63.658,405.341 71.316,354.683 114.317,397.684 157.317,440.684 106.658,448.342 56,456 "
           style="fill:#80deea;fill-opacity:1" />
        <polygon
           id="polygon6194"
           points="106.541,343.253 336.701,113.094 324.26,100.653 81.659,343.253 168.747,430.341 411.348,187.74 349.143,125.535 118.982,355.694 "
           style="fill:#80deea;fill-opacity:1" />
      </g>
    </g>
    <path
       style="fill:none;fill-opacity:1;fill-rule:evenodd;stroke:#80deea;stroke-width:22.50658226;stroke-linecap:round;stroke-linejoin:round;stroke-miterlimit:4;stroke-dasharray:none;stroke-opacity:1"
       d="m 1100.856,97.309903 c 0,0 24.0076,-2.323983 40.4627,24.317527 4.1858,6.77702 17.9081,-65.027226 60.1959,-1.79391 9.3261,13.94547 15.3566,-22.254961 24.7162,-33.486437 5.9797,-7.175666 27.5067,3.189183 27.5067,3.189183"
       id="path6264"
       inkscape:connector-curvature="0"
       sodipodi:nodetypes="csssc"
       inkscape:export-xdpi="77.513992"
       inkscape:export-ydpi="77.513992" />
    <g
       id="g6316"
       transform="matrix(0.64006037,0,0,0.64006037,1234.3798,-307.75865)"
       style="fill:#80deea;fill-opacity:1"
       inkscape:export-xdpi="77.513992"
       inkscape:export-ydpi="77.513992">
      <path
         id="path6270"
         transform="translate(0,52.36223)"
         d="m 210.18945,543.43359 a 77.150235,77.150235 0 0 0 -77.15039,77.15039 77.150235,77.150235 0 0 0 0.74414,9.99024 128.12804,20.39458 0 0 0 85.4336,5.24805 128.12804,20.39458 0 0 0 67.05664,-3.02735 77.150235,77.150235 0 0 0 1.0664,-12.21094 77.150235,77.150235 0 0 0 -77.15039,-77.15039 z m -74.82031,95.64258 a 77.150235,77.150235 0 0 0 74.82031,58.65821 77.150235,77.150235 0 0 0 74.4336,-57.20508 170.83737,27.192772 0 0 1 -65.40625,2.08984 170.83737,27.192772 0 0 1 -83.84766,-3.54297 z"
         style="fill:#80deea;fill-opacity:1;stroke:none;stroke-width:21.63400078;stroke-linecap:round;stroke-linejoin:round;stroke-miterlimit:4;stroke-dasharray:none;stroke-opacity:1"
         inkscape:connector-curvature="0" />
      <path
         inkscape:connector-curvature="0"
         id="path6272"
         d="M 210.19047,645.75351 A 170.83737,27.192772 0 0 0 39.352579,672.94669 170.83737,27.192772 0 0 0 210.19047,700.13986 170.83737,27.192772 0 0 0 381.02641,672.94669 170.83737,27.192772 0 0 0 210.19047,645.75351 Z m 0,6.79761 A 128.12804,20.39458 0 0 1 338.31742,672.94669 128.12804,20.39458 0 0 1 210.19047,693.34225 128.12804,20.39458 0 0 1 82.061563,672.94669 128.12804,20.39458 0 0 1 210.19047,652.55112 Z"
         style="fill:#80deea;fill-opacity:1;stroke:none;stroke-width:21.63400078;stroke-linecap:round;stroke-linejoin:round;stroke-miterlimit:4;stroke-dasharray:none;stroke-opacity:1" />
    </g>
  </g>
</svg>
