<?xml version="1.0" encoding="UTF-8" standalone="no"?>
<!-- Created with Inkscape (http://www.inkscape.org/) -->

<svg
   xmlns:dc="http://purl.org/dc/elements/1.1/"
   xmlns:cc="http://creativecommons.org/ns#"
   xmlns:rdf="http://www.w3.org/1999/02/22-rdf-syntax-ns#"
   xmlns:svg="http://www.w3.org/2000/svg"
   xmlns="http://www.w3.org/2000/svg"
   xmlns:sodipodi="http://sodipodi.sourceforge.net/DTD/sodipodi-0.dtd"
   xmlns:inkscape="http://www.inkscape.org/namespaces/inkscape"
   width="569.96454pt"
   height="479.06775pt"
   viewBox="0 0 712.45566 598.83467"
   id="svg2"
   version="1.1"
   inkscape:version="0.92.3 (2405546, 2018-03-11)"
   sodipodi:docname="logos.svg"
   inkscape:export-filename="/media/Data/Alastair's files/Dropbox/Web/logos.png"
   inkscape:export-xdpi="77.513992"
   inkscape:export-ydpi="77.513992">
  <defs
     id="defs4">
    <marker
       inkscape:isstock="true"
       style="overflow:visible"
       id="marker7943"
       refX="0"
       refY="0"
       orient="auto"
       inkscape:stockid="Arrow1Lend">
      <path
         transform="matrix(-0.8,0,0,-0.8,-10,0)"
         style="fill:#ffffff;fill-opacity:1;fill-rule:evenodd;stroke:#ffffff;stroke-width:1.00000003pt;stroke-opacity:1"
         d="M 0,0 5,-5 -12.5,0 5,5 Z"
         id="path7941"
         inkscape:connector-curvature="0" />
    </marker>
    <marker
       inkscape:stockid="Arrow1Mend"
       orient="auto"
       refY="0"
       refX="0"
       id="marker5564"
       style="overflow:visible"
       inkscape:isstock="true">
      <path
         id="path5234"
         d="M 0,0 5,-5 -12.5,0 5,5 Z"
         style="fill:#ffffff;fill-opacity:1;fill-rule:evenodd;stroke:#ffffff;stroke-width:1.00000003pt;stroke-opacity:1"
         transform="matrix(-0.4,0,0,-0.4,-4,0)"
         inkscape:connector-curvature="0" />
    </marker>
    <marker
       inkscape:stockid="Arrow1Mstart"
       orient="auto"
       refY="0"
       refX="0"
       id="Arrow1Mstart"
       style="overflow:visible"
       inkscape:isstock="true">
      <path
         id="path5231"
         d="M 0,0 5,-5 -12.5,0 5,5 Z"
         style="fill:#ffffff;fill-opacity:1;fill-rule:evenodd;stroke:#ffffff;stroke-width:1.00000003pt;stroke-opacity:1"
         transform="matrix(0.4,0,0,0.4,4,0)"
         inkscape:connector-curvature="0" />
    </marker>
    <marker
       inkscape:stockid="Arrow2Lend"
       orient="auto"
       refY="0"
       refX="0"
       id="Arrow2Lend"
       style="overflow:visible"
       inkscape:isstock="true">
      <path
         id="path5246"
         style="fill:#ffffff;fill-opacity:1;fill-rule:evenodd;stroke:#ffffff;stroke-width:0.625;stroke-linejoin:round;stroke-opacity:1"
         d="M 8.7185878,4.0337352 -2.2072895,0.01601326 8.7185884,-4.0017078 c -1.7454984,2.3720609 -1.7354408,5.6174519 -6e-7,8.035443 z"
         transform="matrix(-1.1,0,0,-1.1,-1.1,0)"
         inkscape:connector-curvature="0" />
    </marker>
    <clipPath
       clipPathUnits="userSpaceOnUse"
       id="clipPath5843">
      <rect
         style="fill:#ffffff;fill-opacity:1;stroke:#4dc1ce;stroke-width:0;stroke-miterlimit:4;stroke-dasharray:none;stroke-opacity:1"
         id="rect5845"
         width="988.75659"
         height="423.01587"
         x="-543.38623"
         y="116.91249" />
    </clipPath>
    <clipPath
       clipPathUnits="userSpaceOnUse"
       id="clipPath5847">
      <rect
         style="fill:#ffffff;fill-opacity:1;stroke:#4dc1ce;stroke-width:0;stroke-miterlimit:4;stroke-dasharray:none;stroke-opacity:1"
         id="rect5849"
         width="988.75659"
         height="423.01587"
         x="-543.38623"
         y="116.91249" />
    </clipPath>
    <clipPath
       clipPathUnits="userSpaceOnUse"
       id="clipPath5851">
      <rect
         style="fill:#ffffff;fill-opacity:1;stroke:#4dc1ce;stroke-width:0;stroke-miterlimit:4;stroke-dasharray:none;stroke-opacity:1"
         id="rect5853"
         width="988.75659"
         height="423.01587"
         x="-543.38623"
         y="116.91249" />
    </clipPath>
    <clipPath
       clipPathUnits="userSpaceOnUse"
       id="clipPath5855">
      <rect
         style="fill:#ffffff;fill-opacity:1;stroke:#4dc1ce;stroke-width:0;stroke-miterlimit:4;stroke-dasharray:none;stroke-opacity:1"
         id="rect5857"
         width="988.75659"
         height="423.01587"
         x="-543.38623"
         y="116.91249" />
    </clipPath>
    <clipPath
       clipPathUnits="userSpaceOnUse"
       id="clipPath5859">
      <rect
         style="fill:#ffffff;fill-opacity:1;stroke:#4dc1ce;stroke-width:0;stroke-miterlimit:4;stroke-dasharray:none;stroke-opacity:1"
         id="rect5861"
         width="988.75659"
         height="423.01587"
         x="-543.38623"
         y="116.91249" />
    </clipPath>
    <clipPath
       clipPathUnits="userSpaceOnUse"
       id="clipPath5863">
      <rect
         style="fill:#ffffff;fill-opacity:1;stroke:#4dc1ce;stroke-width:0;stroke-miterlimit:4;stroke-dasharray:none;stroke-opacity:1"
         id="rect5865"
         width="988.75659"
         height="423.01587"
         x="-543.38623"
         y="116.91249" />
    </clipPath>
    <clipPath
       clipPathUnits="userSpaceOnUse"
       id="clipPath5867">
      <rect
         style="fill:#ffffff;fill-opacity:1;stroke:#4dc1ce;stroke-width:0;stroke-miterlimit:4;stroke-dasharray:none;stroke-opacity:1"
         id="rect5869"
         width="988.75659"
         height="423.01587"
         x="-543.38623"
         y="116.91249" />
    </clipPath>
    <clipPath
       clipPathUnits="userSpaceOnUse"
       id="clipPath5871">
      <rect
         style="fill:#ffffff;fill-opacity:1;stroke:#4dc1ce;stroke-width:0;stroke-miterlimit:4;stroke-dasharray:none;stroke-opacity:1"
         id="rect5873"
         width="988.75659"
         height="423.01587"
         x="-543.38623"
         y="116.91249" />
    </clipPath>
  </defs>
  <sodipodi:namedview
     id="base"
     pagecolor="#d3e6ef"
     bordercolor="#666666"
     borderopacity="1.0"
     inkscape:pageopacity="1"
     inkscape:pageshadow="2"
     inkscape:zoom="1"
     inkscape:cx="308.30819"
     inkscape:cy="299.95057"
     inkscape:document-units="px"
     inkscape:current-layer="layer1"
     showgrid="false"
     units="pt"
     borderlayer="false"
     inkscape:window-width="1853"
     inkscape:window-height="1025"
     inkscape:window-x="67"
     inkscape:window-y="27"
     inkscape:window-maximized="1"
     fit-margin-top="0"
     fit-margin-left="0"
     fit-margin-right="0"
     fit-margin-bottom="0" />
  <metadata
     id="metadata7">
    <rdf:RDF>
      <cc:Work
         rdf:about="">
        <dc:format>image/svg+xml</dc:format>
        <dc:type
           rdf:resource="http://purl.org/dc/dcmitype/StillImage" />
        <dc:title />
      </cc:Work>
    </rdf:RDF>
  </metadata>
  <g
     inkscape:label="Layer 1"
     inkscape:groupmode="layer"
     id="layer1"
     transform="translate(-792.20557,-36.489922)">
    <g
       id="g4222"
       transform="matrix(0.42767273,0,0,0.42767273,595.65628,-41.491012)"
       style="fill:#ffffff;fill-opacity:1"
       inkscape:export-xdpi="77.513992"
       inkscape:export-ydpi="77.513992">
      <path
         id="path3394"
         d="m 610.83014,232.0818 c 28.292,-2.092 60.246,-0.947 92.846,-0.947 29.215,0 67.794,-4.206 88.109,3.79 18.095,7.122 32.394,22.523 29.37,49.265 -1.518,13.418 -10.561,27.648 -15.159,38.844 -15.217,37.058 -32.812,79.412 -47.37,114.636 -22.42,54.242 -73.281,97.021 -149.691,91.9 -41.429,-2.779 -74.371,-23.248 -96.636,-46.424 -23.404,-24.363 -40.738,-57.709 -40.738,-102.32 0,-42.795 17.851,-77.686 40.738,-102.321 22.405,-24.115 54.82,-43.191 98.531,-46.423 m 174.323,36.001 c 2.555,-26.637 -39.369,-29.095 -38.844,-0.947 h 14.211 c -2.135,-12.303 9.656,-12.044 11.369,-3.79 3.631,17.5 -32.326,31.788 -26.527,53.055 13.622,-0.042 27.428,-0.269 39.791,0.947 1.48,-2.172 1.48,-9.196 0,-11.369 h -24.633 c 7.006,-10.561 23.09,-21.807 24.633,-37.896 m -251.064,27.475 c -17.719,18.101 -31.533,40.191 -34.107,72.003 -4.841,59.829 25.983,97.852 58.74,117.479 33.944,20.338 81.501,23.41 119.373,2.842 34.803,-18.899 56.164,-49.133 62.529,-87.161 7.796,-46.582 -13.714,-89.051 -36.949,-109.9 -21.16,-18.987 -52.508,-35.137 -97.583,-30.317 -32.291,3.452 -55.493,18.187 -72.003,35.054"
         style="fill:#ffffff;fill-opacity:1"
         inkscape:connector-curvature="0" />
      <path
         id="path3396"
         d="m 580.51214,291.7678 h 43.581 c 15.314,44.688 33.953,86.053 49.266,130.743 8.193,-1.912 15.589,-4.622 22.737,-7.579 4.533,6.835 5.214,17.524 9.475,24.633 -15.107,7.315 -33.225,11.621 -51.16,16.106 -8.843,-27.16 -20.003,-52.001 -29.37,-78.636 -16.864,22.928 -30.968,48.614 -47.371,72.003 h -32.212 c -0.297,-4.498 3.277,-9.268 5.685,-13.264 18.61,-30.885 40.048,-65.68 58.74,-97.583 -1.638,-7.837 -5.489,-13.46 -7.58,-20.843 h -21.79 v -25.58 z"
         style="fill:#ffffff;fill-opacity:1"
         inkscape:connector-curvature="0" />
    </g>
    <g
       id="g4326"
       style="fill:#ffffff;fill-opacity:1"
       transform="matrix(0.50237562,0,0,0.50237562,1118.2827,24.427318)"
       inkscape:export-xdpi="77.513992"
       inkscape:export-ydpi="77.513992">
      <path
         inkscape:connector-curvature="0"
         style="fill:#ffffff;fill-opacity:1"
         id="_227268128"
         d="m 597.37977,736.59601 c 0,0 -11.9391,7.2672 8.3052,9.34351 24.39671,3.11437 37.37411,2.59576 64.36631,-2.59534 0,0 7.2672,4.67165 17.1297,8.30546 -60.7327,25.9542 -137.55701,-1.5577 -89.80131,-15.0536 z m -7.7864,-33.7402 c 0,0 -12.9769,9.86233 7.2672,11.9386 26.4735,2.59576 47.23681,3.11437 83.05341,-4.15263 0,0 4.6718,5.19089 12.4579,7.78643 -73.19061,21.8016 -155.20601,2.07631 -102.77801,-15.5725 z m 143.26701,59.1754 c 0,0 8.8245,7.26741 -9.8626,12.9769 -34.7787,10.3818 -145.86301,13.4961 -177.00801,0 -10.9006,-4.67144 9.8628,-11.4198 16.6105,-12.4579 6.7482,-1.55708 10.3816,-1.55708 10.3816,-1.55708 -11.9384,-8.30546 -79.4195,17.1295 -34.2595,24.3967 124.06101,20.2443 226.32101,-8.82428 194.13701,-23.3587 z m -129.77101,-94.4732 c 0,0 -56.5799,13.4961 -20.2439,18.1678 15.5725,2.0761 46.19831,1.5575 74.74811,-0.51903 23.3585,-2.07631 46.7176,-6.22894 46.7176,-6.22894 0,0 -8.3055,3.63339 -14.0156,7.26741 -57.6179,15.053 -168.18301,8.30504 -136.51901,-7.26741 26.9923,-12.9773 49.3125,-11.4198 49.3125,-11.4198 z m 101.22201,56.5799 c 58.1372,-30.1069 31.1451,-59.1754 12.4579,-55.5416 -4.6719,1.03805 -6.7482,2.07631 -6.7482,2.07631 0,0 1.5573,-3.11457 5.1907,-4.15263 36.8552,-12.9773 65.9238,38.9309 -11.9384,59.1752 0,0 0.5186,-0.51903 1.038,-1.55729 z m -95.51171,82.0153 c 56.06131,3.63381 141.71001,-2.07631 143.78601,-28.5494 0,0 -4.1525,10.3818 -46.1981,18.1676 -47.7558,8.8247 -106.93101,7.78643 -141.71001,2.07631 0,0 7.267,6.22915 44.122,8.30546 z" />
      <path
         id="path4303"
         d="m 669.01358,496.2604 c 0,0 32.1832,32.7022 -30.6261,82.0153 -50.35121,39.9692 -11.4198,62.8088 0,88.7629 -29.58781,-26.4728 -50.87021,-49.8319 -36.33601,-71.6335 21.2828,-32.1832 79.93901,-47.7554 66.96211,-99.1446 z"
         style="fill:#ffffff;fill-opacity:1"
         inkscape:connector-curvature="0" />
      <path
         id="path4301"
         d="m 652.40308,645.2374 c 15.053,17.1299 -4.1528,32.7026 -4.1528,32.7026 0,0 38.4121,-19.7253 20.7633,-44.1224 -16.0919,-23.3585 -28.5498,-34.7783 38.9311,-73.7098 0,0 -106.41201,26.4735 -55.5416,85.1297 z"
         style="fill:#ffffff;fill-opacity:1"
         inkscape:connector-curvature="0" />
    </g>
    <g
       id="g4475"
       transform="matrix(0.23241453,0,0,0.23241453,1332.8818,14.021094)"
       style="fill:#ffffff;fill-opacity:1"
       inkscape:export-xdpi="77.513992"
       inkscape:export-ydpi="77.513992">
      <path
         id="polygon4403"
         transform="translate(0,52.36223)"
         d="m 78.289062,177.42383 33.011718,370.25781 148.13281,41.12305 148.54297,-41.18164 33.04688,-370.19922 z m 67.498048,75.68555 H 259.5 h 0.15625 113.59766 l -1.08594,12.18359 -2.07031,23.01953 -0.91016,10.20703 H 369.04102 259.65625 259.5 195.41602 l 4.15039,46.50195 H 259.5 h 0.15625 93.16211 12.23633 l -1.10742,12.19336 -10.67188,119.55078 -0.68164,7.67188 -92.9375,25.75781 v 0.008 l -0.20898,0.0586 -93.01954,-25.82422 -6.36328,-71.30078 h 21.00977 24.57617 l 3.23242,36.2168 50.57422,13.65625 0.043,-0.0117 v -0.002 l 50.64648,-13.66992 5.27149,-58.89453 h -55.76172 -0.15625 -101.46484 l -11.16016,-125.13867 -1.08789,-12.18359 z"
         style="fill:#ffffff;fill-opacity:1"
         inkscape:connector-curvature="0" />
      <path
         style="fill:#ffffff;fill-opacity:1"
         id="path4411"
         d="m 112.03808,129.16646 h 23.077 v 22.8 h 21.11 v -22.8 h 23.078 v 69.044 h -23.077 v -23.12 h -21.11 v 23.12 h -23.077 v -69.044 z"
         inkscape:connector-curvature="0" />
      <path
         style="fill:#ffffff;fill-opacity:1"
         id="path4413"
         d="m 209.65008,152.06246 h -20.316 v -22.896 h 63.72 v 22.896 h -20.325 v 46.148 h -23.078 v -46.148 z"
         inkscape:connector-curvature="0" />
      <path
         style="fill:#ffffff;fill-opacity:1"
         id="path4415"
         d="m 263.16708,129.16646 h 24.063 l 14.802,24.26 14.787,-24.26 h 24.072 v 69.044 h -22.982 v -34.222 l -15.877,24.549 h -0.397 l -15.888,-24.549 v 34.222 h -22.58 z"
         inkscape:connector-curvature="0" />
      <path
         style="fill:#ffffff;fill-opacity:1"
         id="path4417"
         d="m 352.37608,129.16646 h 23.084 v 46.222 h 32.453 v 22.822 h -55.537 z"
         inkscape:connector-curvature="0" />
    </g>
    <path
       inkscape:connector-curvature="0"
       d="m 1075.5462,438.15357 c -1.7816,0.18997 -1.1667,1.82886 -2.1584,1.86432 -0.9766,0.0359 -0.7776,-2.08662 2.1584,-1.86432 z m 5.3707,0.27039 c 1.7339,-0.4454 1.743,1.30029 2.6897,0.98261 0.9203,-0.30862 -0.015,-2.21788 -2.6897,-0.98261 z m 59.7546,114.34006 c -5.3558,2.69283 -12.3416,8.67524 -14.954,11.15404 -1.9207,1.83792 -9.9693,2.74959 -14.4405,0.44854 -5.2993,-2.72829 -2.4879,-6.98591 -10.6705,-7.18732 -4.0667,-0.095 -8.0217,-0.13085 -11.9848,-0.0832 -3.5064,0.0473 -7.0095,0.15451 -10.5841,0.34133 -12.2856,0.10682 -13.4876,8.14037 -21.3136,7.84635 -5.356,-0.19865 -12.1157,-4.42355 -23.7243,-6.85506 -8.1581,-1.69839 -15.9902,-2.102 -17.6677,-5.71201 -1.6747,-3.59819 2.0665,-7.63311 2.3156,-11.21948 0.3056,-4.67579 -3.5418,-11.03501 -0.698,-13.49923 2.3483,-2.04012 7.4935,-0.54354 10.81,-2.39604 3.5268,-1.95656 4.943,-3.58636 4.943,-7.88219 1.2975,4.38805 -0.059,8.02448 -2.9746,9.80605 -1.734,1.04803 -4.9581,1.603 -7.6091,1.333 -2.0993,-0.19864 -3.3996,0.14229 -4.0377,0.94163 -0.8135,1.03897 -0.5522,2.856 0.4718,5.27569 1.0303,2.41969 2.2683,3.9545 2.102,6.91457 -0.1663,2.96283 -3.4232,6.48061 -2.9032,8.97163 0.2016,0.95621 1.1425,1.75476 3.399,2.39289 3.741,1.0512 10.4178,2.00424 17.006,3.61001 7.3242,1.79654 14.8859,5.18109 19.5853,4.53075 14.0518,-1.95656 6.0388,-17.02647 3.7649,-20.61009 -11.8607,-18.67126 -19.7042,-30.89384 -25.9835,-26.04264 -1.6388,1.26166 -1.7011,-3.17684 -1.6298,-4.88667 0.2703,-6.13652 3.3877,-8.28345 5.2402,-13.06015 3.4678,-8.94523 6.172,-19.19075 11.5372,-24.48734 3.9931,-5.10936 10.2218,-13.52012 11.4153,-17.95864 -1.0035,-9.65154 -1.3121,-19.81115 -1.467,-28.70869 -0.1514,-9.46472 1.348,-17.76865 12.0361,-23.57567 2.6065,-1.41618 5.9938,-1.93566 9.5833,-1.97114 6.4184,-0.0713 13.4961,1.7248 18.0178,5.07665 7.2086,5.34389 11.739,16.71786 11.2104,24.89725 -0.4276,6.29694 0.7067,12.89658 2.7256,19.68069 2.4165,8.0572 6.2405,13.72193 12.3148,20.1643 7.3208,7.76357 13.0183,23.05934 14.6218,32.74675 1.5111,9.04928 -0.4573,14.64266 -2.4434,14.92447 -2.9569,0.43633 -4.8007,9.8297 -14.0637,9.39338 -5.9111,-0.28497 -6.4901,-3.77634 -8.1285,-6.751 -2.6338,-4.7562 -5.3117,-3.26868 -6.3864,1.68932 -0.555,2.53518 -0.1514,6.172 0.6621,9.0016 1.6508,5.79518 1.0839,11.29317 0.098,17.95825 -1.8911,12.79292 8.9393,15.2126 16.2457,9.13245 7.2086,-6.0029 8.7524,-6.95911 17.8758,-10.07329 13.7574,-4.71167 9.1352,-8.87704 1.7366,-11.36491 -6.6323,-2.2297 -6.9054,-13.43736 -4.5303,-15.55117 0.5285,12.03575 6.7927,13.78143 9.4501,15.42346 11.3814,7.06474 -4.3002,12.85993 -10.9739,16.22085 z m -30.6357,-35.25511 c 1.2526,-1.48713 2.7283,-1.65346 4.6727,-1.68933 0.2967,-7.33591 11.7181,-6.79553 15.4589,-3.72589 0,-1.70076 -3.5891,-3.22415 -5.0262,-3.94268 2.4907,-8.28306 1.3212,-11.61126 -0.3295,-19.43434 -1.253,-5.97019 -6.6923,-14.00414 -10.9522,-16.51843 1.0748,0.94084 3.1173,3.68137 5.2757,7.70091 3.7172,6.92048 7.3863,17.14827 4.943,25.73718 -0.9409,3.28051 -3.0905,3.69358 -4.5659,3.85952 -6.5495,0.68267 -2.6991,-7.73993 -5.4183,-19.34211 -3.0282,-12.89698 -6.1338,-13.86462 -6.9142,-14.87679 -3.7527,-16.78013 -7.9271,-15.10539 -9.1084,-21.44095 -1.0598,-5.6056 4.8863,-10.24237 -3.1977,-11.81031 -2.4643,-0.48401 -5.9907,-2.98371 -7.3982,-3.16187 -1.3926,-0.18997 -2.0756,-9.25108 3.0338,-9.61922 5.1093,-0.3772 6.086,5.77153 5.0829,8.19122 -1.452,2.39604 0.1068,3.29233 2.6333,2.51191 2.0666,-0.63536 0.7335,-6.01826 1.2263,-6.81642 -1.3332,-7.7072 -4.5513,-8.81752 -7.9032,-9.46471 -12.7215,0.9767 -7.0095,15.06715 -8.298,13.7101 -1.802,-1.91203 -7.2204,-0.10681 -7.1936,-1.33301 0.1159,-7.18496 -2.292,-11.34994 -5.6083,-11.43626 -3.6932,-0.10682 -5.2161,5.06522 -5.4392,7.97719 -0.2109,2.7969 1.6629,8.62479 3.0309,8.1794 0.8967,-0.29679 2.4315,-2.09885 0.7899,-2.09017 -0.849,0.0118 -2.1315,-1.98022 -2.2651,-4.40304 -0.1277,-2.41654 0.7571,-4.84805 3.8953,-4.72035 3.6813,0.14269 3.6455,7.33316 3.2446,7.61221 -1.1785,0.81629 -2.6897,2.39879 -2.8528,2.66879 -1.1699,1.95972 -3.5182,2.44334 -4.379,3.30455 -1.6388,1.63848 -1.9715,3.491 -0.7425,4.20086 4.2101,2.41653 2.8413,5.1062 8.7315,5.3557 3.8682,0.15174 6.7809,-0.60265 9.4143,-1.40712 2.0515,-0.62039 8.6393,-2.02475 10.0286,-4.44402 0.6028,-1.02717 1.3599,-1.06303 1.8644,-0.769 0.8845,0.51042 1.0748,2.22063 -1.2026,2.83236 -3.2568,0.88487 -6.5464,2.6215 -9.4292,3.77635 -2.8768,1.16668 -3.7972,1.61522 -6.5109,2.11382 -6.1161,1.09535 -10.6314,-2.20882 -6.5283,1.75753 1.3598,1.32157 2.6687,2.14653 6.1869,2.00424 7.7044,-0.30586 16.3375,-9.55694 17.1897,-5.41522 0.1781,0.849 -2.4402,2.00386 -4.4828,3.01919 -7.223,3.55404 -12.3087,10.57227 -16.9345,8.14352 -4.1386,-2.18201 -8.2562,-12.44843 -8.1852,-7.84949 0.1158,7.09232 -9.3493,13.40464 -4.9939,21.47683 -2.8202,0.76858 -9.2511,14.3364 -10.1742,21.40232 -0.5045,4.0018 0.3835,9.02839 -0.5758,11.8371 -1.3926,4.05856 -7.7159,-3.86857 -5.6975,-13.58279 0.3626,-1.71021 0.057,-2.07244 -0.4008,-1.24709 -2.5707,4.54258 -1.158,10.87853 0.8698,15.32572 0.888,1.92385 2.9632,2.77285 4.4977,4.48583 3.3132,3.705 15.9907,13.10783 18.2885,15.36118 2.7843,2.73698 2.0038,9.01617 -3.9162,9.61607 3.034,5.72385 5.991,6.26699 5.9464,15.62528 3.4322,-1.84383 2.0516,-5.87559 0.6149,-8.53255 -1.0036,-1.81664 -2.3156,-2.64199 -2.0307,-3.06649 0.2141,-0.32045 1.9803,-1.84068 3.0433,-0.65035 3.1264,3.50361 9.0284,4.13029 15.3757,3.34043 6.3356,-0.80446 13.1315,-3.0192 16.2725,-8.06944 1.4726,-2.37238 2.5355,-3.21231 3.2183,-2.79688 0.674,0.4245 0.9679,2.09885 0.8962,4.78852 -0.08,2.98647 -1.3298,6.08883 -2.1079,8.56803 -0.8762,2.80871 -1.1459,4.80074 1.5912,4.90757 0.8136,-5.19293 2.2419,-10.3023 2.6542,-15.46763 0.4615,-5.87677 -3.7956,-16.81679 0.7914,-22.26748 z m -38.8327,-83.43716 c -0.2109,1.15802 -0.1277,1.87931 0.674,1.87931 0.1305,0 0.2699,-0.0267 0.3204,-0.32044 0.3858,-2.30105 -0.8045,-3.97539 -1.2889,-4.10901 -1.1308,-0.28222 -0.9885,1.33301 -0.4008,1.20531 0.3563,-0.0718 0.8376,0.51909 0.6953,1.34483 z m 20.9123,-3.16187 c -1.158,0.10682 -0.8253,0.68267 -0.2494,0.849 0.7539,0.22546 1.4638,1.50802 1.627,2.9037 0.012,0.12771 0.9676,-0.2018 0.9676,-0.50766 0.072,-2.23286 -1.8407,-3.28997 -2.3452,-3.24504 z"
       id="path4996"
       style="fill:#ffffff;fill-opacity:1"
       inkscape:export-xdpi="77.513992"
       inkscape:export-ydpi="77.513992" />
    <g
       id="g5920"
       transform="matrix(0.44508829,0,0,0.44508829,1051.5587,301.98109)"
       style="fill:#ffffff;fill-opacity:1"
       inkscape:export-xdpi="77.513992"
       inkscape:export-ydpi="77.513992">
      <path
         inkscape:connector-curvature="0"
         id="rect5905"
         d="m 225.48957,599.25285 c -11.08,0 -20,7.32245 -20,16.41797 v 109.0293 c 0,9.09552 8.92,16.41797 20,16.41797 h 192.14258 c 11.08,0 20,-7.32245 20,-16.41797 v -109.0293 c 0,-9.09552 -8.92,-16.41797 -20,-16.41797 z m 96.07227,30.52344 a 40.410053,40.410053 0 0 1 40.41015,40.41016 40.410053,40.410053 0 0 1 -40.41015,40.41016 40.410053,40.410053 0 0 1 -40.41016,-40.41016 40.410053,40.410053 0 0 1 40.41016,-40.41016 z"
         style="fill:#ffffff;fill-opacity:1;stroke:#4dc1ce;stroke-width:0;stroke-miterlimit:4;stroke-dasharray:none;stroke-opacity:1" />
      <rect
         inkscape:transform-center-y="1.4002255"
         inkscape:transform-center-x="0.85978837"
         ry="12.808989"
         rx="20"
         y="575.17975"
         x="269.11377"
         height="49.007938"
         width="104.89418"
         id="rect5907"
         style="fill:#ffffff;fill-opacity:1;stroke:#4dc1ce;stroke-width:0;stroke-miterlimit:4;stroke-dasharray:none;stroke-opacity:1" />
      <circle
         r="27.966261"
         cy="670.18549"
         cx="321.56085"
         id="path5916"
         style="fill:#ffffff;fill-opacity:1;stroke:#4dc1ce;stroke-width:0;stroke-miterlimit:4;stroke-dasharray:none;stroke-opacity:1" />
    </g>
    <path
       style="color:#000000;fill:#ffffff;fill-opacity:1;enable-background:accumulate"
       d="m 437.0904,240.12163 c -24.17722,34.39864 -32.88484,67.49817 -34.19436,106.2587 7.97786,-7.7753 33.37336,-38.71669 42.43314,-40.51523 6.0456,-1.20045 11.3621,6.09392 23.9216,30.00247 -3.0546,-33.6196 -17.024,-73.72603 -32.16038,-95.74596 z"
       sodipodi:nodetypes="ccscc"
       inkscape:connector-curvature="0"
       id="path6014"
       inkscape:export-xdpi="77.513992"
       inkscape:export-ydpi="77.513992" />
    <g
       id="g6126"
       transform="matrix(0.35850746,0,0,0.35850746,923.48791,13.96185)"
       style="fill:#ffffff;fill-opacity:1"
       inkscape:export-xdpi="77.513992"
       inkscape:export-ydpi="77.513992">
      <path
         id="path6033"
         transform="translate(0,52.36223)"
         d="m 323.28125,348.29102 a 92.85714,92.85714 0 0 0 -92.85742,92.85742 92.85714,92.85714 0 0 0 92.85742,92.85547 92.85714,92.85714 0 0 0 92.85547,-92.85547 92.85714,92.85714 0 0 0 -92.85547,-92.85742 z m 0.0742,44.82812 a 16.035002,16.035002 0 0 1 16.03515,16.03516 16.035002,16.035002 0 0 1 -16.03515,16.03515 16.035002,16.035002 0 0 1 -16.0332,-16.03515 16.035002,16.035002 0 0 1 16.0332,-16.03516 z m -31.91797,32.07031 a 16.035002,16.035002 0 0 1 16.03516,16.03321 16.035002,16.035002 0 0 1 -16.03516,16.03515 16.035002,16.035002 0 0 1 -16.0332,-16.03515 16.035002,16.035002 0 0 1 16.0332,-16.03321 z m 63.68555,0 a 16.035002,16.035002 0 0 1 16.03515,16.03321 16.035002,16.035002 0 0 1 -16.03515,16.03515 16.035002,16.035002 0 0 1 -16.03516,-16.03515 16.035002,16.035002 0 0 1 16.03516,-16.03321 z m -31.76758,31.91797 a 16.035002,16.035002 0 0 1 16.03515,16.03516 16.035002,16.035002 0 0 1 -16.03515,16.0332 16.035002,16.035002 0 0 1 -16.0332,-16.0332 16.035002,16.035002 0 0 1 16.0332,-16.03516 z"
         style="fill:#ffffff;fill-opacity:1;stroke:#4dc1ce;stroke-width:0;stroke-miterlimit:4;stroke-dasharray:none;stroke-opacity:1"
         inkscape:connector-curvature="0" />
      <path
         id="circle6035"
         transform="translate(0,52.36223)"
         d="m 91.998047,348.29102 a 92.85714,92.85714 0 0 0 -92.857422,92.85742 92.85714,92.85714 0 0 0 92.857422,92.85547 92.85714,92.85714 0 0 0 92.855473,-92.85547 92.85714,92.85714 0 0 0 -92.855473,-92.85742 z m -15.978516,44.92382 h 31.955079 v 31.95508 h 31.95508 V 457.125 h -31.95508 v 31.95508 H 76.019531 V 457.125 H 44.064453 v -31.95508 h 31.955078 z"
         style="fill:#ffffff;fill-opacity:1;stroke:#4dc1ce;stroke-width:0;stroke-miterlimit:4;stroke-dasharray:none;stroke-opacity:1"
         inkscape:connector-curvature="0" />
      <path
         style="fill:#ffffff;fill-opacity:1;stroke:#4dc1ce;stroke-width:0;stroke-miterlimit:4;stroke-dasharray:none;stroke-opacity:1"
         d="M 91.422991,400.65275 H 324.81139 v 34.89491 H 91.422991 Z"
         id="rect6039"
         inkscape:connector-curvature="0" />
      <path
         inkscape:connector-curvature="0"
         id="path6116"
         d="M 147.30924,400.65276 H 265.48598 V 559.35718 H 147.30924 Z"
         style="fill:#ffffff;fill-opacity:1;stroke:#4dc1ce;stroke-width:0;stroke-miterlimit:4;stroke-dasharray:none;stroke-opacity:1" />
    </g>
    <g
       transform="matrix(0.50374709,0,0,0.50374709,1253.0775,11.926346)"
       id="g6188"
       style="fill:#ffffff;fill-opacity:1"
       inkscape:export-xdpi="77.513992"
       inkscape:export-ydpi="77.513992">
      <g
         id="g6226"
         transform="matrix(0.40029649,0,0,0.40029649,-51.805373,72.247839)"
         style="fill:#ffffff;fill-opacity:1">
        <path
           id="path6190"
           d="m 422.953,176.019 c 0.549,-0.48 1.09,-0.975 1.612,-1.498 l 21.772,-21.772 c 12.883,-12.883 12.883,-33.771 0,-46.654 L 405.903,65.661 c -12.883,-12.883 -33.771,-12.883 -46.653,0 l -21.772,21.772 c -0.523,0.523 -1.018,1.064 -1.498,1.613 z"
           inkscape:connector-curvature="0"
           style="fill:#ffffff;fill-opacity:1" />
        <polygon
           id="polygon6192"
           points="157.317,440.684 106.658,448.342 56,456 63.658,405.341 71.316,354.683 114.317,397.684 "
           style="fill:#ffffff;fill-opacity:1" />
        <polygon
           id="polygon6194"
           points="411.348,187.74 349.143,125.535 118.982,355.694 106.541,343.253 336.701,113.094 324.26,100.653 81.659,343.253 168.747,430.341 "
           style="fill:#ffffff;fill-opacity:1" />
      </g>
    </g>
    <path
       style="fill:none;fill-opacity:1;fill-rule:evenodd;stroke:#ffffff;stroke-width:22.50658226;stroke-linecap:round;stroke-linejoin:round;stroke-miterlimit:4;stroke-dasharray:none;stroke-opacity:1"
       d="m 991.94271,87.167362 c 0,0 24.00759,-2.323983 40.46269,24.317528 4.1858,6.77702 17.9081,-65.027227 60.1959,-1.79391 9.3261,13.94547 15.3566,-22.254962 24.7162,-33.486438 5.9797,-7.175666 27.5067,3.189183 27.5067,3.189183"
       id="path6264"
       inkscape:connector-curvature="0"
       sodipodi:nodetypes="csssc"
       inkscape:export-xdpi="77.513992"
       inkscape:export-ydpi="77.513992" />
    <g
       id="g6316"
       transform="matrix(0.60602963,-0.20592562,0.20592562,0.60602963,1113.9354,-132.75936)"
       style="fill:#ffffff;fill-opacity:1"
       inkscape:export-xdpi="77.513992"
       inkscape:export-ydpi="77.513992">
      <path
         id="path6270"
         transform="translate(0,52.36223)"
         d="m 210.18945,543.43359 a 77.150235,77.150235 0 0 0 -77.15039,77.15039 77.150235,77.150235 0 0 0 0.74414,9.99024 128.12804,20.39458 0 0 0 85.4336,5.24805 128.12804,20.39458 0 0 0 67.05664,-3.02735 77.150235,77.150235 0 0 0 1.0664,-12.21094 77.150235,77.150235 0 0 0 -77.15039,-77.15039 z m -74.82031,95.64258 a 77.150235,77.150235 0 0 0 74.82031,58.65821 77.150235,77.150235 0 0 0 74.4336,-57.20508 170.83737,27.192772 0 0 1 -65.40625,2.08984 170.83737,27.192772 0 0 1 -83.84766,-3.54297 z"
         style="fill:#ffffff;fill-opacity:1;stroke:none;stroke-width:21.63400078;stroke-linecap:round;stroke-linejoin:round;stroke-miterlimit:4;stroke-dasharray:none;stroke-opacity:1"
         inkscape:connector-curvature="0" />
      <path
         inkscape:connector-curvature="0"
         id="path6272"
         d="M 210.19047,645.75351 A 170.83737,27.192772 0 0 0 39.352579,672.94669 170.83737,27.192772 0 0 0 210.19047,700.13986 170.83737,27.192772 0 0 0 381.02641,672.94669 170.83737,27.192772 0 0 0 210.19047,645.75351 Z m 0,6.79761 A 128.12804,20.39458 0 0 1 338.31742,672.94669 128.12804,20.39458 0 0 1 210.19047,693.34225 128.12804,20.39458 0 0 1 82.061563,672.94669 128.12804,20.39458 0 0 1 210.19047,652.55112 Z"
         style="fill:#ffffff;fill-opacity:1;stroke:none;stroke-width:21.63400078;stroke-linecap:round;stroke-linejoin:round;stroke-miterlimit:4;stroke-dasharray:none;stroke-opacity:1" />
    </g>
    <g
       id="g4840"
       transform="matrix(0.20613165,0,0,0.20613165,1330.3789,467.22534)">
      <path
         id="path4833"
         d="m 391.13321,53.090803 c -11.11573,24.768918 -10.00316,22.540467 -11.11573,24.768918 -17.6929,35.438249 -47.44321,64.318779 -81.04431,78.676759 -4.2304,1.80766 -14.56625,5.59554 -22.96875,8.41735 -22.80549,7.6588 -45.15298,15.79147 -82.77649,30.12086 -12.28759,4.67989 -51.51754,20.40729 -66.09375,26.49719 -7.99219,3.33912 -18.04506,7.50312 -22.33886,9.25414 -4.2937,1.75103 -8.926593,3.76953 -10.29419,4.48609 l -2.486578,1.30372 3.262941,1.95373 c 1.794206,1.07468 16.551997,9.92316 32.794187,19.66369 16.2422,9.74055 29.66312,17.59596 29.82422,17.45728 0.1611,-0.13868 -1.61741,-4.05388 -3.95141,-8.70118 l -4.24439,-8.44848 10.51392,-3.71521 c 50.8332,-17.95479 117.32146,-37.76787 151.60766,-45.17944 36.1764,-7.82018 78.2413,-10.17242 116.25,-6.50208 37.5126,3.62244 93.78635,18.37185 174.84375,45.82764 26.2765,8.90042 27.65625,9.39804 27.65625,9.98657 0,0.21408 -1.6875,3.7458 -3.75,7.8479 -2.0625,4.10211 -3.75,7.85871 -3.75,8.34778 0,0.75243 62.79738,-36.26868 64.96398,-38.29834 0.41081,-0.38477 -5.0736,-3.14658 -12.1875,-6.13769 -20.2179,-8.50089 -54.62429,-22.5039 -70.58898,-28.72742 -7.9922,-3.11558 -18.1172,-7.07637 -22.5,-8.80371 -19.5763,-7.71539 -57.75235,-21.57827 -77.34375,-28.08471 -24.7811,-8.22996 -36.76495,-13.96067 -52.03125,-24.88221 -24.01359,-17.17933 -48.94472,-57.905819 -62.25097,-87.129147 z"
         style="fill:#ffffff;fill-opacity:1;stroke:none;stroke-width:0.9375;stroke-opacity:1"
         inkscape:connector-curvature="0"
         sodipodi:nodetypes="ccccssccccsscccsscssscccssccc" />
      <path
         id="path4829"
         d="m 693.79983,244.45091 c -0.1565,-0.17848 -10.33296,5.273 -22.61536,12.11609 -12.2825,6.84307 -25.91749,14.4139 -30.30029,16.82373 -11.5254,6.33708 -14.13345,8.03153 -13.43445,8.73047 0.3419,0.3419 4.32346,0.62255 8.84765,0.62255 4.5243,0 8.44935,0.36261 8.72315,0.80567 0.8498,1.37507 -9.50905,52.67534 -17.82166,88.25683 -14.7744,63.24088 -24.05192,92.35997 -39.24682,123.18421 -25.3827,51.4911 -44.36031,76.2995 -98.9685,129.38415 -21.2244,20.63225 -80.8288,74.49159 -83.443,75.39917 -0.4918,0.17071 -3.11225,-3.17722 -5.82275,-7.43957 l -4.92737,-7.75086 -0.30945,8.84582 c -0.61299,17.57995 0.92258,67.45817 2.05628,66.78589 0.5853,-0.34708 5.28447,-3.80698 10.44067,-7.6886 51.96201,-39.11693 94.79142,-73.88358 151.08032,-122.63855 23.7778,-20.59527 51.15745,-32.84875 83.48145,-37.36083 13.11019,-1.83005 44.49835,-1.37715 54.89135,0.79101 3.4804,0.72609 6.32813,0.99879 6.32813,0.60608 0,-0.39271 -1.92368,-2.96375 -4.27368,-5.71289 -12.4893,-14.61009 -25.18303,-37.7461 -31.74133,-57.85034 -5.2374,-16.05503 -7.06715,-26.14707 -7.76185,-42.83021 -0.655,-15.73292 0.56038,-28.66166 4.44397,-47.28698 6.6888,-32.0792 18.43488,-103.07821 23.37708,-141.297 1.0524,-8.13841 3.12187,-23.65611 4.59778,-34.48425 1.476,-10.82811 2.55508,-19.8331 2.39868,-20.01159 z"
         style="fill:#ffffff;fill-opacity:1;stroke:none;stroke-width:0.9375;stroke-opacity:1"
         inkscape:connector-curvature="0" />
      <path
         id="rect4821"
         d="m 87.094515,245.24375 c -0.7506,0 -1.00996,0.91571 -0.728766,2.57813 0.239803,1.41796 1.930294,14.17968 3.755494,28.35937 7.0671,54.90344 17.591647,120.92294 25.385747,159.24682 4.2729,21.01006 5.96557,33.94777 5.96557,45.59693 0,36.00069 -14.19074,75.47176 -37.360833,103.91784 -2.8923,3.55091 -5.87685,7.30719 -6.630253,8.34778 -1.258697,1.73828 -1.22055,1.84487 0.46875,1.30921 5.7783,-1.83224 22.375316,-3.4082 35.938116,-3.41309 30.9558,-0.0112 57.58422,6.56267 81.78222,20.18921 11.6615,6.5669 18.10157,11.35054 34.11987,25.35095 35.74461,31.24181 76.58935,64.61315 120.46875,98.42651 29.022,22.36426 33.29915,25.6077 33.84705,25.66041 0.3116,0.03 0.87563,-16.85495 1.25243,-37.52198 0.37691,-20.66703 0.49768,-37.76231 0.26917,-37.99072 -0.22839,-0.22843 -2.6376,2.96869 -5.354,7.10632 -2.7165,4.13763 -5.14442,7.52381 -5.39612,7.52381 -1.0292,0 -44.34828,-38.30303 -62.58728,-55.33997 -60.6301,-56.63432 -85.14377,-84.95053 -105.48156,-121.84753 -2.7,-4.89844 -5.64842,-9.96094 -6.55152,-11.25 -2.2041,-3.14628 -9.62386,-18.0265 -14.21997,-28.51868 -11.9062,-27.18009 -20.92802,-57.49976 -34.05762,-114.45007 -8.9112,-38.65255 -17.96231,-83.60271 -17.02331,-84.54162 0.2143,-0.21436 4.55303,-0.68854 9.64234,-1.05469 l 9.25414,-0.6665 -6.5625,-3.84339 c -3.6093,-2.1144 -10.7812,-6.19138 -15.9375,-9.06005 -5.1562,-2.8687 -16.96275,-9.46969 -26.23534,-14.66675 -9.272704,-5.19707 -17.382782,-9.44825 -18.023075,-9.44825 z"
         style="fill:#ffffff;fill-opacity:1;stroke:none;stroke-width:0.9375;stroke-opacity:1"
         inkscape:connector-curvature="0" />
    </g>
    <g
       id="g4859"
       transform="matrix(-0.61204503,0,0,0.6311448,1960.4824,353.4182)">
      <g
         id="g138"
         transform="translate(-18.381,1.485396)">
        <circle
           style="fill:#ffffff;fill-opacity:1;stroke:none;stroke-width:1.41908622;stroke-opacity:1"
           id="path4842"
           cx="1722.7009"
           cy="143.95638"
           r="56.0788" />
        <circle
           style="fill:#ffffff;fill-opacity:1;stroke:none;stroke-width:0.91361123;stroke-opacity:1"
           id="path4844"
           cx="1805.1708"
           cy="118.69616"
           r="61.653961" />
        <circle
           style="fill:#ffffff;fill-opacity:1;stroke:none;stroke-width:0.83232862;stroke-opacity:1"
           id="path4846"
           cx="1878.2882"
           cy="156.21112"
           r="43.01207" />
        <rect
           style="fill:#ffffff;fill-opacity:1;stroke:none;stroke-width:1.13696742;stroke-opacity:1"
           id="rect4848"
           width="210.03458"
           height="60.416237"
           x="1673.6941"
           y="139.60312" />
        <circle
           r="42.945889"
           cy="157.18288"
           cx="1669.3296"
           id="circle4850"
           style="fill:#ffffff;fill-opacity:1;stroke:none;stroke-width:1.08675504;stroke-opacity:1" />
      </g>
    </g>
    <g
       aria-label="const Graphic&amp; background 
    = icons.Get();"
       transform="rotate(90)"
       style="font-style:normal;font-weight:normal;font-size:28.3523407px;line-height:1.25;font-family:sans-serif;letter-spacing:0px;word-spacing:0px;fill:#000000;fill-opacity:1;stroke:none;stroke-width:0.70880848"
       id="text8028">
      <path
         d="m 284.88218,-1287.3491 q 0,-1.4459 0.45363,-2.7218 0.45364,-1.2759 1.38927,-2.2115 0.93563,-0.964 2.35324,-1.5027 1.44597,-0.567 3.43064,-0.567 1.1908,0 2.15477,0.1701 0.96398,0.1701 1.95632,0.5671 l -0.76552,2.8068 q -0.56704,-0.1984 -1.27585,-0.3402 -0.68046,-0.1701 -1.75785,-0.1701 -1.2475,0 -2.09807,0.3119 -0.82222,0.2835 -1.33256,0.8222 -0.51034,0.5103 -0.73716,1.2475 -0.22682,0.7372 -0.22682,1.5877 0,1.8429 1.02068,2.892 1.04904,1.049 3.54405,1.049 0.82221,0 1.70114,-0.1134 0.90727,-0.1134 1.64443,-0.3686 l 0.51034,2.8636 q -0.73716,0.2835 -1.78619,0.4536 -1.04904,0.1985 -2.46666,0.1985 -2.04136,0 -3.51569,-0.5387 -1.44597,-0.5387 -2.38159,-1.4743 -0.93563,-0.9356 -1.38927,-2.2115 -0.42528,-1.2759 -0.42528,-2.7502 z"
         style="font-style:normal;font-variant:normal;font-weight:bold;font-stretch:normal;font-family:'Ubuntu Mono';-inkscape-font-specification:'Ubuntu Mono Bold';fill:#ffffff;stroke-width:0.70880848"
         id="path108" />
      <path
         d="m 311.19315,-1287.3774 q 0,1.5877 -0.45364,2.8919 -0.45364,1.2759 -1.27585,2.2115 -0.82222,0.9356 -1.98467,1.446 -1.13409,0.5103 -2.55171,0.5103 -1.41762,0 -2.58006,-0.5103 -1.13409,-0.5104 -1.98466,-1.446 -0.82222,-0.9356 -1.27586,-2.2115 -0.45364,-1.3042 -0.45364,-2.8919 0,-1.5594 0.45364,-2.8353 0.48199,-1.3042 1.30421,-2.2114 0.85057,-0.9357 2.01301,-1.4177 1.16245,-0.5103 2.52336,-0.5103 1.38927,0 2.52336,0.5103 1.16245,0.482 1.98466,1.4177 0.85057,0.9072 1.30421,2.2114 0.45364,1.2759 0.45364,2.8353 z m -9.01605,0.028 q 0,1.7862 0.62376,2.892 0.6521,1.1057 2.06972,1.1057 1.36091,0 2.04137,-1.1057 0.7088,-1.1058 0.7088,-2.892 0,-1.7862 -0.6521,-2.8636 -0.62375,-1.1057 -2.04137,-1.1057 -1.36091,0 -2.06972,1.1057 -0.68046,1.0774 -0.68046,2.8636 z"
         style="font-style:normal;font-variant:normal;font-weight:bold;font-stretch:normal;font-family:'Ubuntu Mono';-inkscape-font-specification:'Ubuntu Mono Bold';fill:#ffffff;stroke-width:0.70880848"
         id="path110" />
      <path
         d="m 313.77321,-1293.5866 q 0.93563,-0.2552 2.29654,-0.482 1.38927,-0.2268 3.00535,-0.2268 1.58773,0 2.63677,0.4536 1.04903,0.4253 1.64443,1.2475 0.62375,0.7939 0.87893,1.928 0.25517,1.1057 0.25517,2.4667 v 7.5133 h -3.48734 v -7.0597 q 0,-1.8713 -0.42529,-2.6935 -0.42528,-0.8222 -1.72949,-0.8222 -0.39693,0 -0.79386,0.028 -0.36858,0.028 -0.79387,0.085 v 10.462 h -3.48734 z"
         style="font-style:normal;font-variant:normal;font-weight:bold;font-stretch:normal;font-family:'Ubuntu Mono';-inkscape-font-specification:'Ubuntu Mono Bold';fill:#ffffff;stroke-width:0.70880848"
         id="path112" />
      <path
         d="m 332.62752,-1283.323 q 1.27585,0 1.95631,-0.1702 0.68046,-0.1984 0.68046,-0.7655 0,-0.3686 -0.22682,-0.6237 -0.19847,-0.2552 -0.5954,-0.4253 -0.36858,-0.1985 -0.87892,-0.3686 -0.48199,-0.1701 -1.02069,-0.3402 -0.76551,-0.2268 -1.55938,-0.5104 -0.79386,-0.3118 -1.44597,-0.7655 -0.6521,-0.4536 -1.07739,-1.1341 -0.42528,-0.7088 -0.42528,-1.7578 0,-0.8506 0.31188,-1.5877 0.34022,-0.7656 1.02068,-1.3326 0.70881,-0.5954 1.7862,-0.9073 1.07739,-0.3402 2.58006,-0.3402 1.30421,0 2.40995,0.1985 1.13409,0.1984 1.95631,0.567 l -0.53869,2.9486 q -0.48199,-0.1417 -1.50268,-0.4536 -1.02068,-0.3402 -2.29654,-0.3402 -1.33256,0 -1.81455,0.3402 -0.45363,0.3119 -0.45363,0.6805 0,0.3118 0.19846,0.567 0.22682,0.2268 0.56705,0.4253 0.36858,0.1985 0.82222,0.3969 0.48199,0.1701 1.02068,0.3403 0.76551,0.2551 1.58773,0.567 0.82222,0.3119 1.47432,0.7939 0.68046,0.4536 1.10574,1.1908 0.42529,0.7088 0.42529,1.7578 0,0.8222 -0.31188,1.5594 -0.31187,0.7372 -1.04903,1.2759 -0.70881,0.5386 -1.87126,0.8505 -1.16244,0.3119 -2.86358,0.3119 -1.7295,0 -2.94865,-0.3969 -1.21915,-0.397 -1.95631,-0.7088 l 0.5387,-2.9203 q 0.99233,0.3969 2.09807,0.7371 1.13409,0.3403 2.29654,0.3403 z"
         style="font-style:normal;font-variant:normal;font-weight:bold;font-stretch:normal;font-family:'Ubuntu Mono';-inkscape-font-specification:'Ubuntu Mono Bold';fill:#ffffff;stroke-width:0.70880848"
         id="path114" />
      <path
         d="m 344.39374,-1291.1199 h -3.0337 v -2.892 h 3.0337 v -3.3456 l 3.48734,-0.567 v 3.9126 h 5.58541 v 2.892 h -5.58541 v 5.3869 q 0,0.7372 0.14176,1.1908 0.14176,0.4536 0.39693,0.7088 0.25517,0.2552 0.62375,0.3402 0.36858,0.085 0.82222,0.085 0.48199,0 0.87892,-0.028 0.42529,-0.028 0.79387,-0.085 0.39693,-0.085 0.79387,-0.2268 0.42528,-0.1418 0.90727,-0.3686 l 0.48199,3.0053 q -0.96398,0.397 -2.09807,0.5671 -1.10574,0.1701 -2.15478,0.1701 -1.21915,0 -2.15478,-0.1985 -0.93563,-0.1984 -1.58773,-0.7655 -0.6521,-0.567 -0.99233,-1.5877 -0.34023,-1.0491 -0.34023,-2.7218 z"
         style="font-style:normal;font-variant:normal;font-weight:bold;font-stretch:normal;font-family:'Ubuntu Mono';-inkscape-font-specification:'Ubuntu Mono Bold';fill:#ffffff;stroke-width:0.70880848"
         id="path116" />
      <path
         d="m 377.53763,-1295.5996 q -1.24751,0 -2.09808,0.4536 -0.85057,0.4537 -1.41761,1.2759 -0.5387,0.7938 -0.79387,1.9279 -0.22682,1.1058 -0.22682,2.4667 0,3.1471 0.99233,4.6498 0.99234,1.4743 2.92029,1.4743 0.31188,0 0.68046,-0.028 0.36858,-0.028 0.68046,-0.085 v -6.4076 h 3.48734 v 8.7608 q -0.62376,0.2269 -1.95632,0.5104 -1.3042,0.2835 -3.17546,0.2835 -1.64443,0 -2.97699,-0.567 -1.30421,-0.5954 -2.23984,-1.7295 -0.93563,-1.1625 -1.44597,-2.8636 -0.51034,-1.7295 -0.51034,-3.9977 0,-2.2398 0.5954,-3.941 0.5954,-1.7295 1.61608,-2.8919 1.02069,-1.1625 2.40995,-1.7295 1.38927,-0.5954 2.977,-0.5954 1.02068,0 1.81455,0.1701 0.82221,0.1418 1.41761,0.3402 0.5954,0.1985 0.96398,0.4253 0.39694,0.2268 0.5954,0.3402 l -0.90727,2.7786 q -0.62375,-0.397 -1.53103,-0.7088 -0.90727,-0.3119 -1.87125,-0.3119 z"
         style="font-style:normal;font-variant:normal;font-weight:bold;font-stretch:normal;font-family:'Ubuntu Mono';-inkscape-font-specification:'Ubuntu Mono Bold';fill:#ffffff;stroke-width:0.70880848"
         id="path118" />
      <path
         d="m 395.25784,-1290.4678 q -0.34023,-0.085 -0.82222,-0.1702 -0.45364,-0.085 -0.93563,-0.1417 -0.48199,-0.085 -0.93562,-0.1134 -0.45364,-0.028 -0.76552,-0.028 -0.73716,0 -1.44597,0.085 -0.7088,0.057 -1.44596,0.2552 v 9.8949 h -3.5157 v -12.4467 q 1.38927,-0.5103 2.83524,-0.8222 1.47432,-0.3119 3.43063,-0.3119 0.28353,0 0.79387,0.028 0.53869,0.028 1.13409,0.1134 0.5954,0.057 1.1908,0.1701 0.62375,0.085 1.10574,0.2552 z"
         style="font-style:normal;font-variant:normal;font-weight:bold;font-stretch:normal;font-family:'Ubuntu Mono';-inkscape-font-specification:'Ubuntu Mono Bold';fill:#ffffff;stroke-width:0.70880848"
         id="path120" />
      <path
         d="m 404.16047,-1283.1813 q 0.56705,0 1.10575,0 0.53869,-0.028 0.93562,-0.085 v -3.0621 q -0.34023,-0.057 -0.82221,-0.085 -0.48199,-0.057 -0.87893,-0.057 -0.53869,0 -1.04903,0.085 -0.51035,0.057 -0.90728,0.2268 -0.36858,0.1701 -0.5954,0.482 -0.22682,0.3119 -0.22682,0.8222 0,0.9073 0.68046,1.3042 0.68046,0.3686 1.75784,0.3686 z m -0.31187,-11.1708 q 1.64443,0 2.72182,0.3969 1.10574,0.3686 1.75785,1.0774 0.6521,0.6805 0.93563,1.7012 0.28352,0.9923 0.28352,2.2398 v 7.9386 q -0.76551,0.1702 -2.26819,0.397 -1.50267,0.2268 -3.37393,0.2268 -1.27585,0 -2.32489,-0.2268 -1.02068,-0.2268 -1.75784,-0.7372 -0.73716,-0.5387 -1.1341,-1.3609 -0.39693,-0.8506 -0.39693,-2.0697 0,-1.1625 0.45364,-1.9563 0.45363,-0.7939 1.21915,-1.2759 0.76551,-0.482 1.75784,-0.6804 0.99234,-0.2269 2.06972,-0.2269 1.36092,0 2.40995,0.2269 v -0.4253 q 0,-0.9924 -0.62375,-1.6445 -0.62375,-0.6804 -2.15478,-0.6804 -0.99233,0 -1.92796,0.1417 -0.90727,0.1418 -1.47432,0.3403 l -0.48199,-2.8069 q 0.65211,-0.2268 1.8429,-0.3969 1.1908,-0.1985 2.46666,-0.1985 z"
         style="font-style:normal;font-variant:normal;font-weight:bold;font-stretch:normal;font-family:'Ubuntu Mono';-inkscape-font-specification:'Ubuntu Mono Bold';fill:#ffffff;stroke-width:0.70880848"
         id="path122" />
      <path
         d="m 420.97341,-1287.2357 q 0,-1.7862 -0.70881,-2.9203 -0.7088,-1.1624 -2.15477,-1.1624 -0.39694,0 -0.85057,0.057 -0.45364,0.028 -0.76552,0.057 v 7.3149 q 0.34023,0.2268 0.90728,0.3686 0.56704,0.1417 1.13409,0.1417 1.2475,0 1.8429,-0.9923 0.5954,-1.0207 0.5954,-2.8636 z m 3.54405,-0.1134 q 0,1.531 -0.34023,2.8353 -0.34023,1.2758 -0.99234,2.2114 -0.6521,0.9073 -1.64443,1.4177 -0.99233,0.5103 -2.29654,0.5103 -1.33256,0 -2.75018,-0.6521 v 5.0184 h -3.48734 v -17.5785 q 0.96398,-0.3119 2.35325,-0.5103 1.41762,-0.1985 2.77853,-0.1985 3.0904,0 4.73484,1.8713 1.64444,1.8712 1.64444,5.075 z"
         style="font-style:normal;font-variant:normal;font-weight:bold;font-stretch:normal;font-family:'Ubuntu Mono';-inkscape-font-specification:'Ubuntu Mono Bold';fill:#ffffff;stroke-width:0.70880848"
         id="path124" />
      <path
         d="m 427.18258,-1280.6863 v -19.0811 l 3.48733,-0.5954 v 6.4643 q 0.42529,-0.1417 1.02069,-0.2551 0.5954,-0.1418 1.04903,-0.1418 1.47433,0 2.46666,0.4536 0.99233,0.4253 1.58773,1.2475 0.5954,0.7939 0.85057,1.928 0.25517,1.1057 0.25517,2.4667 v 7.5133 h -3.48734 v -7.0597 q 0,-1.8713 -0.42528,-2.6935 -0.42529,-0.8222 -1.61609,-0.8222 -0.48199,0 -0.96398,0.1134 -0.45363,0.1134 -0.73716,0.1985 v 10.2635 z"
         style="font-style:normal;font-variant:normal;font-weight:bold;font-stretch:normal;font-family:'Ubuntu Mono';-inkscape-font-specification:'Ubuntu Mono Bold';fill:#ffffff;stroke-width:0.70880848"
         id="path126" />
      <path
         d="m 447.62461,-1297.8394 q 0,1.0206 -0.65211,1.616 -0.6521,0.5954 -1.55938,0.5954 -0.90727,0 -1.55938,-0.5954 -0.62375,-0.5954 -0.62375,-1.616 0,-1.0491 0.62375,-1.6445 0.65211,-0.5954 1.55938,-0.5954 0.90728,0 1.55938,0.5954 0.65211,0.5954 0.65211,1.6445 z m 5.18847,16.5861 q -1.07739,0.5103 -2.04137,0.6804 -0.93562,0.1985 -1.72949,0.1985 -1.36091,0 -2.29654,-0.3969 -0.90727,-0.397 -1.47432,-1.1341 -0.53869,-0.7655 -0.76551,-1.8429 -0.22682,-1.0774 -0.22682,-2.4667 v -4.9049 h -3.68581 v -2.892 h 7.17315 v 8.2506 q 0,1.1908 0.42528,1.7861 0.45364,0.5671 1.47432,0.5671 0.48199,0 1.16245,-0.1134 0.68046,-0.1418 1.53103,-0.5387 z"
         style="font-style:normal;font-variant:normal;font-weight:bold;font-stretch:normal;font-family:'Ubuntu Mono';-inkscape-font-specification:'Ubuntu Mono Bold';fill:#ffffff;stroke-width:0.70880848"
         id="path128" />
      <path
         d="m 454.99622,-1287.3491 q 0,-1.4459 0.45364,-2.7218 0.45364,-1.2759 1.38926,-2.2115 0.93563,-0.964 2.35325,-1.5027 1.44597,-0.567 3.43063,-0.567 1.1908,0 2.15478,0.1701 0.96398,0.1701 1.95631,0.5671 l -0.76551,2.8068 q -0.56705,-0.1984 -1.27586,-0.3402 -0.68045,-0.1701 -1.75784,-0.1701 -1.24751,0 -2.09808,0.3119 -0.82221,0.2835 -1.33256,0.8222 -0.51034,0.5103 -0.73716,1.2475 -0.22682,0.7372 -0.22682,1.5877 0,1.8429 1.02069,2.892 1.04903,1.049 3.54404,1.049 0.82222,0 1.70114,-0.1134 0.90728,-0.1134 1.64444,-0.3686 l 0.51034,2.8636 q -0.73716,0.2835 -1.7862,0.4536 -1.04904,0.1985 -2.46665,0.1985 -2.04137,0 -3.51569,-0.5387 -1.44597,-0.5387 -2.3816,-1.4743 -0.93563,-0.9356 -1.38926,-2.2115 -0.42529,-1.2759 -0.42529,-2.7502 z"
         style="font-style:normal;font-variant:normal;font-weight:bold;font-stretch:normal;font-family:'Ubuntu Mono';-inkscape-font-specification:'Ubuntu Mono Bold';fill:#ffffff;stroke-width:0.70880848"
         id="path130" />
      <path
         d="m 478.2735,-1280.6863 q -0.31188,-0.8222 -0.68046,-1.5027 -0.96398,0.8506 -1.98466,1.3043 -1.02068,0.4252 -2.01302,0.4252 -1.27585,0 -2.23983,-0.3969 -0.93563,-0.3969 -1.58773,-1.049 -0.62375,-0.6805 -0.93563,-1.5594 -0.31187,-0.8789 -0.31187,-1.8429 0,-1.3609 0.68045,-2.5801 0.70881,-1.2475 2.09807,-2.098 -0.68045,-0.9357 -1.13409,-1.9564 -0.42528,-1.0206 -0.42528,-2.1264 0,-1.1341 0.39693,-1.9846 0.39693,-0.879 1.04904,-1.446 0.6521,-0.5671 1.44596,-0.8506 0.82222,-0.2835 1.67279,-0.2835 0.79387,0 1.55938,0.2552 0.76551,0.2551 1.36091,0.7655 0.5954,0.482 0.96398,1.2475 0.36858,0.7371 0.36858,1.7295 0,1.3609 -0.82221,2.6651 -0.82222,1.2758 -2.58007,2.1831 0.56705,0.6805 1.1908,1.3893 0.62375,0.7088 1.27586,1.446 0.39693,-1.446 0.42528,-3.4307 l 2.89194,0.3686 q -0.0283,1.5877 -0.42528,2.9486 -0.36858,1.361 -0.96398,2.4667 0.68045,0.9356 1.21915,1.928 0.53869,0.9923 0.82221,1.9846 z m -2.06972,-3.544 q -0.79387,-0.9924 -1.64444,-1.928 -0.85057,-0.9356 -1.67278,-1.8429 -0.62376,0.4253 -1.02069,1.0491 -0.36858,0.5954 -0.36858,1.4743 0,0.964 0.48199,1.6728 0.51034,0.7088 1.70114,0.7088 0.65211,0 1.30421,-0.2552 0.6521,-0.2552 1.21915,-0.8789 z m -3.45899,-10.0084 q 0,0.6238 0.25518,1.2759 0.25517,0.6237 0.7088,1.3042 0.90728,-0.5104 1.38927,-1.3326 0.48199,-0.8506 0.48199,-1.6161 0,-0.7371 -0.36858,-1.1057 -0.34023,-0.397 -0.90728,-0.397 -0.70881,0 -1.13409,0.482 -0.42529,0.482 -0.42529,1.3893 z"
         style="font-style:normal;font-variant:normal;font-weight:bold;font-stretch:normal;font-family:'Ubuntu Mono';-inkscape-font-specification:'Ubuntu Mono Bold';fill:#ffffff;stroke-width:0.70880848"
         id="path132" />
      <path
         d="m 506.05878,-1287.4341 q 0,-1.8713 -0.62375,-2.8636 -0.5954,-0.9924 -1.8429,-0.9924 -0.56705,0 -1.1341,0.1702 -0.53869,0.1417 -0.93563,0.3685 v 7.2299 q 0.39694,0.085 0.82222,0.1134 0.45364,0.028 0.76552,0.028 1.36091,0 2.15477,-0.9072 0.79387,-0.9357 0.79387,-3.1471 z m 3.54404,0.085 q 0,1.5878 -0.42528,2.892 -0.42529,1.2758 -1.24751,2.1831 -0.82221,0.9073 -2.01301,1.4176 -1.1908,0.482 -2.72183,0.482 -1.36091,0 -2.77853,-0.1985 -1.41761,-0.1984 -2.38159,-0.5103 v -18.6842 l 3.48733,-0.5954 v 6.6628 q 0.73717,-0.3402 1.41762,-0.4536 0.68046,-0.1418 1.36091,-0.1418 1.30421,0 2.29654,0.5103 0.99234,0.482 1.64444,1.4177 0.68046,0.9072 1.02068,2.1831 0.34023,1.2758 0.34023,2.8352 z"
         style="font-style:normal;font-variant:normal;font-weight:bold;font-stretch:normal;font-family:'Ubuntu Mono';-inkscape-font-specification:'Ubuntu Mono Bold';fill:#ffffff;stroke-width:0.70880848"
         id="path134" />
      <path
         d="m 517.56984,-1283.1813 q 0.56704,0 1.10574,0 0.53869,-0.028 0.93563,-0.085 v -3.0621 q -0.34023,-0.057 -0.82222,-0.085 -0.48199,-0.057 -0.87892,-0.057 -0.5387,0 -1.04904,0.085 -0.51034,0.057 -0.90728,0.2268 -0.36858,0.1701 -0.5954,0.482 -0.22681,0.3119 -0.22681,0.8222 0,0.9073 0.68045,1.3042 0.68046,0.3686 1.75785,0.3686 z m -0.31188,-11.1708 q 1.64444,0 2.72183,0.3969 1.10574,0.3686 1.75784,1.0774 0.65211,0.6805 0.93563,1.7012 0.28352,0.9923 0.28352,2.2398 v 7.9386 q -0.76551,0.1702 -2.26819,0.397 -1.50267,0.2268 -3.37392,0.2268 -1.27586,0 -2.3249,-0.2268 -1.02068,-0.2268 -1.75784,-0.7372 -0.73716,-0.5387 -1.13409,-1.3609 -0.39694,-0.8506 -0.39694,-2.0697 0,-1.1625 0.45364,-1.9563 0.45364,-0.7939 1.21915,-1.2759 0.76551,-0.482 1.75785,-0.6804 0.99233,-0.2269 2.06972,-0.2269 1.36091,0 2.40995,0.2269 v -0.4253 q 0,-0.9924 -0.62376,-1.6445 -0.62375,-0.6804 -2.15477,-0.6804 -0.99234,0 -1.92796,0.1417 -0.90728,0.1418 -1.47432,0.3403 l -0.48199,-2.8069 q 0.6521,-0.2268 1.8429,-0.3969 1.1908,-0.1985 2.46665,-0.1985 z"
         style="font-style:normal;font-variant:normal;font-weight:bold;font-stretch:normal;font-family:'Ubuntu Mono';-inkscape-font-specification:'Ubuntu Mono Bold';fill:#ffffff;stroke-width:0.70880848"
         id="path136" />
      <path
         d="m 525.87708,-1287.3491 q 0,-1.4459 0.45364,-2.7218 0.45364,-1.2759 1.38926,-2.2115 0.93563,-0.964 2.35325,-1.5027 1.44597,-0.567 3.43063,-0.567 1.1908,0 2.15478,0.1701 0.96398,0.1701 1.95631,0.5671 l -0.76551,2.8068 q -0.56705,-0.1984 -1.27586,-0.3402 -0.68046,-0.1701 -1.75784,-0.1701 -1.24751,0 -2.09808,0.3119 -0.82222,0.2835 -1.33256,0.8222 -0.51034,0.5103 -0.73716,1.2475 -0.22682,0.7372 -0.22682,1.5877 0,1.8429 1.02069,2.892 1.04903,1.049 3.54404,1.049 0.82222,0 1.70114,-0.1134 0.90728,-0.1134 1.64444,-0.3686 l 0.51034,2.8636 q -0.73716,0.2835 -1.7862,0.4536 -1.04904,0.1985 -2.46665,0.1985 -2.04137,0 -3.51569,-0.5387 -1.44597,-0.5387 -2.3816,-1.4743 -0.93563,-0.9356 -1.38926,-2.2115 -0.42529,-1.2759 -0.42529,-2.7502 z"
         style="font-style:normal;font-variant:normal;font-weight:bold;font-stretch:normal;font-family:'Ubuntu Mono';-inkscape-font-specification:'Ubuntu Mono Bold';fill:#ffffff;stroke-width:0.70880848"
         id="path138" />
      <path
         d="m 544.10763,-1288.7383 q 0.51034,-0.5954 1.02068,-1.2475 0.5387,-0.6805 1.02069,-1.3893 0.51034,-0.7088 0.96398,-1.3609 0.45363,-0.6805 0.79386,-1.2759 h 4.19615 q -0.51034,0.6521 -1.16245,1.4176 -0.6521,0.7656 -1.36091,1.5594 -0.68046,0.7939 -1.38926,1.531 -0.68046,0.7372 -1.24751,1.361 0.70881,0.6804 1.53103,1.6444 0.82222,0.9356 1.61608,1.9563 0.79387,1.0207 1.44597,2.0414 0.68046,1.0207 1.07739,1.8145 h -3.99768 q -0.34023,-0.7088 -0.90727,-1.5877 -0.5387,-0.9073 -1.16245,-1.7579 -0.62375,-0.8789 -1.27586,-1.6444 -0.62375,-0.7939 -1.16244,-1.3042 v 6.2942 h -3.51569 v -19.0811 l 3.51569,-0.5954 z"
         style="font-style:normal;font-variant:normal;font-weight:bold;font-stretch:normal;font-family:'Ubuntu Mono';-inkscape-font-specification:'Ubuntu Mono Bold';fill:#ffffff;stroke-width:0.70880848"
         id="path140" />
      <path
         d="m 557.46157,-1287.7744 q 0,1.6445 0.5954,2.5234 0.5954,0.8506 1.87126,0.8506 0.56704,0 1.04903,-0.1418 0.51035,-0.1418 0.90728,-0.3686 v -6.4076 q -0.39693,-0.085 -0.70881,-0.1134 -0.31188,-0.028 -0.6521,-0.028 -3.06206,0 -3.06206,3.6858 z m 7.93866,5.472 q 0,3.2606 -1.58773,4.8199 -1.55938,1.5594 -5.04672,1.5594 -1.2475,0 -2.40995,-0.2552 -1.13409,-0.2551 -2.18313,-0.5954 l 0.65211,-2.9486 q 0.82221,0.3119 1.72949,0.567 0.90727,0.2836 2.26819,0.2836 0.90727,0 1.50267,-0.2268 0.5954,-0.1985 0.93563,-0.5671 0.34022,-0.3686 0.48199,-0.8789 0.14176,-0.482 0.14176,-1.0491 v -0.5386 q -0.73716,0.2835 -1.36091,0.4252 -0.5954,0.1418 -1.30421,0.1418 -2.60842,0 -3.96933,-1.6444 -1.33256,-1.6445 -1.33256,-4.5648 0,-3.2888 1.81455,-4.9049 1.81455,-1.6161 4.93331,-1.6161 2.18313,0 4.73484,0.7088 z"
         style="font-style:normal;font-variant:normal;font-weight:bold;font-stretch:normal;font-family:'Ubuntu Mono';-inkscape-font-specification:'Ubuntu Mono Bold';fill:#ffffff;stroke-width:0.70880848"
         id="path142" />
      <path
         d="m 579.54805,-1290.4678 q -0.34022,-0.085 -0.82221,-0.1702 -0.45364,-0.085 -0.93563,-0.1417 -0.48199,-0.085 -0.93563,-0.1134 -0.45364,-0.028 -0.76551,-0.028 -0.73716,0 -1.44597,0.085 -0.70881,0.057 -1.44597,0.2552 v 9.8949 h -3.51569 v -12.4467 q 1.38926,-0.5103 2.83523,-0.8222 1.47433,-0.3119 3.43064,-0.3119 0.28352,0 0.79386,0.028 0.5387,0.028 1.1341,0.1134 0.59539,0.057 1.19079,0.1701 0.62376,0.085 1.10575,0.2552 z"
         style="font-style:normal;font-variant:normal;font-weight:bold;font-stretch:normal;font-family:'Ubuntu Mono';-inkscape-font-specification:'Ubuntu Mono Bold';fill:#ffffff;stroke-width:0.70880848"
         id="path144" />
      <path
         d="m 594.71656,-1287.3774 q 0,1.5877 -0.45363,2.8919 -0.45364,1.2759 -1.27586,2.2115 -0.82222,0.9356 -1.98466,1.446 -1.1341,0.5103 -2.55171,0.5103 -1.41762,0 -2.58007,-0.5103 -1.13409,-0.5104 -1.98466,-1.446 -0.82222,-0.9356 -1.27586,-2.2115 -0.45363,-1.3042 -0.45363,-2.8919 0,-1.5594 0.45363,-2.8353 0.48199,-1.3042 1.30421,-2.2114 0.85057,-0.9357 2.01302,-1.4177 1.16244,-0.5103 2.52336,-0.5103 1.38926,0 2.52335,0.5103 1.16245,0.482 1.98467,1.4177 0.85057,0.9072 1.30421,2.2114 0.45363,1.2759 0.45363,2.8353 z m -9.01604,0.028 q 0,1.7862 0.62375,2.892 0.6521,1.1057 2.06972,1.1057 1.36091,0 2.04137,-1.1057 0.70881,-1.1058 0.70881,-2.892 0,-1.7862 -0.6521,-2.8636 -0.62376,-1.1057 -2.04137,-1.1057 -1.36092,0 -2.06972,1.1057 -0.68046,1.0774 -0.68046,2.8636 z"
         style="font-style:normal;font-variant:normal;font-weight:bold;font-stretch:normal;font-family:'Ubuntu Mono';-inkscape-font-specification:'Ubuntu Mono Bold';fill:#ffffff;stroke-width:0.70880848"
         id="path146" />
      <path
         d="m 607.92873,-1281.1399 q -0.96398,0.2552 -2.35324,0.5103 -1.36091,0.2552 -2.977,0.2552 -1.64443,0 -2.69347,-0.4536 -1.04904,-0.4537 -1.67279,-1.2759 -0.5954,-0.8506 -0.82222,-1.9847 -0.22682,-1.1341 -0.22682,-2.495 v -7.4283 h 3.48734 v 6.9747 q 0,1.8429 0.42529,2.7502 0.45364,0.8789 1.72949,0.8789 0.79387,0 1.58773,-0.1418 v -10.462 h 3.51569 z"
         style="font-style:normal;font-variant:normal;font-weight:bold;font-stretch:normal;font-family:'Ubuntu Mono';-inkscape-font-specification:'Ubuntu Mono Bold';fill:#ffffff;stroke-width:0.70880848"
         id="path148" />
      <path
         d="m 611.47278,-1293.5866 q 0.93563,-0.2552 2.29654,-0.482 1.38927,-0.2268 3.00535,-0.2268 1.58773,0 2.63677,0.4536 1.04903,0.4253 1.64443,1.2475 0.62375,0.7939 0.87893,1.928 0.25517,1.1057 0.25517,2.4667 v 7.5133 h -3.48734 v -7.0597 q 0,-1.8713 -0.42529,-2.6935 -0.42528,-0.8222 -1.72949,-0.8222 -0.39693,0 -0.79386,0.028 -0.36859,0.028 -0.79387,0.085 v 10.462 h -3.48734 z"
         style="font-style:normal;font-variant:normal;font-weight:bold;font-stretch:normal;font-family:'Ubuntu Mono';-inkscape-font-specification:'Ubuntu Mono Bold';fill:#ffffff;stroke-width:0.70880848"
         id="path150" />
      <path
         d="m 628.20067,-1287.4341 q 0,1.7862 0.6521,2.9203 0.68046,1.134 2.15478,1.134 0.42529,0 0.79387,-0.028 0.36858,-0.028 0.76551,-0.085 v -7.2582 q -0.39693,-0.2268 -0.90727,-0.3685 -0.51035,-0.1702 -1.07739,-0.1702 -1.24751,0 -1.81455,0.9924 -0.56705,0.9923 -0.56705,2.8636 z m 7.8536,6.3509 q -0.96398,0.3119 -2.35325,0.5103 -1.38926,0.1985 -2.72182,0.1985 -3.11876,0 -4.73484,-1.8429 -1.58773,-1.8429 -1.58773,-5.0467 0,-3.2605 1.33256,-5.1318 1.36091,-1.8996 3.99768,-1.8996 0.70881,0 1.38926,0.1701 0.68046,0.1418 1.1908,0.4253 v -6.0674 l 3.48734,-0.5954 z"
         style="font-style:normal;font-variant:normal;font-weight:bold;font-stretch:normal;font-family:'Ubuntu Mono';-inkscape-font-specification:'Ubuntu Mono Bold';fill:#ffffff;stroke-width:0.70880848"
         id="path152" />
      <path
         d="m 341.47345,-1255.5398 h 11.90798 v 2.8919 h -11.90798 z m 0,5.5287 h 11.90798 v 2.8919 h -11.90798 z"
         style="font-style:normal;font-variant:normal;font-weight:bold;font-stretch:normal;font-family:'Ubuntu Mono';-inkscape-font-specification:'Ubuntu Mono Bold';fill:#ffffff;stroke-width:0.70880848"
         id="path154" />
      <path
         d="m 376.74376,-1261.0402 q 0,1.0207 -0.6521,1.6161 -0.65211,0.5954 -1.55938,0.5954 -0.90728,0 -1.55938,-0.5954 -0.62375,-0.5954 -0.62375,-1.6161 0,-1.049 0.62375,-1.6444 0.6521,-0.5954 1.55938,-0.5954 0.90727,0 1.55938,0.5954 0.6521,0.5954 0.6521,1.6444 z m 5.18848,16.5861 q -1.07739,0.5104 -2.04137,0.6805 -0.93563,0.1985 -1.72949,0.1985 -1.36091,0 -2.29654,-0.397 -0.90728,-0.3969 -1.47432,-1.1341 -0.5387,-0.7655 -0.76552,-1.8429 -0.22682,-1.0774 -0.22682,-2.4666 v -4.905 h -3.6858 v -2.8919 h 7.17314 v 8.2505 q 0,1.1908 0.42529,1.7862 0.45364,0.5671 1.47432,0.5671 0.48199,0 1.16245,-0.1135 0.68045,-0.1417 1.53102,-0.5386 z"
         style="font-style:normal;font-variant:normal;font-weight:bold;font-stretch:normal;font-family:'Ubuntu Mono';-inkscape-font-specification:'Ubuntu Mono Bold';fill:#ffffff;stroke-width:0.70880848"
         id="path156" />
      <path
         d="m 384.11537,-1250.5498 q 0,-1.446 0.45364,-2.7218 0.45363,-1.2759 1.38926,-2.2115 0.93563,-0.964 2.35325,-1.5027 1.44597,-0.567 3.43063,-0.567 1.1908,0 2.15478,0.1701 0.96398,0.1701 1.95631,0.567 l -0.76551,2.8069 q -0.56705,-0.1985 -1.27586,-0.3402 -0.68046,-0.1701 -1.75785,-0.1701 -1.2475,0 -2.09807,0.3118 -0.82222,0.2836 -1.33256,0.8222 -0.51034,0.5104 -0.73716,1.2475 -0.22682,0.7372 -0.22682,1.5878 0,1.8429 1.02069,2.8919 1.04903,1.0491 3.54404,1.0491 0.82222,0 1.70114,-0.1135 0.90727,-0.1134 1.64444,-0.3685 l 0.51034,2.8636 q -0.73716,0.2835 -1.7862,0.4536 -1.04904,0.1985 -2.46665,0.1985 -2.04137,0 -3.51569,-0.5387 -1.44597,-0.5387 -2.3816,-1.4744 -0.93563,-0.9356 -1.38927,-2.2114 -0.42528,-1.2759 -0.42528,-2.7502 z"
         style="font-style:normal;font-variant:normal;font-weight:bold;font-stretch:normal;font-family:'Ubuntu Mono';-inkscape-font-specification:'Ubuntu Mono Bold';fill:#ffffff;stroke-width:0.70880848"
         id="path158" />
      <path
         d="m 410.42634,-1250.5782 q 0,1.5878 -0.45364,2.892 -0.45363,1.2758 -1.27585,2.2114 -0.82222,0.9357 -1.98466,1.446 -1.1341,0.5104 -2.55172,0.5104 -1.41761,0 -2.58006,-0.5104 -1.13409,-0.5103 -1.98466,-1.446 -0.82222,-0.9356 -1.27586,-2.2114 -0.45364,-1.3042 -0.45364,-2.892 0,-1.5594 0.45364,-2.8352 0.48199,-1.3042 1.30421,-2.2115 0.85057,-0.9356 2.01302,-1.4176 1.16244,-0.5103 2.52335,-0.5103 1.38927,0 2.52336,0.5103 1.16245,0.482 1.98467,1.4176 0.85057,0.9073 1.3042,2.2115 0.45364,1.2758 0.45364,2.8352 z m -9.01604,0.028 q 0,1.7862 0.62375,2.8919 0.6521,1.1058 2.06972,1.1058 1.36091,0 2.04137,-1.1058 0.70881,-1.1057 0.70881,-2.8919 0,-1.7862 -0.65211,-2.8636 -0.62375,-1.1057 -2.04137,-1.1057 -1.36091,0 -2.06972,1.1057 -0.68045,1.0774 -0.68045,2.8636 z"
         style="font-style:normal;font-variant:normal;font-weight:bold;font-stretch:normal;font-family:'Ubuntu Mono';-inkscape-font-specification:'Ubuntu Mono Bold';fill:#ffffff;stroke-width:0.70880848"
         id="path160" />
      <path
         d="m 413.0064,-1256.7873 q 0.93563,-0.2552 2.29654,-0.482 1.38927,-0.2268 3.00535,-0.2268 1.58773,0 2.63677,0.4536 1.04904,0.4253 1.64444,1.2475 0.62375,0.7939 0.87892,1.928 0.25517,1.1057 0.25517,2.4666 v 7.5134 h -3.48734 v -7.0598 q 0,-1.8712 -0.42528,-2.6934 -0.42529,-0.8222 -1.7295,-0.8222 -0.39693,0 -0.79386,0.028 -0.36858,0.028 -0.79387,0.085 v 10.462 h -3.48734 z"
         style="font-style:normal;font-variant:normal;font-weight:bold;font-stretch:normal;font-family:'Ubuntu Mono';-inkscape-font-specification:'Ubuntu Mono Bold';fill:#ffffff;stroke-width:0.70880848"
         id="path162" />
      <path
         d="m 431.86071,-1246.5238 q 1.27586,0 1.95631,-0.1701 0.68046,-0.1985 0.68046,-0.7655 0,-0.3686 -0.22682,-0.6238 -0.19847,-0.2551 -0.5954,-0.4253 -0.36858,-0.1984 -0.87892,-0.3685 -0.48199,-0.1701 -1.02069,-0.3403 -0.76551,-0.2268 -1.55937,-0.5103 -0.79387,-0.3119 -1.44597,-0.7655 -0.65211,-0.4537 -1.07739,-1.1341 -0.42529,-0.7088 -0.42529,-1.7579 0,-0.8505 0.31188,-1.5877 0.34023,-0.7655 1.02068,-1.3325 0.70881,-0.5954 1.7862,-0.9073 1.07739,-0.3402 2.58006,-0.3402 1.30421,0 2.40995,0.1984 1.1341,0.1985 1.95631,0.5671 l -0.53869,2.9486 q -0.48199,-0.1418 -1.50268,-0.4536 -1.02068,-0.3403 -2.29654,-0.3403 -1.33256,0 -1.81454,0.3403 -0.45364,0.3118 -0.45364,0.6804 0,0.3119 0.19846,0.5671 0.22682,0.2268 0.56705,0.4253 0.36858,0.1984 0.82222,0.3969 0.48199,0.1701 1.02068,0.3402 0.76552,0.2552 1.58773,0.5671 0.82222,0.3118 1.47433,0.7938 0.68045,0.4537 1.10574,1.1908 0.42528,0.7088 0.42528,1.7579 0,0.8222 -0.31187,1.5594 -0.31188,0.7371 -1.04904,1.2758 -0.70881,0.5387 -1.87125,0.8506 -1.16245,0.3119 -2.86359,0.3119 -1.72949,0 -2.94864,-0.397 -1.21916,-0.3969 -1.95632,-0.7088 l 0.5387,-2.9203 q 0.99233,0.397 2.09807,0.7372 1.1341,0.3402 2.29654,0.3402 z"
         style="font-style:normal;font-variant:normal;font-weight:bold;font-stretch:normal;font-family:'Ubuntu Mono';-inkscape-font-specification:'Ubuntu Mono Bold';fill:#ffffff;stroke-width:0.70880848"
         id="path164" />
      <path
         d="m 449.21234,-1246.1269 q 0,1.2475 -0.76552,1.8997 -0.76551,0.6521 -1.75784,0.6521 -0.51034,0 -0.96398,-0.1702 -0.45364,-0.1701 -0.82222,-0.4819 -0.34023,-0.3403 -0.56705,-0.7939 -0.19846,-0.482 -0.19846,-1.1058 0,-0.5954 0.19846,-1.049 0.22682,-0.482 0.56705,-0.7939 0.36858,-0.3118 0.82222,-0.4819 0.45364,-0.1702 0.96398,-0.1702 0.99233,0 1.75784,0.6521 0.76552,0.6521 0.76552,1.8429 z"
         style="font-style:normal;font-variant:normal;font-weight:bold;font-stretch:normal;font-family:'Ubuntu Mono';-inkscape-font-specification:'Ubuntu Mono Bold';fill:#ffffff;stroke-width:0.70880848"
         id="path166" />
      <path
         d="m 462.59465,-1258.8004 q -1.2475,0 -2.09807,0.4537 -0.85057,0.4536 -1.41762,1.2758 -0.5387,0.7939 -0.79387,1.928 -0.22682,1.1057 -0.22682,2.4667 0,3.1471 0.99234,4.6497 0.99233,1.4744 2.92029,1.4744 0.31187,0 0.68045,-0.028 0.36858,-0.028 0.68046,-0.085 v -6.4077 h 3.48734 v 8.7609 q -0.62375,0.2268 -1.95631,0.5103 -1.30421,0.2836 -3.17547,0.2836 -1.64443,0 -2.97699,-0.5671 -1.30421,-0.5954 -2.23984,-1.7295 -0.93562,-1.1624 -1.44597,-2.8636 -0.51034,-1.7295 -0.51034,-3.9976 0,-2.2399 0.5954,-3.941 0.5954,-1.7295 1.61608,-2.892 1.02069,-1.1624 2.40995,-1.7295 1.38927,-0.5954 2.977,-0.5954 1.02068,0 1.81455,0.1702 0.82222,0.1417 1.41762,0.3402 0.59539,0.1985 0.96398,0.4253 0.39693,0.2268 0.59539,0.3402 l -0.90727,2.7785 q -0.62375,-0.3969 -1.53103,-0.7088 -0.90727,-0.3119 -1.87125,-0.3119 z"
         style="font-style:normal;font-variant:normal;font-weight:bold;font-stretch:normal;font-family:'Ubuntu Mono';-inkscape-font-specification:'Ubuntu Mono Bold';fill:#ffffff;stroke-width:0.70880848"
         id="path168" />
      <path
         d="m 468.80382,-1250.4364 q 0,-1.7579 0.53869,-3.0904 0.5387,-1.3326 1.41762,-2.2115 0.87892,-0.9073 2.01302,-1.3609 1.13409,-0.4536 2.32489,-0.4536 2.94864,0 4.47967,1.7578 1.53102,1.7295 1.53102,5.0751 0,0.3402 -0.0283,0.7088 0,0.3686 -0.0283,0.5954 h -8.64746 q 0,1.3042 1.07739,2.0697 1.07738,0.7372 2.77852,0.7372 1.04904,0 1.98467,-0.2269 0.96398,-0.2268 1.61608,-0.4536 l 0.48199,2.977 q -0.90727,0.3119 -1.92796,0.5103 -1.02068,0.2269 -2.29654,0.2269 -1.70114,0 -3.06205,-0.4253 -1.33256,-0.4537 -2.29654,-1.3042 -0.93563,-0.879 -1.44597,-2.1548 -0.51034,-1.2759 -0.51034,-2.977 z m 8.93099,-1.3893 q 0,-0.5387 -0.14177,-1.0207 -0.14176,-0.5103 -0.45363,-0.9072 -0.31188,-0.397 -0.79387,-0.6238 -0.48199,-0.2552 -1.1908,-0.2552 -0.68045,0 -1.1908,0.2269 -0.48198,0.2268 -0.82221,0.6237 -0.31188,0.3969 -0.51035,0.9073 -0.17011,0.5103 -0.22681,1.049 z"
         style="font-style:normal;font-variant:normal;font-weight:bold;font-stretch:normal;font-family:'Ubuntu Mono';-inkscape-font-specification:'Ubuntu Mono Bold';fill:#ffffff;stroke-width:0.70880848"
         id="path170" />
      <path
         d="m 486.15544,-1254.3207 h -3.0337 v -2.8919 h 3.0337 v -3.3456 l 3.48734,-0.567 v 3.9126 h 5.58541 v 2.8919 h -5.58541 v 5.387 q 0,0.7371 0.14176,1.1908 0.14176,0.4536 0.39694,0.7088 0.25517,0.2551 0.62375,0.3402 0.36858,0.085 0.82222,0.085 0.48199,0 0.87892,-0.028 0.42528,-0.028 0.79386,-0.085 0.39694,-0.085 0.79387,-0.2268 0.42528,-0.1417 0.90727,-0.3686 l 0.48199,3.0054 q -0.96398,0.3969 -2.09807,0.567 -1.10574,0.1702 -2.15478,0.1702 -1.21915,0 -2.15478,-0.1985 -0.93562,-0.1985 -1.58773,-0.7655 -0.6521,-0.5671 -0.99233,-1.5878 -0.34023,-1.049 -0.34023,-2.7218 z"
         style="font-style:normal;font-variant:normal;font-weight:bold;font-stretch:normal;font-family:'Ubuntu Mono';-inkscape-font-specification:'Ubuntu Mono Bold';fill:#ffffff;stroke-width:0.70880848"
         id="path172" />
      <path
         d="m 502.17451,-1251.4287 q 0,3.4873 1.53102,6.0674 1.55938,2.5517 4.28121,4.1394 l -1.61609,2.1548 q -3.85591,-2.1264 -5.64211,-5.3019 -1.7862,-3.1755 -1.7862,-7.0597 0,-3.9127 1.8429,-7.1732 1.84291,-3.2889 5.69882,-5.4153 l 1.61609,2.1548 q -2.72183,1.5877 -4.33791,4.2528 -1.58773,2.6652 -1.58773,6.1809 z"
         style="font-style:normal;font-variant:normal;font-weight:bold;font-stretch:normal;font-family:'Ubuntu Mono';-inkscape-font-specification:'Ubuntu Mono Bold';fill:#ffffff;stroke-width:0.70880848"
         id="path174" />
      <path
         d="m 518.78899,-1251.4287 q 0,-3.5157 -1.61609,-6.1809 -1.58773,-2.6651 -4.30955,-4.2528 l 1.61608,-2.1548 q 3.85592,2.1264 5.69882,5.4153 1.8429,3.2605 1.8429,7.1732 0,3.8842 -1.78619,7.0597 -1.7862,3.1755 -5.64212,5.3019 l -1.61608,-2.1548 q 2.72182,-1.5877 4.25285,-4.1394 1.55938,-2.5801 1.55938,-6.0674 z"
         style="font-style:normal;font-variant:normal;font-weight:bold;font-stretch:normal;font-family:'Ubuntu Mono';-inkscape-font-specification:'Ubuntu Mono Bold';fill:#ffffff;stroke-width:0.70880848"
         id="path176" />
      <path
         d="m 527.97515,-1241.8173 q 0.51035,-0.1134 1.02069,-0.1985 0.53869,-0.085 0.99233,-0.2551 0.48199,-0.1702 0.85057,-0.482 0.36858,-0.3119 0.5954,-0.8506 -1.07739,-0.1134 -1.67279,-0.8506 -0.5954,-0.7371 -0.5954,-1.6444 0,-1.1057 0.70881,-1.8146 0.73716,-0.7088 1.8429,-0.7088 1.1908,0 1.8429,0.7939 0.68046,0.7939 0.68046,2.1548 0,0.9923 -0.31187,1.9846 -0.31188,0.9924 -1.02069,1.8429 -0.68046,0.8506 -1.7862,1.4744 -1.10574,0.6237 -2.69347,0.8222 z m 6.29422,-12.9003 q 0,1.2475 -0.76551,1.8996 -0.76551,0.6521 -1.75784,0.6521 -0.51035,0 -0.96398,-0.1701 -0.45364,-0.1701 -0.82222,-0.482 -0.34023,-0.3402 -0.56705,-0.7939 -0.19847,-0.482 -0.19847,-1.1057 0,-0.5954 0.19847,-1.0491 0.22682,-0.4819 0.56705,-0.7938 0.36858,-0.3119 0.82222,-0.482 0.45363,-0.1701 0.96398,-0.1701 0.99233,0 1.75784,0.6521 0.76551,0.6521 0.76551,1.8429 z"
         style="font-style:normal;font-variant:normal;font-weight:bold;font-stretch:normal;font-family:'Ubuntu Mono';-inkscape-font-specification:'Ubuntu Mono Bold';fill:#ffffff;stroke-width:0.70880848"
         id="path178" />
    </g>
    <g
       id="g8063"
       transform="translate(-398.51869,-52.838687)">
      <rect
         style="fill:none;fill-opacity:1;stroke:#ffffff;stroke-width:5.27269506;stroke-linecap:round;stroke-linejoin:round;stroke-miterlimit:5.48760319;stroke-dasharray:none;stroke-opacity:1"
         id="rect7891"
         width="83.414589"
         height="38.080574"
         x="1296.9084"
         y="548.20093" />
      <rect
         y="639.32233"
         x="1296.9084"
         height="38.080574"
         width="83.414589"
         id="rect7893"
         style="fill:none;fill-opacity:1;stroke:#ffffff;stroke-width:5.27269506;stroke-linecap:round;stroke-linejoin:round;stroke-miterlimit:5.48760319;stroke-dasharray:none;stroke-opacity:1" />
      <rect
         style="fill:none;fill-opacity:1;stroke:#ffffff;stroke-width:5.27269506;stroke-linecap:round;stroke-linejoin:round;stroke-miterlimit:5.48760319;stroke-dasharray:none;stroke-opacity:1"
         id="rect7895"
         width="83.414589"
         height="38.080574"
         x="1198.5336"
         y="639.32233" />
      <rect
         y="639.89227"
         x="1419.377"
         height="38.080574"
         width="83.414589"
         id="rect7897"
         style="fill:none;fill-opacity:1;stroke:#ffffff;stroke-width:5.27269506;stroke-linecap:round;stroke-linejoin:round;stroke-miterlimit:5.48760319;stroke-dasharray:none;stroke-opacity:1" />
      <path
         sodipodi:nodetypes="ccc"
         style="fill:none;stroke:#ffffff;stroke-width:5.27269506;stroke-linecap:butt;stroke-linejoin:miter;stroke-miterlimit:4;stroke-dasharray:none;stroke-opacity:1"
         d="m 1241.1476,638.41563 v -26.29372 h 94.935"
         id="path7899"
         inkscape:connector-curvature="0" />
      <path
         style="fill:none;stroke:#ffffff;stroke-width:5.27269506;stroke-linecap:butt;stroke-linejoin:miter;stroke-miterlimit:4;stroke-dasharray:none;stroke-opacity:1"
         d="M 1335.8956,639.32231 V 588.09487"
         id="path7901"
         inkscape:connector-curvature="0" />
      <path
         style="fill:none;stroke:#ffffff;stroke-width:5.27269506;stroke-linecap:butt;stroke-linejoin:miter;stroke-miterlimit:4;stroke-dasharray:none;stroke-opacity:1"
         d="m 1335.8956,588.09487 -5.2134,11.10684 h 11.3335 l -6.1201,-11.10684"
         id="path7987"
         inkscape:connector-curvature="0" />
      <path
         inkscape:connector-curvature="0"
         id="path8013"
         d="m 1335.8956,588.09487 -5.2134,11.10684 h 11.3335 l -6.1201,-11.10684"
         style="fill:none;stroke:#ffffff;stroke-width:5.27269506;stroke-linecap:butt;stroke-linejoin:miter;stroke-miterlimit:4;stroke-dasharray:none;stroke-opacity:1" />
      <path
         inkscape:connector-curvature="0"
         id="path8032"
         d="m 1383.855,658.06189 9.1194,-5.98462 8.2645,5.12968 -8.8344,4.8447 z"
         style="fill:none;stroke:#ffffff;stroke-width:5.27249956;stroke-linecap:butt;stroke-linejoin:miter;stroke-miterlimit:4;stroke-dasharray:none;stroke-opacity:1" />
      <path
         inkscape:connector-curvature="0"
         id="path8034"
         d="m 1398.3891,657.34944 h 20.8037"
         style="fill:none;stroke:#ffffff;stroke-width:5.27249956;stroke-linecap:butt;stroke-linejoin:miter;stroke-miterlimit:4;stroke-dasharray:none;stroke-opacity:1" />
    </g>
    <g
       id="g8180"
       transform="translate(-325.54226,76.280175)">
      <path
         inkscape:connector-curvature="0"
         id="path2998"
         d="m 1540.6557,74.304882 -27.1496,-10.883178 -47.39,46.150166 -28.5379,-21.723953 -10.8514,5.457458 -0.011,56.969745 10.8006,5.41823 28.5145,-21.70588 47.5065,46.10776 27.1285,-10.84077 z"
         style="fill:none;fill-opacity:0.02926827;stroke:#ffffff;stroke-width:8.1385355;stroke-opacity:1" />
      <path
         inkscape:connector-curvature="0"
         id="path3000"
         d="m 1510.8038,101.42272 -27.1178,20.27217 27.1284,20.43111 z"
         style="fill:#ffffff;stroke:none;stroke-width:0.24417725" />
      <path
         inkscape:connector-curvature="0"
         id="path3002"
         d="m 1440.2743,109.5949 0.016,24.38302 13.5478,-12.27392 z"
         style="fill:#ffffff;stroke:none;stroke-width:0.24417725" />
    </g>
    <g
       id="g8172"
       transform="matrix(0.67567234,0,0,0.67567234,663.68342,59.059257)">
      <path
         id="path8154"
         d="m 510.00961,344.97466 66.44463,-32.99382"
         style="fill:none;stroke:#ffffff;stroke-width:7.49999952;stroke-linecap:round;stroke-linejoin:round;stroke-miterlimit:4;stroke-dasharray:none;stroke-opacity:1"
         inkscape:connector-curvature="0" />
      <path
         id="path8152"
         d="M 642.89887,344.97466 709.3435,311.98084"
         style="fill:none;stroke:#ffffff;stroke-width:7.49999952;stroke-linecap:round;stroke-linejoin:round;stroke-miterlimit:4;stroke-dasharray:none;stroke-opacity:1"
         inkscape:connector-curvature="0" />
      <path
         id="path6807"
         d="M 642.89887,476.94993 709.3435,443.95611"
         style="fill:none;stroke:#ffffff;stroke-width:7.49999952;stroke-linecap:round;stroke-linejoin:round;stroke-miterlimit:4;stroke-dasharray:none;stroke-opacity:1"
         inkscape:connector-curvature="0" />
      <rect
         id="rect6803"
         y="344.97467"
         x="510.00961"
         height="131.97527"
         width="132.88925"
         style="fill:none;stroke:#ffffff;stroke-width:7.49999952;stroke-linecap:round;stroke-linejoin:round;stroke-miterlimit:4;stroke-dasharray:none;stroke-opacity:1" />
      <path
         style="fill:none;stroke:#ffffff;stroke-width:7.49999952;stroke-linecap:round;stroke-linejoin:round;stroke-miterlimit:4;stroke-dasharray:none;stroke-opacity:1"
         d="m 576.45421,311.9807 h 132.8893 l -1e-5,131.97541"
         id="path6829"
         inkscape:connector-curvature="0" />
      <g
         style="fill:none;stroke:#ffffff;stroke-width:1.04816186;stroke-linecap:round;stroke-linejoin:round;stroke-miterlimit:4;stroke-dasharray:none;stroke-opacity:1"
         transform="matrix(6.7621029,-2.3069626,2.3138045,6.7821574,-570.42839,-905.53005)"
         id="g6765">
        <path
           style="fill:none;stroke:#ffffff;stroke-width:1.04816186;stroke-linecap:round;stroke-linejoin:round;stroke-miterlimit:4;stroke-dasharray:none;stroke-opacity:1"
           d="m 94.078874,220.96181 -9.354434,5.87993"
           id="path6727"
           inkscape:connector-curvature="0" />
        <path
           style="fill:none;stroke:#ffffff;stroke-width:1.04816186;stroke-linecap:round;stroke-linejoin:round;stroke-miterlimit:4;stroke-dasharray:none;stroke-opacity:1"
           d="M 94.078874,232.66259 84.72444,226.78266"
           id="path6727-2"
           inkscape:connector-curvature="0" />
        <path
           style="fill:none;stroke:#ffffff;stroke-width:1.04816186;stroke-linecap:round;stroke-linejoin:round;stroke-miterlimit:4;stroke-dasharray:none;stroke-opacity:1"
           d="m 91.406177,222.56534 c 0,0 4.409948,3.78883 0,8.41962"
           id="path6744"
           inkscape:connector-curvature="0" />
        <path
           sodipodi:nodetypes="cc"
           style="fill:none;stroke:#ffffff;stroke-width:1.04816186;stroke-linecap:round;stroke-linejoin:round;stroke-miterlimit:4;stroke-dasharray:none;stroke-opacity:1"
           d="m 93.110812,227.91551 c -0.217294,-0.0739 -2.178507,-1.17851 -0.0069,-2.55674"
           id="path6744-7"
           inkscape:connector-curvature="0" />
      </g>
      <path
         inkscape:connector-curvature="0"
         id="path8156"
         d="M 587.86533,415.88834 692.08709,364.70801"
         style="fill:none;stroke:#ffffff;stroke-width:7.49999952;stroke-linecap:round;stroke-linejoin:miter;stroke-miterlimit:4;stroke-dasharray:none;stroke-opacity:1" />
      <path
         inkscape:connector-curvature="0"
         id="path8158"
         d="m 690.84946,375.53153 4.98763,-14.57352 -14.07716,-0.36141"
         style="fill:none;stroke:#ffffff;stroke-width:7.49999952;stroke-linecap:round;stroke-linejoin:miter;stroke-miterlimit:4;stroke-dasharray:none;stroke-opacity:1" />
    </g>
    <path
       style="fill:#ffffff;stroke-width:0.06244471"
       d="m 906.40421,381.46606 -30.8981,-8.25785 -4.5987,-8.07409 -4.5988,-8.07408 -6.1537,0.0391 c -3.3845,0.0214 -7.5727,0.0557 -9.3072,0.0762 l -3.1533,0.0372 -22.6691,-22.59554 c -12.4682,-12.42755 -22.6799,-22.62102 -22.6929,-22.65215 -0.013,-0.0311 10.1741,-10.22518 22.638,-22.65343 l 22.6615,-22.5968 7.868,0.0334 c 4.3274,0.0183 8.5285,0.0497 9.3354,0.0698 l 1.4675,0.0364 4.5878,-8.06868 c 2.96,-5.2057 4.6329,-8.08776 4.7146,-8.12244 0.3385,-0.1435 61.8786,-16.54047 61.9169,-16.49742 0.084,0.0943 16.61659,61.72917 16.58219,61.81914 -0.019,0.0497 -2.1328,3.64684 -4.6976,7.99388 -2.56449,4.34703 -4.66199,7.93501 -4.66079,7.97327 0,0.0382 2.1161,3.65229 4.69999,8.03122 l 4.6979,7.96169 -0.1044,0.40589 c -0.056,0.22325 -3.7915,14.11878 -8.29799,30.87892 -7.2988,27.14449 -8.2074,30.4742 -8.3166,30.48361 -0.067,0.005 -14.0268,-3.70546 -31.0209,-8.24727 z m 8.8231,-14.88347 c -6e-4,-0.0257 -6.1203,-10.61248 -13.5994,-23.52605 l -13.5985,-23.4792 -27.2446,-0.0157 c -14.9844,-0.008 -27.2354,0.007 -27.2237,0.0355 0.015,0.0283 7.7227,7.88793 17.1362,17.46614 l 17.1153,17.41498 23.661,6.06975 c 13.0135,3.33835 23.6821,6.07236 23.7078,6.07556 0.027,0.003 0.047,-0.0151 0.047,-0.0411 z m 19.9204,-31.15075 6.5726,-23.48569 -6.5801,-23.52032 c -5.5847,-19.9628 -6.592,-23.50392 -6.6595,-23.41197 -0.043,0.0596 -6.1803,10.64433 -13.6371,23.52163 -10.5299,18.18495 -13.5438,23.43534 -13.4965,23.5121 0.033,0.0544 6.1389,10.59422 13.5673,23.42193 7.4284,12.82771 13.5347,23.35891 13.5694,23.40268 0.035,0.0437 0.07,0.0719 0.076,0.0624 0.015,-0.0107 2.9719,-10.58569 6.5867,-23.5028 z m -33.5157,-54.61326 c 7.4789,-12.91751 13.5845,-23.50004 13.5678,-23.51672 -0.017,-0.0166 -10.6882,2.70059 -23.7143,6.03835 l -23.684,6.06865 -0.3508,0.35613 c -1.1136,1.13046 -33.2344,33.83175 -33.5482,34.15434 l -0.3796,0.39027 27.2555,-10e-4 27.2553,-0.001 13.5983,-23.48638 z"
       id="path131"
       inkscape:connector-curvature="0" />
  </g>
</svg>
